<?xml version="1.0" encoding="UTF-8"?><svg id="Camada_1" xmlns="http://www.w3.org/2000/svg" viewBox="0 0 961 961"><defs><style>.cls-1,.cls-2{fill:#35495a;}.cls-3{fill:#4472c4;}.cls-4{fill:#fff;}.cls-5,.cls-2,.cls-6,.cls-7{fill-rule:evenodd;}.cls-5,.cls-8{fill:#f05727;}.cls-9{fill:#54c8ef;}.cls-10,.cls-7{fill:#5bbda9;}.cls-6,.cls-11{fill:#f69f00;}.cls-12{fill:#f2f2f9;}.cls-13{fill:none;}.cls-14{fill:#a5a5a5;opacity:.52;}</style></defs><circle class="cls-12" cx="480.5" cy="480.5" r="480.5"/><g><circle class="cls-14" cx="718.86" cy="535" r="163.5"/><g><g><g><path class="cls-2" d="M718.86,306.09c42.68,0,76.67,34.61,77.29,77.29,.9,61.56-74.52,96.58-77.29,96.58-2.98,0-77.29-41.32-77.29-96.58,0-42.69,34.6-77.29,77.29-77.29h0Zm0,23.86c28.67,0,51.92,23.24,51.92,51.92s-23.25,51.92-51.92,51.92-51.92-23.24-51.92-51.92,23.24-51.92,51.92-51.92h0Z"/><g><path class="cls-4" d="M717.92,433.15c-29.72,0-53.9-24.18-53.9-53.9s24.18-53.9,53.9-53.9,53.9,24.18,53.9,53.9-24.18,53.9-53.9,53.9Z"/><path class="cls-4" d="M717.92,323.5c-30.79,0-55.75,24.96-55.75,55.75s24.96,55.74,55.75,55.74,55.74-24.96,55.74-55.74-24.96-55.75-55.74-55.75Zm0,109.65c-29.72,0-53.9-24.18-53.9-53.9s24.18-53.9,53.9-53.9,53.9,24.18,53.9,53.9-24.18,53.9-53.9,53.9Z"/></g><path class="cls-13" d="M718.95,333.15c-25.16,0-45.57,20.4-45.57,45.56s20.41,45.56,45.57,45.56,45.56-20.39,45.56-45.56-20.39-45.56-45.56-45.56Z"/></g><g><path class="cls-1" d="M676.08,367.46c.41-.73,.97-1.3,1.69-1.71s1.55-.61,2.46-.61c1.12,0,2.09,.3,2.89,.89,.8,.59,1.34,1.4,1.61,2.43h-2.54c-.19-.4-.46-.7-.8-.9-.35-.21-.74-.31-1.18-.31-.71,0-1.29,.25-1.73,.74-.44,.5-.66,1.16-.66,1.98s.22,1.49,.66,1.98c.44,.5,1.02,.74,1.73,.74,.44,0,.83-.1,1.18-.31,.35-.21,.61-.51,.8-.9h2.54c-.27,1.03-.81,1.83-1.61,2.42-.8,.59-1.76,.88-2.89,.88-.92,0-1.74-.2-2.46-.61-.72-.41-1.29-.98-1.69-1.71s-.61-1.56-.61-2.5,.2-1.77,.61-2.5Z"/><path class="cls-1" d="M686.13,368.9c.29-.58,.69-1.04,1.2-1.35,.5-.31,1.07-.47,1.69-.47,.53,0,1,.11,1.4,.32,.4,.22,.71,.5,.92,.85v-1.07h2.31v7.53h-2.31v-1.07c-.22,.35-.54,.63-.94,.85-.4,.22-.87,.32-1.4,.32-.61,0-1.17-.16-1.67-.48-.5-.32-.9-.77-1.2-1.36-.29-.59-.44-1.27-.44-2.04s.15-1.45,.44-2.04Zm4.73,.69c-.32-.33-.71-.5-1.17-.5s-.85,.16-1.17,.49-.48,.78-.48,1.36,.16,1.03,.48,1.37,.71,.51,1.17,.51,.85-.17,1.17-.5c.32-.33,.48-.79,.48-1.36s-.16-1.03-.48-1.36Z"/><path class="cls-1" d="M698.55,367.4c.4-.22,.86-.32,1.39-.32,.62,0,1.18,.16,1.69,.47s.9,.77,1.2,1.35c.29,.58,.44,1.26,.44,2.04s-.15,1.46-.44,2.04c-.29,.59-.69,1.04-1.2,1.36s-1.07,.48-1.69,.48c-.52,0-.98-.11-1.38-.32-.4-.22-.71-.5-.94-.84v4.64h-2.31v-11.12h2.31v1.07c.22-.35,.54-.63,.93-.85Zm1.88,2.18c-.32-.33-.71-.49-1.18-.49s-.85,.17-1.17,.5c-.32,.33-.48,.79-.48,1.36s.16,1.03,.48,1.36c.32,.33,.71,.5,1.17,.5s.85-.17,1.17-.51,.49-.79,.49-1.37-.16-1.03-.48-1.36Z"/><path class="cls-1" d="M704.46,368.9c.29-.58,.69-1.04,1.19-1.35s1.07-.47,1.69-.47c.53,0,1,.11,1.4,.32,.4,.22,.71,.5,.92,.85v-1.07h2.31v7.53h-2.31v-1.07c-.23,.35-.54,.63-.94,.85-.4,.22-.87,.32-1.4,.32-.61,0-1.17-.16-1.67-.48s-.9-.77-1.19-1.36c-.29-.59-.44-1.27-.44-2.04s.15-1.45,.44-2.04Zm4.72,.69c-.32-.33-.71-.5-1.17-.5s-.85,.16-1.17,.49-.48,.78-.48,1.36,.16,1.03,.48,1.37,.71,.51,1.17,.51,.85-.17,1.17-.5,.48-.79,.48-1.36-.16-1.03-.48-1.36Z"/><path class="cls-1" d="M713.67,368.9c.32-.58,.76-1.04,1.34-1.35,.57-.31,1.23-.47,1.96-.47,.95,0,1.73,.25,2.37,.74s1.05,1.19,1.25,2.09h-2.46c-.21-.58-.61-.86-1.2-.86-.42,0-.76,.16-1.01,.49s-.38,.8-.38,1.41,.13,1.08,.38,1.41c.25,.33,.59,.49,1.01,.49,.59,0,.99-.29,1.2-.86h2.46c-.2,.88-.62,1.58-1.26,2.08-.64,.5-1.43,.76-2.36,.76-.74,0-1.39-.16-1.96-.47-.57-.31-1.02-.77-1.34-1.35s-.48-1.27-.48-2.05,.16-1.47,.48-2.05Z"/><path class="cls-1" d="M721.98,366.04c-.26-.24-.38-.53-.38-.88s.13-.66,.38-.9c.26-.24,.59-.36,.99-.36s.72,.12,.98,.36c.26,.24,.38,.54,.38,.9s-.13,.65-.38,.88c-.26,.24-.58,.36-.98,.36s-.74-.12-.99-.36Zm2.14,1.14v7.53h-2.31v-7.53h2.31Z"/><path class="cls-1" d="M725.78,368.9c.29-.58,.69-1.04,1.2-1.35,.5-.31,1.07-.47,1.69-.47,.49,0,.95,.1,1.36,.31,.41,.21,.73,.49,.96,.84v-3.5h2.31v9.99h-2.31v-1.08c-.22,.36-.52,.65-.92,.86-.4,.22-.87,.32-1.4,.32-.62,0-1.18-.16-1.69-.48-.5-.32-.9-.77-1.2-1.36-.29-.59-.44-1.27-.44-2.04s.15-1.45,.44-2.04Zm4.73,.69c-.32-.33-.71-.5-1.17-.5s-.85,.16-1.17,.49-.48,.78-.48,1.36,.16,1.03,.48,1.37,.71,.51,1.17,.51,.85-.17,1.17-.5c.32-.33,.48-.79,.48-1.36s-.16-1.03-.48-1.36Z"/><path class="cls-1" d="M734.94,368.9c.29-.58,.69-1.04,1.19-1.35s1.07-.47,1.69-.47c.53,0,1,.11,1.4,.32,.4,.22,.71,.5,.92,.85v-1.07h2.31v7.53h-2.31v-1.07c-.23,.35-.54,.63-.94,.85-.4,.22-.87,.32-1.4,.32-.61,0-1.17-.16-1.67-.48s-.9-.77-1.19-1.36c-.29-.59-.44-1.27-.44-2.04s.15-1.45,.44-2.04Zm4.72,.69c-.32-.33-.71-.5-1.17-.5s-.85,.16-1.17,.49-.48,.78-.48,1.36,.16,1.03,.48,1.37,.71,.51,1.17,.51,.85-.17,1.17-.5,.48-.79,.48-1.36-.16-1.03-.48-1.36Z"/><path class="cls-1" d="M744.11,368.9c.29-.58,.69-1.04,1.2-1.35,.5-.31,1.07-.47,1.69-.47,.49,0,.95,.1,1.36,.31,.41,.21,.73,.49,.96,.84v-3.5h2.31v9.99h-2.31v-1.08c-.22,.36-.52,.65-.92,.86-.4,.22-.87,.32-1.4,.32-.62,0-1.18-.16-1.69-.48-.5-.32-.9-.77-1.2-1.36-.29-.59-.44-1.27-.44-2.04s.15-1.45,.44-2.04Zm4.73,.69c-.32-.33-.71-.5-1.17-.5s-.85,.16-1.17,.49-.48,.78-.48,1.36,.16,1.03,.48,1.37,.71,.51,1.17,.51,.85-.17,1.17-.5c.32-.33,.48-.79,.48-1.36s-.16-1.03-.48-1.36Z"/><path class="cls-1" d="M760.36,371.5h-5.22c.04,.47,.19,.83,.45,1.07s.59,.37,.98,.37c.58,0,.98-.24,1.2-.73h2.46c-.13,.5-.35,.94-.68,1.34-.33,.4-.74,.71-1.23,.93-.5,.23-1.05,.34-1.66,.34-.74,0-1.39-.16-1.97-.47s-1.03-.77-1.35-1.35c-.32-.58-.49-1.27-.49-2.05s.16-1.47,.48-2.05c.32-.58,.77-1.04,1.34-1.35s1.24-.47,1.98-.47,1.38,.15,1.94,.46c.57,.31,1.01,.74,1.33,1.31,.32,.57,.48,1.23,.48,1.98,0,.22-.01,.44-.04,.68Zm-2.32-1.28c0-.4-.13-.71-.41-.94-.27-.23-.61-.35-1.01-.35s-.71,.11-.98,.34c-.27,.23-.43,.54-.49,.96h2.89Z"/><path class="cls-1" d="M667.44,390.39c-.74-.41-1.33-.99-1.77-1.73s-.66-1.58-.66-2.5,.22-1.76,.66-2.5c.44-.74,1.03-1.31,1.77-1.73,.74-.41,1.56-.62,2.45-.62s1.71,.21,2.45,.62c.74,.41,1.33,.99,1.75,1.73,.43,.74,.64,1.57,.64,2.5s-.22,1.76-.65,2.5c-.43,.74-1.02,1.32-1.75,1.73s-1.55,.62-2.44,.62-1.71-.21-2.45-.62Zm4.27-2.24c.45-.5,.68-1.17,.68-2s-.23-1.5-.68-2-1.06-.75-1.82-.75-1.38,.25-1.83,.74c-.46,.5-.68,1.17-.68,2.01s.23,1.51,.68,2c.45,.5,1.06,.75,1.83,.75s1.36-.25,1.82-.76Z"/><path class="cls-1" d="M679.34,383.66c.4-.24,.85-.36,1.35-.36v2.44h-.63c-.58,0-1.01,.12-1.3,.37s-.43,.68-.43,1.3v3.5h-2.31v-7.53h2.31v1.26c.27-.41,.61-.74,1.01-.98Z"/><path class="cls-1" d="M686.05,383.6c.4,.22,.71,.5,.92,.85v-1.07h2.31v7.52c0,.69-.14,1.32-.41,1.88s-.69,1.01-1.26,1.34-1.26,.5-2.1,.5c-1.12,0-2.02-.26-2.71-.79s-1.09-1.24-1.19-2.14h2.28c.07,.29,.24,.52,.51,.68,.27,.17,.6,.25,1,.25,.48,0,.86-.14,1.14-.41,.28-.27,.43-.71,.43-1.32v-1.07c-.23,.35-.54,.64-.93,.86-.4,.22-.86,.33-1.39,.33-.62,0-1.18-.16-1.69-.48s-.9-.77-1.19-1.36c-.29-.59-.44-1.27-.44-2.04s.15-1.45,.44-2.04c.29-.58,.69-1.04,1.19-1.35s1.07-.47,1.69-.47c.53,0,1,.11,1.4,.32Zm.45,2.19c-.32-.33-.71-.5-1.17-.5s-.85,.16-1.17,.49-.48,.78-.48,1.36,.16,1.03,.48,1.37,.71,.51,1.17,.51,.85-.17,1.17-.5,.48-.79,.48-1.36-.16-1.03-.48-1.36Z"/><path class="cls-1" d="M690.94,385.1c.29-.58,.69-1.04,1.2-1.35,.5-.31,1.07-.47,1.69-.47,.53,0,1,.11,1.4,.32,.4,.22,.71,.5,.92,.85v-1.07h2.31v7.53h-2.31v-1.07c-.22,.35-.54,.63-.94,.85-.4,.22-.87,.32-1.4,.32-.61,0-1.17-.16-1.67-.48-.5-.32-.9-.77-1.2-1.36-.29-.59-.44-1.27-.44-2.04s.15-1.45,.44-2.04Zm4.73,.69c-.32-.33-.71-.5-1.17-.5s-.85,.16-1.17,.49-.48,.78-.48,1.36,.16,1.03,.48,1.37,.71,.51,1.17,.51,.85-.17,1.17-.5c.32-.33,.48-.79,.48-1.36s-.16-1.03-.48-1.36Z"/><path class="cls-1" d="M706.83,384.16c.53,.57,.79,1.36,.79,2.36v4.4h-2.29v-4.09c0-.5-.13-.9-.39-1.17-.26-.28-.61-.42-1.05-.42s-.79,.14-1.05,.42c-.26,.28-.39,.67-.39,1.17v4.09h-2.31v-7.53h2.31v1c.23-.33,.55-.6,.95-.79,.4-.19,.84-.29,1.34-.29,.88,0,1.59,.29,2.11,.86Z"/><path class="cls-1" d="M709.39,382.24c-.26-.24-.38-.53-.38-.88s.13-.66,.38-.9c.26-.24,.59-.36,.99-.36s.72,.12,.98,.36c.26,.24,.38,.54,.38,.9s-.13,.65-.38,.88c-.26,.24-.58,.36-.98,.36s-.74-.12-.99-.36Zm2.14,1.14v7.53h-2.31v-7.53h2.31Z"/><path class="cls-1" d="M715.37,389.01h3.27v1.9h-5.85v-1.84l3.13-3.79h-3.11v-1.9h5.75v1.84l-3.2,3.79Z"/><path class="cls-1" d="M719.88,385.1c.29-.58,.69-1.04,1.2-1.35,.5-.31,1.07-.47,1.69-.47,.53,0,1,.11,1.4,.32,.4,.22,.71,.5,.92,.85v-1.07h2.31v7.53h-2.31v-1.07c-.22,.35-.54,.63-.94,.85-.4,.22-.87,.32-1.4,.32-.61,0-1.17-.16-1.67-.48-.5-.32-.9-.77-1.2-1.36-.29-.59-.44-1.27-.44-2.04s.15-1.45,.44-2.04Zm4.73,.69c-.32-.33-.71-.5-1.17-.5s-.85,.16-1.17,.49-.48,.78-.48,1.36,.16,1.03,.48,1.37,.71,.51,1.17,.51,.85-.17,1.17-.5c.32-.33,.48-.79,.48-1.36s-.16-1.03-.48-1.36Z"/><path class="cls-1" d="M729.09,385.1c.32-.58,.76-1.04,1.34-1.35,.57-.31,1.23-.47,1.96-.47,.95,0,1.73,.25,2.37,.74s1.05,1.19,1.25,2.09h-2.46c-.21-.58-.61-.86-1.2-.86-.42,0-.76,.16-1.01,.49s-.38,.8-.38,1.41,.13,1.08,.38,1.41c.25,.33,.59,.49,1.01,.49,.59,0,.99-.29,1.2-.86h2.46c-.2,.88-.62,1.58-1.26,2.08-.64,.5-1.43,.76-2.36,.76-.74,0-1.39-.16-1.96-.47-.57-.31-1.02-.77-1.34-1.35s-.48-1.27-.48-2.05,.16-1.47,.48-2.05Z"/><path class="cls-1" d="M737.41,382.24c-.26-.24-.38-.53-.38-.88s.13-.66,.38-.9c.26-.24,.59-.36,.99-.36s.72,.12,.98,.36c.26,.24,.38,.54,.38,.9s-.13,.65-.38,.88c-.26,.24-.58,.36-.98,.36s-.74-.12-.99-.36Zm2.14,1.14v7.53h-2.31v-7.53h2.31Z"/><path class="cls-1" d="M742.66,390.55c-.59-.31-1.05-.77-1.39-1.35-.34-.58-.51-1.27-.51-2.05s.17-1.46,.51-2.04,.81-1.04,1.4-1.36,1.26-.47,2-.47,1.4,.16,2,.47c.59,.31,1.06,.77,1.4,1.36,.34,.59,.51,1.27,.51,2.04s-.17,1.46-.52,2.05c-.35,.59-.82,1.04-1.42,1.36s-1.27,.47-2,.47-1.4-.16-1.99-.47Zm3.12-2.01c.31-.32,.47-.79,.47-1.39s-.15-1.07-.45-1.39c-.3-.32-.67-.49-1.11-.49s-.82,.16-1.12,.48c-.3,.32-.45,.79-.45,1.4s.15,1.07,.44,1.39c.29,.32,.66,.49,1.1,.49s.82-.16,1.13-.49Z"/><path class="cls-1" d="M756.52,384.16c.53,.57,.79,1.36,.79,2.36v4.4h-2.29v-4.09c0-.5-.13-.9-.39-1.17-.26-.28-.61-.42-1.05-.42s-.79,.14-1.05,.42c-.26,.28-.39,.67-.39,1.17v4.09h-2.31v-7.53h2.31v1c.23-.33,.55-.6,.95-.79,.4-.19,.84-.29,1.34-.29,.88,0,1.59,.29,2.11,.86Z"/><path class="cls-1" d="M758.9,385.1c.29-.58,.69-1.04,1.2-1.35,.5-.31,1.07-.47,1.69-.47,.53,0,1,.11,1.4,.32,.4,.22,.71,.5,.92,.85v-1.07h2.31v7.53h-2.31v-1.07c-.22,.35-.54,.63-.94,.85-.4,.22-.87,.32-1.4,.32-.61,0-1.17-.16-1.67-.48-.5-.32-.9-.77-1.2-1.36-.29-.59-.44-1.27-.44-2.04s.15-1.45,.44-2.04Zm4.73,.69c-.32-.33-.71-.5-1.17-.5s-.85,.16-1.17,.49-.48,.78-.48,1.36,.16,1.03,.48,1.37,.71,.51,1.17,.51,.85-.17,1.17-.5c.32-.33,.48-.79,.48-1.36s-.16-1.03-.48-1.36Z"/><path class="cls-1" d="M770.39,380.92v9.99h-2.31v-9.99h2.31Z"/></g></g><g><g><path class="cls-7" d="M718.86,763.91c42.68,0,76.67-34.61,77.29-77.29,.9-61.56-74.52-96.58-77.29-96.58-2.98,0-77.29,41.32-77.29,96.58,0,42.69,34.6,77.29,77.29,77.29h0Zm0-23.86c28.67,0,51.92-23.24,51.92-51.92s-23.25-51.92-51.92-51.92-51.92,23.24-51.92,51.92,23.24,51.92,51.92,51.92h0Z"/><g><path class="cls-4" d="M717.92,636.85c-29.72,0-53.9,24.18-53.9,53.9s24.18,53.9,53.9,53.9,53.9-24.18,53.9-53.9-24.18-53.9-53.9-53.9Z"/><path class="cls-4" d="M717.92,746.5c-30.79,0-55.75-24.96-55.75-55.75s24.96-55.74,55.75-55.74,55.74,24.96,55.74,55.74-24.96,55.75-55.74,55.75Zm0-109.65c-29.72,0-53.9,24.18-53.9,53.9s24.18,53.9,53.9,53.9,53.9-24.18,53.9-53.9-24.18-53.9-53.9-53.9Z"/></g><path class="cls-13" d="M718.95,736.85c-25.16,0-45.57-20.4-45.57-45.56s20.41-45.56,45.57-45.56,45.56,20.39,45.56,45.56-20.39,45.56-45.56,45.56Z"/></g><g><path class="cls-1" d="M695.39,687.09c-.88-.49-1.58-1.18-2.1-2.06-.52-.88-.78-1.87-.78-2.97s.26-2.08,.78-2.96c.52-.87,1.22-1.56,2.1-2.05,.88-.49,1.85-.74,2.9-.74s2.02,.25,2.9,.74c.88,.49,1.57,1.17,2.08,2.05,.51,.88,.76,1.86,.76,2.96s-.26,2.09-.77,2.97c-.51,.88-1.21,1.57-2.08,2.06-.88,.49-1.84,.74-2.9,.74s-2.02-.25-2.9-.74Zm5.06-2.66c.54-.6,.81-1.39,.81-2.37s-.27-1.78-.81-2.38c-.54-.59-1.26-.89-2.15-.89s-1.63,.29-2.17,.88c-.54,.59-.81,1.38-.81,2.38s.27,1.78,.81,2.38c.54,.59,1.26,.89,2.17,.89s1.61-.3,2.15-.9Z"/><path class="cls-1" d="M714.37,678.79v8.93h-2.74v-1.22c-.28,.39-.65,.71-1.13,.95-.47,.24-1,.36-1.58,.36-.68,0-1.29-.15-1.81-.46-.52-.3-.93-.74-1.22-1.32-.29-.58-.43-1.25-.43-2.03v-5.22h2.72v4.85c0,.6,.16,1.06,.46,1.39,.31,.33,.72,.5,1.25,.5s.95-.17,1.26-.5c.31-.33,.46-.79,.46-1.39v-4.85h2.74Z"/><path class="cls-1" d="M721.31,685.39v2.32h-1.39c-.99,0-1.77-.24-2.32-.73s-.83-1.28-.83-2.38v-3.55h-1.09v-2.27h1.09v-2.18h2.74v2.18h1.79v2.27h-1.79v3.58c0,.27,.06,.46,.19,.58s.34,.18,.64,.18h.98Z"/><path class="cls-1" d="M726.77,679.11c.48-.28,1.01-.42,1.6-.42v2.9h-.75c-.68,0-1.2,.15-1.54,.44-.34,.29-.51,.81-.51,1.54v4.14h-2.74v-8.93h2.74v1.49c.32-.49,.72-.88,1.2-1.16Z"/><path class="cls-1" d="M731.39,687.28c-.7-.37-1.25-.91-1.65-1.6-.4-.69-.6-1.5-.6-2.43s.2-1.73,.61-2.42c.41-.7,.96-1.23,1.66-1.61,.7-.37,1.49-.56,2.37-.56s1.66,.19,2.37,.56,1.26,.91,1.66,1.61c.41,.7,.61,1.51,.61,2.42s-.21,1.73-.62,2.42c-.41,.7-.97,1.23-1.68,1.61-.71,.37-1.5,.56-2.38,.56s-1.66-.19-2.36-.56Zm3.7-2.38c.37-.38,.55-.93,.55-1.65s-.18-1.26-.54-1.65-.8-.58-1.32-.58-.98,.19-1.33,.57c-.35,.38-.53,.93-.53,1.66s.17,1.26,.52,1.65,.78,.58,1.3,.58,.97-.19,1.34-.58Z"/><path class="cls-1" d="M741.43,687.44c-.61-.27-1.09-.63-1.44-1.1-.35-.46-.55-.98-.59-1.56h2.7c.03,.31,.18,.56,.43,.75,.26,.19,.57,.29,.94,.29,.34,0,.61-.07,.79-.2,.19-.13,.28-.31,.28-.52,0-.26-.13-.45-.4-.57-.27-.12-.7-.26-1.3-.41-.64-.15-1.17-.31-1.6-.47-.43-.17-.79-.43-1.1-.78s-.46-.84-.46-1.45c0-.51,.14-.98,.42-1.4,.28-.42,.7-.75,1.25-1,.55-.25,1.2-.37,1.96-.37,1.12,0,2,.28,2.65,.83,.64,.55,1.02,1.29,1.11,2.21h-2.53c-.04-.31-.18-.55-.41-.74s-.53-.27-.9-.27c-.32,0-.57,.06-.74,.18-.17,.12-.26,.29-.26,.5,0,.26,.14,.45,.41,.58,.27,.13,.7,.26,1.27,.38,.66,.17,1.2,.34,1.62,.5,.42,.17,.78,.43,1.1,.8,.31,.37,.48,.86,.49,1.48,0,.52-.15,.99-.44,1.4-.29,.41-.71,.73-1.26,.97-.55,.24-1.19,.35-1.91,.35-.78,0-1.47-.13-2.08-.4Z"/><path class="cls-1" d="M688.79,706.92l-2.34-4.24h-.66v4.24h-2.74v-11.23h4.59c.88,0,1.64,.16,2.26,.46,.62,.31,1.09,.73,1.4,1.27,.31,.54,.46,1.14,.46,1.8,0,.75-.21,1.41-.63,2-.42,.59-1.04,1-1.86,1.25l2.59,4.45h-3.09Zm-2.99-6.18h1.7c.5,0,.88-.12,1.13-.37s.38-.59,.38-1.04-.12-.76-.38-1.01c-.25-.25-.63-.37-1.13-.37h-1.7v2.78Z"/><path class="cls-1" d="M701.87,703.11h-6.19c.04,.55,.22,.98,.54,1.27s.7,.44,1.16,.44c.68,0,1.16-.29,1.42-.86h2.91c-.15,.59-.42,1.11-.81,1.58-.39,.47-.88,.84-1.46,1.1-.59,.27-1.24,.4-1.97,.4-.87,0-1.65-.19-2.34-.56-.68-.37-1.22-.91-1.6-1.6s-.58-1.5-.58-2.43,.19-1.74,.57-2.43c.38-.69,.91-1.23,1.59-1.6s1.47-.56,2.35-.56,1.63,.18,2.3,.54c.67,.36,1.2,.88,1.58,1.55,.38,.67,.57,1.46,.57,2.35,0,.26-.02,.52-.05,.8Zm-2.75-1.52c0-.47-.16-.84-.48-1.12-.32-.28-.72-.42-1.2-.42s-.85,.13-1.16,.4c-.32,.27-.51,.65-.58,1.14h3.42Z"/><path class="cls-1" d="M703.38,700.02c.38-.69,.91-1.23,1.58-1.6,.68-.37,1.45-.56,2.33-.56,1.12,0,2.06,.29,2.81,.88,.75,.59,1.25,1.41,1.48,2.48h-2.91c-.25-.68-.72-1.02-1.42-1.02-.5,0-.9,.2-1.2,.58-.3,.39-.45,.95-.45,1.67s.15,1.28,.45,1.67c.3,.39,.7,.58,1.2,.58,.7,0,1.18-.34,1.42-1.02h2.91c-.23,1.05-.73,1.87-1.49,2.46-.76,.6-1.69,.9-2.8,.9-.88,0-1.65-.19-2.33-.56-.68-.37-1.21-.91-1.58-1.6-.38-.69-.57-1.5-.57-2.43s.19-1.74,.57-2.43Z"/><path class="cls-1" d="M721.85,697.99v8.93h-2.74v-1.22c-.28,.39-.65,.71-1.13,.95-.47,.24-1,.36-1.58,.36-.68,0-1.29-.15-1.81-.46s-.93-.74-1.22-1.32c-.29-.58-.43-1.25-.43-2.03v-5.22h2.72v4.85c0,.6,.15,1.06,.46,1.39,.31,.33,.73,.5,1.25,.5s.95-.17,1.26-.5c.31-.33,.46-.79,.46-1.39v-4.85h2.74Z"/><path class="cls-1" d="M727.75,698.31c.48-.28,1.01-.42,1.6-.42v2.9h-.75c-.68,0-1.2,.15-1.54,.44-.34,.29-.51,.81-.51,1.54v4.14h-2.74v-8.93h2.74v1.49c.32-.49,.72-.88,1.2-1.16Z"/><path class="cls-1" d="M732.22,706.64c-.61-.27-1.09-.63-1.44-1.1-.35-.46-.55-.98-.59-1.56h2.7c.03,.31,.18,.56,.43,.75,.26,.19,.57,.29,.94,.29,.34,0,.61-.07,.79-.2,.19-.13,.28-.31,.28-.52,0-.26-.13-.45-.4-.57-.27-.12-.7-.26-1.3-.41-.64-.15-1.17-.31-1.6-.47-.43-.17-.79-.43-1.1-.78s-.46-.84-.46-1.45c0-.51,.14-.98,.42-1.4,.28-.42,.7-.75,1.25-1,.55-.25,1.2-.37,1.96-.37,1.12,0,2,.28,2.65,.83,.64,.55,1.02,1.29,1.11,2.21h-2.53c-.04-.31-.18-.55-.41-.74s-.53-.27-.9-.27c-.32,0-.57,.06-.74,.18-.17,.12-.26,.29-.26,.5,0,.26,.14,.45,.41,.58,.27,.13,.7,.26,1.27,.38,.66,.17,1.2,.34,1.62,.5,.42,.17,.78,.43,1.1,.8,.31,.37,.48,.86,.49,1.48,0,.52-.15,.99-.44,1.4-.29,.41-.71,.73-1.26,.97-.55,.24-1.19,.35-1.91,.35-.78,0-1.47-.13-2.08-.4Z"/><path class="cls-1" d="M741.3,706.48c-.7-.37-1.25-.91-1.65-1.6-.4-.69-.6-1.5-.6-2.43s.2-1.73,.61-2.42c.41-.7,.96-1.23,1.66-1.61,.7-.37,1.49-.56,2.37-.56s1.66,.19,2.37,.56,1.26,.91,1.66,1.61c.41,.7,.61,1.51,.61,2.42s-.21,1.73-.62,2.42c-.41,.7-.97,1.23-1.68,1.61-.71,.37-1.5,.56-2.38,.56s-1.66-.19-2.36-.56Zm3.7-2.38c.37-.38,.55-.93,.55-1.65s-.18-1.26-.54-1.65-.8-.58-1.32-.58-.98,.19-1.33,.57c-.35,.38-.53,.93-.53,1.66s.17,1.26,.52,1.65,.78,.58,1.3,.58,.97-.19,1.34-.58Z"/><path class="cls-1" d="M751.34,706.64c-.61-.27-1.09-.63-1.44-1.1-.35-.46-.55-.98-.59-1.56h2.7c.03,.31,.18,.56,.43,.75,.26,.19,.57,.29,.94,.29,.34,0,.61-.07,.79-.2,.19-.13,.28-.31,.28-.52,0-.26-.13-.45-.4-.57-.27-.12-.7-.26-1.3-.41-.64-.15-1.17-.31-1.6-.47-.43-.17-.79-.43-1.1-.78-.31-.36-.46-.84-.46-1.45,0-.51,.14-.98,.42-1.4,.28-.42,.7-.75,1.25-1,.55-.25,1.2-.37,1.96-.37,1.12,0,2,.28,2.65,.83,.65,.55,1.02,1.29,1.11,2.21h-2.53c-.04-.31-.18-.55-.41-.74s-.53-.27-.9-.27c-.32,0-.57,.06-.74,.18-.17,.12-.26,.29-.26,.5,0,.26,.14,.45,.41,.58,.27,.13,.7,.26,1.27,.38,.66,.17,1.2,.34,1.62,.5s.78,.43,1.1,.8,.48,.86,.49,1.48c0,.52-.15,.99-.44,1.4-.29,.41-.71,.73-1.26,.97-.55,.24-1.19,.35-1.91,.35-.78,0-1.47-.13-2.08-.4Z"/></g></g><g><g><path class="cls-6" d="M947.77,535c0,42.68-34.61,76.67-77.29,77.29-61.56,.9-96.58-74.52-96.58-77.29,0-2.98,41.32-77.29,96.58-77.29,42.69,0,77.29,34.6,77.29,77.29h0Zm-23.86,0c0,28.67-23.24,51.92-51.92,51.92s-51.92-23.25-51.92-51.92,23.24-51.92,51.92-51.92,51.92,23.24,51.92,51.92h0Z"/><g><path class="cls-4" d="M820.71,534.06c0-29.72,24.18-53.9,53.9-53.9s53.9,24.18,53.9,53.9-24.18,53.9-53.9,53.9-53.9-24.18-53.9-53.9Z"/><path class="cls-4" d="M930.36,534.06c0-30.79-24.96-55.75-55.75-55.75s-55.74,24.96-55.74,55.75,24.96,55.74,55.74,55.74,55.75-24.96,55.75-55.74Zm-109.65,0c0-29.72,24.18-53.9,53.9-53.9s53.9,24.18,53.9,53.9-24.18,53.9-53.9,53.9-53.9-24.18-53.9-53.9Z"/></g><path class="cls-13" d="M920.71,535.09c0-25.16-20.4-45.57-45.56-45.57s-45.56,20.41-45.56,45.57,20.39,45.56,45.56,45.56,45.56-20.39,45.56-45.56Z"/></g><g><path class="cls-1" d="M847.46,521.03c-.2-.37-.49-.66-.87-.86s-.82-.3-1.34-.3c-.89,0-1.59,.29-2.13,.87s-.8,1.36-.8,2.33c0,1.03,.28,1.84,.84,2.42,.56,.58,1.33,.87,2.31,.87,.67,0,1.24-.17,1.7-.51,.46-.34,.8-.83,1.02-1.47h-3.47v-2.02h5.95v2.54c-.2,.68-.55,1.32-1.03,1.9-.49,.59-1.1,1.06-1.85,1.42-.75,.36-1.59,.54-2.53,.54-1.11,0-2.1-.24-2.97-.73s-1.55-1.16-2.03-2.02c-.49-.86-.73-1.85-.73-2.96s.24-2.1,.73-2.97c.49-.87,1.16-1.55,2.02-2.03s1.85-.73,2.96-.73c1.34,0,2.48,.33,3.4,.98,.92,.65,1.53,1.55,1.83,2.7h-3.02Z"/><path class="cls-1" d="M860.56,524.91h-6.19c.04,.55,.22,.98,.54,1.27,.31,.29,.7,.44,1.16,.44,.68,0,1.16-.29,1.42-.86h2.91c-.15,.59-.42,1.11-.81,1.58-.39,.47-.88,.84-1.46,1.1s-1.24,.4-1.97,.4c-.88,0-1.65-.19-2.34-.56-.68-.37-1.22-.91-1.6-1.6-.38-.69-.58-1.5-.58-2.43s.19-1.74,.57-2.43,.91-1.23,1.59-1.6,1.47-.56,2.35-.56,1.63,.18,2.3,.54c.67,.36,1.2,.88,1.58,1.55,.38,.67,.57,1.46,.57,2.35,0,.26-.02,.52-.05,.8Zm-2.75-1.52c0-.47-.16-.84-.48-1.12s-.72-.42-1.2-.42-.85,.13-1.16,.4-.51,.65-.58,1.14h3.42Z"/><path class="cls-1" d="M863.6,528.44c-.61-.27-1.09-.63-1.44-1.1-.35-.46-.55-.98-.59-1.56h2.7c.03,.31,.18,.56,.43,.75,.26,.19,.57,.29,.94,.29,.34,0,.61-.07,.79-.2,.19-.13,.28-.31,.28-.52,0-.26-.13-.45-.4-.57-.27-.12-.7-.26-1.3-.41-.64-.15-1.17-.31-1.6-.47-.43-.17-.79-.43-1.1-.78-.31-.36-.46-.84-.46-1.45,0-.51,.14-.98,.42-1.4,.28-.42,.7-.75,1.25-1,.55-.25,1.2-.37,1.96-.37,1.12,0,2,.28,2.65,.83,.65,.55,1.02,1.29,1.11,2.21h-2.53c-.04-.31-.18-.55-.41-.74s-.53-.27-.9-.27c-.32,0-.57,.06-.74,.18-.17,.12-.26,.29-.26,.5,0,.26,.14,.45,.41,.58,.27,.13,.7,.26,1.27,.38,.66,.17,1.2,.34,1.62,.5s.78,.43,1.1,.8,.48,.86,.49,1.48c0,.52-.15,.99-.44,1.4-.29,.41-.71,.73-1.26,.97-.55,.24-1.19,.35-1.91,.35-.78,0-1.47-.13-2.08-.4Z"/><path class="cls-1" d="M875.95,526.39v2.32h-1.39c-.99,0-1.77-.24-2.32-.73s-.83-1.28-.83-2.38v-3.55h-1.09v-2.27h1.09v-2.18h2.74v2.18h1.79v2.27h-1.79v3.58c0,.27,.06,.46,.19,.58s.34,.18,.64,.18h.98Z"/><path class="cls-1" d="M877.45,521.82c.35-.69,.82-1.23,1.42-1.6,.6-.37,1.26-.56,2-.56,.63,0,1.18,.13,1.66,.38,.47,.26,.84,.59,1.1,1.01v-1.26h2.74v8.93h-2.74v-1.26c-.27,.42-.64,.75-1.11,1.01-.47,.26-1.03,.38-1.66,.38-.73,0-1.39-.19-1.98-.57-.6-.38-1.07-.92-1.42-1.62-.35-.7-.52-1.51-.52-2.42s.17-1.72,.52-2.42Zm3.53-5.15c.23,0,.44,.03,.62,.1s.39,.17,.65,.31c.19,.11,.35,.18,.46,.23,.12,.05,.24,.07,.37,.07,.39,0,.62-.24,.69-.72h1.41c-.26,1.58-.99,2.37-2.21,2.37-.24,0-.44-.03-.62-.1s-.39-.17-.65-.31c-.19-.11-.35-.18-.46-.23s-.24-.07-.37-.07c-.39,0-.63,.24-.7,.72h-1.39c.26-1.58,.99-2.37,2.21-2.37Zm2.07,5.97c-.38-.39-.84-.59-1.38-.59s-1.01,.19-1.38,.58c-.38,.39-.57,.92-.57,1.61s.19,1.22,.57,1.62c.38,.4,.84,.6,1.38,.6s1-.2,1.38-.59c.38-.39,.57-.93,.57-1.62s-.19-1.22-.57-1.62Z"/><path class="cls-1" d="M890.04,528.28c-.7-.37-1.25-.91-1.65-1.6s-.6-1.5-.6-2.43,.2-1.73,.61-2.42c.41-.7,.96-1.23,1.66-1.61s1.49-.56,2.37-.56,1.66,.19,2.37,.56,1.26,.91,1.66,1.61c.41,.7,.61,1.51,.61,2.42s-.21,1.73-.62,2.42c-.41,.7-.97,1.23-1.68,1.61-.71,.37-1.5,.56-2.38,.56s-1.66-.19-2.36-.56Zm3.7-2.38c.37-.38,.55-.93,.55-1.65s-.18-1.26-.54-1.65c-.36-.38-.8-.58-1.32-.58s-.98,.19-1.33,.57-.53,.93-.53,1.66,.17,1.26,.52,1.65,.78,.58,1.3,.58,.97-.19,1.34-.58Z"/><path class="cls-1" d="M910.29,524.91h-6.19c.04,.55,.22,.98,.54,1.27s.7,.44,1.16,.44c.68,0,1.16-.29,1.42-.86h2.91c-.15,.59-.42,1.11-.81,1.58-.39,.47-.88,.84-1.46,1.1-.59,.27-1.24,.4-1.97,.4-.87,0-1.65-.19-2.34-.56-.68-.37-1.22-.91-1.6-1.6s-.58-1.5-.58-2.43,.19-1.74,.57-2.43c.38-.69,.91-1.23,1.59-1.6s1.47-.56,2.35-.56,1.63,.18,2.3,.54c.67,.36,1.2,.88,1.58,1.55,.38,.67,.57,1.46,.57,2.35,0,.26-.02,.52-.05,.8Zm-2.75-1.52c0-.47-.16-.84-.48-1.12-.32-.28-.72-.42-1.2-.42s-.85,.13-1.16,.4c-.32,.27-.51,.65-.58,1.14h3.42Z"/><path class="cls-1" d="M842.24,542.08c-.3,.54-.76,.97-1.38,1.3-.62,.33-1.39,.5-2.3,.5h-1.7v4.03h-2.74v-11.23h4.43c.9,0,1.65,.16,2.27,.46,.62,.31,1.08,.74,1.39,1.28s.46,1.17,.46,1.87c0,.65-.15,1.25-.45,1.78Zm-2.72-.74c.26-.25,.38-.59,.38-1.04s-.13-.79-.38-1.04c-.26-.25-.65-.37-1.17-.37h-1.49v2.82h1.49c.52,0,.91-.12,1.17-.37Z"/><path class="cls-1" d="M848.04,539.31c.48-.28,1.01-.42,1.6-.42v2.9h-.75c-.68,0-1.19,.15-1.54,.44-.34,.29-.51,.81-.51,1.54v4.14h-2.74v-8.93h2.74v1.49c.32-.49,.72-.88,1.2-1.16Z"/><path class="cls-1" d="M852.66,547.48c-.7-.37-1.25-.91-1.65-1.6-.4-.69-.6-1.5-.6-2.43s.2-1.73,.61-2.42c.41-.7,.96-1.23,1.66-1.61,.7-.37,1.49-.56,2.37-.56s1.66,.19,2.37,.56,1.26,.91,1.66,1.61c.41,.7,.61,1.51,.61,2.42s-.21,1.73-.62,2.42c-.41,.7-.97,1.23-1.68,1.61-.71,.37-1.5,.56-2.38,.56s-1.66-.19-2.36-.56Zm3.7-2.38c.37-.38,.55-.93,.55-1.65s-.18-1.26-.54-1.65-.8-.58-1.32-.58-.98,.19-1.33,.57c-.35,.38-.53,.93-.53,1.66s.17,1.26,.52,1.65,.78,.58,1.3,.58,.97-.19,1.34-.58Z"/><path class="cls-1" d="M861.17,541.02c.38-.69,.91-1.23,1.58-1.6,.68-.37,1.45-.56,2.33-.56,1.12,0,2.06,.29,2.81,.88,.75,.59,1.25,1.41,1.48,2.48h-2.91c-.25-.68-.72-1.02-1.42-1.02-.5,0-.9,.2-1.2,.58-.3,.39-.45,.95-.45,1.67s.15,1.28,.45,1.67c.3,.39,.7,.58,1.2,.58,.7,0,1.18-.34,1.42-1.02h2.91c-.23,1.05-.73,1.87-1.49,2.46-.76,.6-1.69,.9-2.8,.9-.88,0-1.65-.19-2.33-.56-.68-.37-1.21-.91-1.58-1.6-.38-.69-.57-1.5-.57-2.43s.19-1.74,.57-2.43Z"/><path class="cls-1" d="M879.19,544.11h-6.19c.04,.55,.22,.98,.54,1.27,.31,.29,.7,.44,1.16,.44,.68,0,1.16-.29,1.42-.86h2.91c-.15,.59-.42,1.11-.81,1.58-.39,.47-.88,.84-1.46,1.1s-1.24,.4-1.97,.4c-.88,0-1.65-.19-2.34-.56-.68-.37-1.22-.91-1.6-1.6-.38-.69-.58-1.5-.58-2.43s.19-1.74,.57-2.43,.91-1.23,1.59-1.6,1.47-.56,2.35-.56,1.63,.18,2.3,.54c.67,.36,1.2,.88,1.58,1.55,.38,.67,.57,1.46,.57,2.35,0,.26-.02,.52-.05,.8Zm-2.75-1.52c0-.47-.16-.84-.48-1.12s-.72-.42-1.2-.42-.85,.13-1.16,.4-.51,.65-.58,1.14h3.42Z"/><path class="cls-1" d="M882.23,547.64c-.61-.27-1.09-.63-1.44-1.1-.35-.46-.55-.98-.59-1.56h2.7c.03,.31,.18,.56,.43,.75,.26,.19,.57,.29,.94,.29,.34,0,.61-.07,.79-.2,.19-.13,.28-.31,.28-.52,0-.26-.13-.45-.4-.57-.27-.12-.7-.26-1.3-.41-.64-.15-1.17-.31-1.6-.47-.43-.17-.79-.43-1.1-.78-.31-.36-.46-.84-.46-1.45,0-.51,.14-.98,.42-1.4,.28-.42,.7-.75,1.25-1,.55-.25,1.2-.37,1.96-.37,1.12,0,2,.28,2.65,.83,.65,.55,1.02,1.29,1.11,2.21h-2.53c-.04-.31-.18-.55-.41-.74s-.53-.27-.9-.27c-.32,0-.57,.06-.74,.18-.17,.12-.26,.29-.26,.5,0,.26,.14,.45,.41,.58,.27,.13,.7,.26,1.27,.38,.66,.17,1.2,.34,1.62,.5s.78,.43,1.1,.8,.48,.86,.49,1.48c0,.52-.15,.99-.44,1.4-.29,.41-.71,.73-1.26,.97-.55,.24-1.19,.35-1.91,.35-.78,0-1.47-.13-2.08-.4Z"/><path class="cls-1" d="M891.16,547.64c-.61-.27-1.09-.63-1.44-1.1-.35-.46-.55-.98-.59-1.56h2.7c.03,.31,.18,.56,.43,.75,.26,.19,.57,.29,.94,.29,.34,0,.61-.07,.79-.2,.19-.13,.28-.31,.28-.52,0-.26-.13-.45-.4-.57-.27-.12-.7-.26-1.3-.41-.64-.15-1.17-.31-1.6-.47-.43-.17-.79-.43-1.1-.78-.31-.36-.46-.84-.46-1.45,0-.51,.14-.98,.42-1.4,.28-.42,.7-.75,1.25-1,.55-.25,1.2-.37,1.96-.37,1.12,0,2,.28,2.65,.83,.65,.55,1.02,1.29,1.11,2.21h-2.53c-.04-.31-.18-.55-.41-.74s-.53-.27-.9-.27c-.32,0-.57,.06-.74,.18-.17,.12-.26,.29-.26,.5,0,.26,.14,.45,.41,.58,.27,.13,.7,.26,1.27,.38,.66,.17,1.2,.34,1.62,.5s.78,.43,1.1,.8,.48,.86,.49,1.48c0,.52-.15,.99-.44,1.4-.29,.41-.71,.73-1.26,.97-.55,.24-1.19,.35-1.91,.35-.78,0-1.47-.13-2.08-.4Z"/><path class="cls-1" d="M900.24,547.48c-.7-.37-1.25-.91-1.65-1.6s-.6-1.5-.6-2.43,.2-1.73,.61-2.42c.41-.7,.96-1.23,1.66-1.61s1.49-.56,2.37-.56,1.66,.19,2.37,.56,1.26,.91,1.66,1.61c.41,.7,.61,1.51,.61,2.42s-.21,1.73-.62,2.42c-.41,.7-.97,1.23-1.68,1.61-.71,.37-1.5,.56-2.38,.56s-1.66-.19-2.36-.56Zm3.7-2.38c.37-.38,.55-.93,.55-1.65s-.18-1.26-.54-1.65c-.36-.38-.8-.58-1.32-.58s-.98,.19-1.33,.57-.53,.93-.53,1.66,.17,1.26,.52,1.65,.78,.58,1.3,.58,.97-.19,1.34-.58Z"/><path class="cls-1" d="M910.28,547.64c-.61-.27-1.09-.63-1.44-1.1-.35-.46-.55-.98-.59-1.56h2.7c.03,.31,.18,.56,.43,.75,.26,.19,.57,.29,.94,.29,.34,0,.61-.07,.79-.2,.19-.13,.28-.31,.28-.52,0-.26-.13-.45-.4-.57-.27-.12-.7-.26-1.3-.41-.64-.15-1.17-.31-1.6-.47-.43-.17-.79-.43-1.1-.78-.31-.36-.46-.84-.46-1.45,0-.51,.14-.98,.42-1.4,.28-.42,.7-.75,1.25-1,.55-.25,1.2-.37,1.96-.37,1.12,0,2,.28,2.65,.83,.65,.55,1.02,1.29,1.11,2.21h-2.53c-.04-.31-.18-.55-.41-.74s-.53-.27-.9-.27c-.32,0-.57,.06-.74,.18-.17,.12-.26,.29-.26,.5,0,.26,.14,.45,.41,.58,.27,.13,.7,.26,1.27,.38,.66,.17,1.2,.34,1.62,.5s.78,.43,1.1,.8,.48,.86,.49,1.48c0,.52-.15,.99-.44,1.4-.29,.41-.71,.73-1.26,.97-.55,.24-1.19,.35-1.91,.35-.78,0-1.47-.13-2.08-.4Z"/></g></g><g><g><path class="cls-5" d="M489.95,535c0,42.68,34.61,76.67,77.29,77.29,61.56,.9,96.58-74.52,96.58-77.29,0-2.98-41.32-77.29-96.58-77.29-42.69,0-77.29,34.6-77.29,77.29h0Zm23.86,0c0,28.67,23.24,51.92,51.92,51.92s51.92-23.25,51.92-51.92-23.24-51.92-51.92-51.92-51.92,23.24-51.92,51.92h0Z"/><g><path class="cls-4" d="M617.02,534.06c0-29.72-24.18-53.9-53.9-53.9s-53.9,24.18-53.9,53.9,24.18,53.9,53.9,53.9,53.9-24.18,53.9-53.9Z"/><path class="cls-4" d="M507.36,534.06c0-30.79,24.96-55.75,55.75-55.75s55.74,24.96,55.74,55.75-24.96,55.74-55.74,55.74-55.75-24.96-55.75-55.74Zm109.65,0c0-29.72-24.18-53.9-53.9-53.9s-53.9,24.18-53.9,53.9,24.18,53.9,53.9,53.9,53.9-24.18,53.9-53.9Z"/></g><path class="cls-13" d="M517.01,535.09c0-25.16,20.4-45.57,45.56-45.57s45.56,20.41,45.56,45.57-20.39,45.56-45.56,45.56-45.56-20.39-45.56-45.56Z"/></g><g><path class="cls-1" d="M532.8,530.11c.48-.87,1.15-1.55,2.01-2.03s1.83-.73,2.92-.73c1.33,0,2.47,.35,3.42,1.06,.95,.7,1.58,1.66,1.9,2.88h-3.01c-.22-.47-.54-.83-.95-1.07-.41-.25-.88-.37-1.4-.37-.84,0-1.53,.29-2.05,.88-.52,.59-.78,1.37-.78,2.35s.26,1.76,.78,2.35c.52,.59,1.21,.88,2.05,.88,.52,0,.99-.12,1.4-.37,.41-.25,.73-.6,.95-1.07h3.01c-.32,1.22-.95,2.17-1.9,2.87-.95,.7-2.09,1.05-3.42,1.05-1.09,0-2.06-.24-2.92-.73s-1.53-1.16-2.01-2.02c-.48-.86-.72-1.85-.72-2.96s.24-2.1,.72-2.97Z"/><path class="cls-1" d="M553.55,529.79v8.93h-2.74v-1.22c-.28,.39-.65,.71-1.13,.95-.47,.24-1,.36-1.58,.36-.68,0-1.29-.15-1.81-.46s-.93-.74-1.22-1.32c-.29-.58-.43-1.25-.43-2.03v-5.22h2.72v4.85c0,.6,.15,1.06,.46,1.39,.31,.33,.73,.5,1.25,.5s.95-.17,1.26-.5c.31-.33,.46-.79,.46-1.39v-4.85h2.74Z"/><path class="cls-1" d="M558.26,526.88v11.84h-2.74v-11.84h2.74Z"/><path class="cls-1" d="M565.22,536.39v2.32h-1.39c-.99,0-1.77-.24-2.32-.73s-.83-1.28-.83-2.38v-3.55h-1.09v-2.27h1.09v-2.18h2.74v2.18h1.79v2.27h-1.79v3.58c0,.27,.06,.46,.19,.58s.34,.18,.64,.18h.98Z"/><path class="cls-1" d="M575.55,529.79v8.93h-2.74v-1.22c-.28,.39-.65,.71-1.13,.95-.47,.24-1,.36-1.58,.36-.68,0-1.29-.15-1.81-.46-.52-.3-.93-.74-1.22-1.32-.29-.58-.43-1.25-.43-2.03v-5.22h2.72v4.85c0,.6,.16,1.06,.46,1.39,.31,.33,.72,.5,1.25,.5s.95-.17,1.26-.5c.31-.33,.46-.79,.46-1.39v-4.85h2.74Z"/><path class="cls-1" d="M581.46,530.11c.48-.28,1.01-.42,1.6-.42v2.9h-.75c-.68,0-1.2,.15-1.54,.44-.34,.29-.51,.81-.51,1.54v4.14h-2.74v-8.93h2.74v1.49c.32-.49,.72-.88,1.2-1.16Z"/><path class="cls-1" d="M584.35,531.82c.35-.69,.82-1.23,1.42-1.6,.6-.37,1.26-.56,2-.56,.63,0,1.18,.13,1.66,.38,.47,.26,.84,.59,1.1,1.01v-1.26h2.74v8.93h-2.74v-1.26c-.27,.42-.64,.75-1.11,1.01-.47,.26-1.03,.38-1.66,.38-.73,0-1.39-.19-1.98-.57-.6-.38-1.07-.92-1.42-1.62-.35-.7-.52-1.51-.52-2.42s.17-1.72,.52-2.42Zm5.6,.82c-.38-.39-.84-.59-1.38-.59s-1.01,.19-1.38,.58c-.38,.39-.57,.92-.57,1.61s.19,1.22,.57,1.62c.38,.4,.84,.6,1.38,.6s1-.2,1.38-.59c.38-.39,.57-.93,.57-1.62s-.19-1.22-.57-1.62Z"/></g></g></g><g><circle class="cls-14" cx="718.86" cy="535" r="88"/><circle class="cls-4" cx="718.86" cy="535" r="78"/><g><path class="cls-1" d="M675.84,527.46h-6l-.91,2.76h-4.94l6.17-16.92h5.42l6.14,16.92h-4.97l-.91-2.76Zm-1.18-3.6l-1.82-5.47-1.8,5.47h3.62Z"/><path class="cls-1" d="M694.05,518.87c-.27-.45-.64-.79-1.12-1.03-.47-.24-1.03-.36-1.67-.36-1.18,0-2.12,.38-2.8,1.15-.68,.77-1.02,1.8-1.02,3.1,0,1.46,.36,2.56,1.09,3.32,.73,.76,1.79,1.14,3.18,1.14,1.65,0,2.82-.74,3.53-2.23h-4.73v-3.38h8.78v4.56c-.37,.9-.91,1.74-1.62,2.52-.71,.78-1.61,1.43-2.7,1.93s-2.33,.76-3.72,.76c-1.7,0-3.2-.36-4.5-1.09-1.3-.73-2.31-1.74-3.02-3.05-.71-1.3-1.07-2.8-1.07-4.48s.36-3.15,1.07-4.45c.71-1.3,1.72-2.32,3.01-3.05,1.3-.73,2.79-1.09,4.49-1.09,2.13,0,3.89,.51,5.28,1.54,1.39,1.02,2.26,2.42,2.59,4.2h-5.06Z"/><path class="cls-1" d="M706.12,517.07v2.76h5.4v3.58h-5.4v3.05h6.12v3.77h-10.82v-16.92h10.82v3.77h-6.12Zm.62-6.67l-3.86,1.92v-3.14l3.86-1.85,3.82,1.85v3.14l-3.82-1.92Z"/><path class="cls-1" d="M730.24,530.22h-4.7l-6.26-9.46v9.46h-4.7v-16.92h4.7l6.26,9.58v-9.58h4.7v16.92Z"/><path class="cls-1" d="M733.4,517.28c.7-1.3,1.68-2.32,2.96-3.05,1.28-.73,2.75-1.09,4.42-1.09,2.11,0,3.89,.56,5.33,1.69,1.44,1.13,2.37,2.66,2.78,4.6h-5.06c-.3-.64-.72-1.13-1.26-1.46s-1.16-.5-1.86-.5c-1.09,0-1.96,.39-2.6,1.16-.65,.78-.97,1.81-.97,3.11s.32,2.36,.97,3.13c.65,.78,1.52,1.16,2.6,1.16,.7,0,1.32-.17,1.86-.5s.96-.82,1.26-1.46h5.06c-.42,1.94-1.34,3.47-2.78,4.6-1.44,1.13-3.22,1.69-5.33,1.69-1.66,0-3.14-.36-4.42-1.09-1.28-.73-2.27-1.74-2.96-3.05-.7-1.3-1.04-2.8-1.04-4.48s.35-3.15,1.04-4.45Z"/><path class="cls-1" d="M755.83,513.3v16.92h-4.7v-16.92h4.7Z"/><path class="cls-1" d="M769.22,527.46h-6l-.91,2.76h-4.94l6.17-16.92h5.42l6.14,16.92h-4.97l-.91-2.76Zm-1.18-3.6l-1.82-5.47-1.8,5.47h3.62Z"/><path class="cls-1" d="M669.84,545.87v2.76h5.4v3.58h-5.4v3.05h6.12v3.77h-10.82v-16.92h10.82v3.77h-6.12Z"/><path class="cls-1" d="M679.82,557.79c-1.26-.94-1.94-2.28-2.04-4.02h5.02c.05,.59,.22,1.02,.53,1.3,.3,.27,.7,.41,1.18,.41,.43,0,.79-.11,1.07-.32s.42-.52,.42-.9c0-.5-.23-.88-.7-1.15-.46-.27-1.22-.58-2.26-.91-1.1-.37-2-.72-2.68-1.07-.68-.34-1.27-.85-1.78-1.51s-.76-1.53-.76-2.6,.27-2.02,.82-2.8c.54-.78,1.3-1.36,2.26-1.76,.96-.4,2.05-.6,3.26-.6,1.97,0,3.54,.46,4.72,1.38s1.8,2.21,1.88,3.88h-5.11c-.02-.51-.17-.9-.47-1.15s-.68-.38-1.14-.38c-.35,0-.64,.1-.86,.31-.22,.21-.34,.5-.34,.89,0,.32,.12,.6,.37,.83,.25,.23,.56,.43,.92,.6s.91,.38,1.63,.64c1.07,.37,1.96,.73,2.65,1.09,.7,.36,1.3,.86,1.8,1.51,.5,.65,.76,1.47,.76,2.46s-.25,1.91-.76,2.71-1.23,1.43-2.18,1.9c-.95,.46-2.08,.7-3.37,.7-1.97,0-3.58-.47-4.85-1.4Z"/><path class="cls-1" d="M705.91,542.1v3.74h-4.51v13.18h-4.7v-13.18h-4.46v-3.74h13.68Z"/><path class="cls-1" d="M718.36,556.26h-6l-.91,2.76h-4.94l6.17-16.92h5.42l6.14,16.92h-4.97l-.91-2.76Zm-1.18-3.6l-1.82-5.47-1.8,5.47h3.62Z"/><path class="cls-1" d="M738.52,542.1v3.74h-4.51v13.18h-4.7v-13.18h-4.46v-3.74h13.68Z"/><path class="cls-1" d="M750.98,556.26h-6l-.91,2.76h-4.94l6.17-16.92h5.42l6.14,16.92h-4.97l-.91-2.76Zm-1.18-3.6l-1.82-5.47-1.8,5.47h3.62Z"/><path class="cls-1" d="M763.1,555.42h5.26v3.6h-9.96v-16.92h4.7v13.32Z"/></g></g></g><g><circle class="cls-10" cx="536.75" cy="822.81" r="76.61"/><circle class="cls-4" cx="536.75" cy="822.81" r="67.9"/><g><path class="cls-1" d="M495.44,818.25c.6-1.09,1.44-1.94,2.52-2.55,1.08-.61,2.3-.91,3.67-.91,1.67,0,3.11,.44,4.3,1.33,1.19,.88,1.99,2.09,2.39,3.62h-3.78c-.28-.59-.68-1.04-1.2-1.35-.52-.31-1.1-.46-1.76-.46-1.06,0-1.92,.37-2.57,1.11-.66,.74-.98,1.72-.98,2.95s.33,2.22,.98,2.95,1.51,1.11,2.57,1.11c.66,0,1.24-.15,1.76-.46,.51-.31,.91-.76,1.2-1.35h3.78c-.4,1.53-1.2,2.73-2.39,3.61-1.19,.88-2.63,1.32-4.3,1.32-1.37,0-2.59-.3-3.67-.91s-1.92-1.46-2.52-2.54-.9-2.32-.9-3.72,.3-2.63,.9-3.73Z"/><path class="cls-1" d="M510.68,816.14c-.38-.35-.57-.79-.57-1.32s.19-.98,.57-1.34,.87-.53,1.48-.53,1.08,.18,1.46,.53,.57,.8,.57,1.34-.19,.96-.57,1.32c-.38,.36-.87,.53-1.46,.53s-1.09-.18-1.48-.53Zm3.18,1.7v11.21h-3.44v-11.21h3.44Z"/><path class="cls-1" d="M516.32,820.39c.43-.87,1.03-1.54,1.78-2.01,.75-.47,1.59-.7,2.51-.7,.74,0,1.41,.15,2.02,.46,.61,.31,1.09,.72,1.44,1.25v-5.2h3.44v14.87h-3.44v-1.61c-.32,.54-.78,.96-1.38,1.29-.6,.32-1.29,.48-2.08,.48-.92,0-1.76-.24-2.51-.71-.75-.48-1.34-1.15-1.78-2.03-.44-.88-.65-1.89-.65-3.04s.22-2.16,.65-3.03Zm7.03,1.02c-.48-.5-1.05-.74-1.74-.74s-1.26,.24-1.74,.73-.71,1.16-.71,2.02,.24,1.54,.71,2.04c.48,.5,1.05,.75,1.74,.75s1.26-.25,1.74-.74c.48-.5,.71-1.17,.71-2.03s-.24-1.53-.71-2.03Z"/><path class="cls-1" d="M529.97,820.39c.43-.87,1.03-1.54,1.78-2.01,.75-.47,1.59-.7,2.51-.7,.79,0,1.48,.16,2.08,.48,.6,.32,1.06,.74,1.38,1.27v-1.59h3.44v11.21h-3.44v-1.59c-.33,.52-.8,.95-1.4,1.27-.6,.32-1.29,.48-2.08,.48-.91,0-1.74-.24-2.49-.71-.75-.48-1.34-1.15-1.78-2.03-.44-.88-.65-1.89-.65-3.04s.22-2.16,.65-3.03Zm7.03,1.02c-.48-.5-1.05-.74-1.74-.74s-1.26,.24-1.74,.73-.71,1.16-.71,2.02,.24,1.54,.71,2.04c.48,.5,1.05,.75,1.74,.75s1.26-.25,1.74-.74c.48-.5,.71-1.17,.71-2.03s-.24-1.53-.71-2.03Z"/><path class="cls-1" d="M543.61,820.39c.43-.87,1.03-1.54,1.78-2.01,.75-.47,1.59-.7,2.51-.7,.74,0,1.41,.15,2.02,.46,.61,.31,1.09,.72,1.44,1.25v-5.2h3.44v14.87h-3.44v-1.61c-.32,.54-.78,.96-1.38,1.29-.6,.32-1.29,.48-2.08,.48-.92,0-1.76-.24-2.51-.71-.75-.48-1.34-1.15-1.78-2.03-.44-.88-.65-1.89-.65-3.04s.22-2.16,.65-3.03Zm7.03,1.02c-.48-.5-1.05-.74-1.74-.74s-1.26,.24-1.74,.73-.71,1.16-.71,2.02,.24,1.54,.71,2.04c.48,.5,1.05,.75,1.74,.75s1.26-.25,1.74-.74c.48-.5,.71-1.17,.71-2.03s-.24-1.53-.71-2.03Z"/><path class="cls-1" d="M567.79,824.27h-7.78c.05,.7,.28,1.23,.67,1.6,.4,.37,.88,.55,1.46,.55,.86,0,1.45-.36,1.79-1.09h3.66c-.19,.74-.53,1.4-1.01,1.99-.49,.59-1.1,1.05-1.84,1.39-.74,.33-1.56,.5-2.47,.5-1.1,0-2.08-.23-2.93-.7-.86-.47-1.53-1.14-2.01-2.01s-.72-1.89-.72-3.05,.24-2.18,.71-3.05c.47-.87,1.14-1.54,2-2.01s1.84-.7,2.95-.7,2.05,.23,2.89,.68c.84,.46,1.5,1.1,1.98,1.95,.48,.84,.71,1.83,.71,2.95,0,.32-.02,.66-.06,1Zm-3.46-1.91c0-.59-.2-1.06-.6-1.41-.4-.35-.9-.52-1.51-.52s-1.06,.17-1.46,.5c-.4,.33-.64,.81-.73,1.43h4.3Z"/><path class="cls-1" d="M571.61,828.71c-.76-.33-1.37-.79-1.81-1.38-.44-.58-.69-1.24-.74-1.96h3.4c.04,.39,.22,.7,.54,.94,.32,.24,.72,.36,1.19,.36,.43,0,.76-.08,1-.25s.35-.38,.35-.65c0-.32-.17-.56-.5-.71-.34-.15-.88-.33-1.63-.51-.8-.19-1.47-.38-2.01-.59s-1-.54-1.39-.98c-.39-.45-.58-1.05-.58-1.82,0-.64,.18-1.23,.53-1.76,.35-.53,.88-.95,1.57-1.26,.69-.31,1.51-.46,2.46-.46,1.41,0,2.51,.35,3.33,1.04s1.28,1.62,1.4,2.77h-3.17c-.05-.39-.22-.7-.51-.92s-.67-.34-1.13-.34c-.4,0-.71,.08-.92,.23s-.32,.37-.32,.63c0,.32,.17,.56,.51,.72,.34,.16,.87,.32,1.6,.48,.83,.21,1.51,.43,2.03,.63,.52,.21,.98,.54,1.38,1,.4,.46,.6,1.08,.61,1.86,0,.66-.18,1.24-.55,1.76-.37,.52-.9,.92-1.59,1.22-.69,.29-1.49,.44-2.4,.44-.98,0-1.85-.17-2.61-.5Z"/></g></g><g><circle class="cls-8" cx="299.04" cy="807.02" r="76.61"/><circle class="cls-4" cx="299.04" cy="807.02" r="67.9"/><g><path class="cls-1" d="M234.43,801.22c-1.04-.58-1.86-1.38-2.47-2.42-.61-1.04-.91-2.2-.91-3.49s.3-2.46,.91-3.49c.61-1.03,1.43-1.83,2.47-2.41s2.18-.87,3.42-.87,2.38,.29,3.42,.87,1.85,1.38,2.45,2.41c.6,1.03,.9,2.19,.9,3.49s-.3,2.46-.9,3.49c-.6,1.04-1.42,1.84-2.45,2.42-1.03,.58-2.17,.87-3.41,.87s-2.38-.29-3.42-.87Zm5.95-3.13c.63-.7,.95-1.63,.95-2.79s-.32-2.1-.95-2.8c-.63-.7-1.48-1.05-2.53-1.05s-1.92,.35-2.55,1.04c-.63,.69-.95,1.63-.95,2.81s.32,2.1,.95,2.8c.63,.7,1.48,1.05,2.55,1.05s1.9-.35,2.53-1.05Z"/><path class="cls-1" d="M251.03,791.83c.56-.33,1.19-.5,1.88-.5v3.41h-.89c-.8,0-1.41,.17-1.81,.52-.4,.35-.6,.95-.6,1.82v4.88h-3.22v-10.51h3.22v1.75c.38-.58,.85-1.03,1.41-1.37Z"/><path class="cls-1" d="M260.4,791.75c.56,.3,.99,.7,1.29,1.19v-1.49h3.22v10.49c0,.97-.19,1.84-.57,2.63-.38,.78-.97,1.41-1.75,1.87s-1.76,.7-2.93,.7c-1.56,0-2.82-.37-3.79-1.1-.97-.73-1.52-1.73-1.66-2.99h3.18c.1,.4,.34,.72,.72,.95,.38,.23,.84,.35,1.39,.35,.67,0,1.2-.19,1.59-.58,.4-.38,.59-1,.59-1.84v-1.49c-.31,.49-.75,.89-1.3,1.2-.55,.31-1.2,.46-1.94,.46-.87,0-1.65-.22-2.35-.67-.7-.45-1.26-1.08-1.67-1.9-.41-.82-.61-1.77-.61-2.85s.2-2.03,.61-2.84,.96-1.44,1.67-1.88c.7-.44,1.49-.66,2.35-.66,.74,0,1.39,.15,1.95,.45Zm.62,3.05c-.45-.46-.99-.7-1.63-.7s-1.18,.23-1.63,.69c-.45,.46-.67,1.09-.67,1.89s.22,1.44,.67,1.91c.45,.47,.99,.71,1.63,.71s1.18-.23,1.63-.7c.45-.46,.67-1.1,.67-1.9s-.22-1.44-.67-1.9Z"/><path class="cls-1" d="M267.22,793.84c.41-.82,.96-1.44,1.67-1.88,.7-.44,1.49-.66,2.35-.66,.74,0,1.39,.15,1.95,.45,.56,.3,.99,.7,1.29,1.19v-1.49h3.22v10.51h-3.22v-1.49c-.31,.49-.75,.89-1.31,1.19-.56,.3-1.21,.45-1.95,.45-.85,0-1.63-.22-2.34-.67-.7-.45-1.26-1.08-1.67-1.9-.41-.82-.61-1.77-.61-2.85s.2-2.03,.61-2.84Zm6.59,.96c-.45-.46-.99-.7-1.63-.7s-1.18,.23-1.63,.69c-.45,.46-.67,1.09-.67,1.89s.22,1.44,.67,1.91c.45,.47,.99,.71,1.63,.71s1.18-.23,1.63-.7c.45-.46,.67-1.1,.67-1.9s-.22-1.44-.67-1.9Z"/><path class="cls-1" d="M289.4,792.53c.73,.8,1.1,1.89,1.1,3.29v6.14h-3.2v-5.71c0-.7-.18-1.25-.55-1.64s-.85-.58-1.47-.58-1.1,.19-1.47,.58-.55,.94-.55,1.64v5.71h-3.22v-10.51h3.22v1.39c.33-.46,.77-.83,1.32-1.1,.55-.27,1.17-.41,1.86-.41,1.23,0,2.21,.4,2.95,1.2Z"/><path class="cls-1" d="M292.97,789.85c-.36-.33-.54-.74-.54-1.23s.18-.92,.54-1.25,.82-.5,1.38-.5,1.01,.17,1.37,.5,.54,.75,.54,1.25-.18,.9-.54,1.23c-.36,.33-.81,.5-1.37,.5s-1.03-.17-1.38-.5Zm2.99,1.59v10.51h-3.22v-10.51h3.22Z"/><path class="cls-1" d="M301.31,799.3h4.56v2.66h-8.16v-2.56l4.37-5.29h-4.33v-2.66h8.02v2.56l-4.46,5.29Z"/><path class="cls-1" d="M307.61,793.84c.41-.82,.96-1.44,1.67-1.88,.7-.44,1.49-.66,2.35-.66,.74,0,1.39,.15,1.95,.45,.56,.3,.99,.7,1.29,1.19v-1.49h3.22v10.51h-3.22v-1.49c-.31,.49-.75,.89-1.31,1.19-.56,.3-1.21,.45-1.95,.45-.85,0-1.63-.22-2.34-.67-.7-.45-1.26-1.08-1.67-1.9-.41-.82-.61-1.77-.61-2.85s.2-2.03,.61-2.84Zm6.59,.96c-.45-.46-.99-.7-1.63-.7s-1.18,.23-1.63,.69c-.45,.46-.67,1.09-.67,1.89s.22,1.44,.67,1.91c.45,.47,.99,.71,1.63,.71s1.18-.23,1.63-.7c.45-.46,.67-1.1,.67-1.9s-.22-1.44-.67-1.9Z"/><path class="cls-1" d="M326.68,798.15h3.43c-.24,1.07-.72,1.94-1.43,2.62-.72,.68-1.61,1.1-2.67,1.26v.7c.65,0,1.22,.18,1.71,.54,.49,.36,.73,.89,.73,1.61s-.26,1.26-.77,1.63c-.52,.37-1.13,.56-1.85,.56h-2.9v-1.77h2.47c.25,0,.44-.04,.56-.11,.13-.08,.19-.2,.19-.38s-.06-.3-.19-.37c-.13-.07-.31-.1-.56-.1h-1.34v-2.3c-1.29-.2-2.33-.78-3.11-1.72s-1.17-2.15-1.17-3.61c0-1.09,.22-2.05,.67-2.86,.45-.82,1.07-1.44,1.86-1.88s1.71-.66,2.74-.66c1.32,0,2.42,.35,3.31,1.04,.89,.69,1.47,1.66,1.74,2.92h-3.43c-.29-.8-.85-1.21-1.68-1.21-.59,0-1.06,.23-1.41,.69-.35,.46-.53,1.12-.53,1.97s.18,1.51,.53,1.97,.82,.69,1.41,.69c.83,0,1.39-.4,1.68-1.21Z"/><path class="cls-1" d="M333.83,801.45c-.82-.44-1.47-1.07-1.94-1.88-.47-.82-.71-1.77-.71-2.86s.24-2.03,.72-2.85,1.13-1.45,1.96-1.89c.83-.44,1.76-.66,2.79-.66s1.96,.22,2.79,.66c.83,.44,1.48,1.07,1.96,1.89,.48,.82,.72,1.77,.72,2.85s-.24,2.03-.73,2.85c-.48,.82-1.14,1.45-1.98,1.89-.83,.44-1.77,.66-2.8,.66s-1.96-.22-2.78-.66Zm1.89-13.75c.28,0,.52,.04,.73,.12,.21,.08,.46,.2,.76,.37,.23,.13,.41,.22,.55,.27,.14,.06,.28,.08,.43,.08,.46,0,.73-.28,.81-.85h1.66c-.3,1.86-1.17,2.79-2.6,2.79-.28,0-.52-.04-.73-.12-.21-.08-.46-.2-.76-.37-.23-.13-.41-.22-.55-.27s-.28-.08-.43-.08c-.46,0-.74,.28-.83,.85h-1.64c.3-1.86,1.17-2.79,2.6-2.79Zm2.46,10.95c.43-.45,.65-1.1,.65-1.94s-.21-1.49-.63-1.94-.94-.68-1.55-.68-1.15,.22-1.56,.67c-.41,.45-.62,1.1-.62,1.95s.2,1.49,.61,1.94,.92,.68,1.54,.68,1.14-.23,1.57-.68Z"/><path class="cls-1" d="M353.68,797.47h-7.29c.05,.65,.26,1.15,.63,1.5,.37,.34,.83,.52,1.37,.52,.8,0,1.36-.34,1.68-1.02h3.43c-.18,.69-.49,1.31-.95,1.87s-1.03,.99-1.72,1.3c-.69,.31-1.46,.47-2.32,.47-1.03,0-1.95-.22-2.75-.66s-1.43-1.07-1.88-1.88-.68-1.77-.68-2.86,.22-2.05,.67-2.86c.45-.82,1.07-1.44,1.87-1.88,.8-.44,1.73-.66,2.77-.66s1.92,.21,2.71,.64c.79,.43,1.41,1.04,1.86,1.83s.67,1.71,.67,2.77c0,.3-.02,.62-.06,.94Zm-3.24-1.79c0-.55-.19-.99-.57-1.32-.38-.33-.85-.49-1.41-.49s-1,.16-1.37,.47c-.37,.31-.6,.76-.69,1.34h4.03Z"/><path class="cls-1" d="M357.26,801.64c-.72-.31-1.28-.74-1.7-1.29-.41-.55-.65-1.16-.7-1.84h3.18c.04,.36,.21,.66,.51,.89,.3,.23,.67,.34,1.11,.34,.4,0,.71-.08,.93-.24s.33-.36,.33-.61c0-.3-.16-.52-.47-.67-.31-.14-.82-.3-1.53-.48-.75-.18-1.38-.36-1.88-.56-.5-.19-.94-.5-1.3-.92s-.55-.99-.55-1.71c0-.6,.17-1.15,.5-1.65,.33-.5,.82-.89,1.47-1.18,.65-.29,1.42-.43,2.31-.43,1.32,0,2.36,.33,3.12,.98,.76,.65,1.2,1.52,1.31,2.6h-2.98c-.05-.36-.21-.65-.48-.87-.27-.21-.62-.32-1.06-.32-.38,0-.67,.07-.87,.22-.2,.14-.3,.34-.3,.59,0,.3,.16,.53,.48,.68,.32,.15,.82,.3,1.5,.45,.78,.2,1.41,.4,1.9,.59,.49,.2,.92,.51,1.29,.94,.37,.43,.56,1.01,.57,1.74,0,.62-.17,1.17-.52,1.65-.35,.48-.84,.86-1.49,1.14-.65,.28-1.4,.41-2.25,.41-.92,0-1.73-.16-2.45-.47Z"/><path class="cls-1" d="M239.92,816.44c.41-.82,.96-1.44,1.67-1.88,.7-.44,1.49-.66,2.35-.66,.69,0,1.32,.14,1.89,.43,.57,.29,1.02,.68,1.35,1.17v-4.88h3.22v13.94h-3.22v-1.51c-.3,.5-.73,.9-1.29,1.21-.56,.3-1.21,.45-1.95,.45-.87,0-1.65-.22-2.35-.67-.7-.45-1.26-1.08-1.67-1.9-.41-.82-.61-1.77-.61-2.85s.2-2.03,.61-2.84Zm6.59,.96c-.45-.46-.99-.7-1.63-.7s-1.18,.23-1.63,.69c-.45,.46-.67,1.09-.67,1.89s.22,1.44,.67,1.91c.45,.47,.99,.71,1.63,.71s1.18-.23,1.63-.7c.45-.46,.67-1.1,.67-1.9s-.22-1.44-.67-1.9Z"/><path class="cls-1" d="M262.59,820.08h-7.29c.05,.65,.26,1.15,.63,1.5,.37,.34,.83,.52,1.37,.52,.8,0,1.36-.34,1.68-1.02h3.43c-.18,.69-.49,1.31-.95,1.87s-1.03,.99-1.72,1.3c-.69,.31-1.46,.47-2.32,.47-1.03,0-1.95-.22-2.75-.66s-1.43-1.07-1.88-1.88-.68-1.77-.68-2.86,.22-2.05,.67-2.86c.45-.82,1.07-1.44,1.87-1.88,.8-.44,1.73-.66,2.77-.66s1.92,.21,2.71,.64c.79,.43,1.41,1.04,1.86,1.83s.67,1.71,.67,2.77c0,.3-.02,.62-.06,.94Zm-3.24-1.79c0-.55-.19-.99-.57-1.32-.38-.33-.85-.49-1.41-.49s-1,.16-1.37,.47c-.37,.31-.6,.76-.69,1.34h4.03Z"/><path class="cls-1" d="M272.86,814.35c.55-.3,1.2-.45,1.94-.45,.87,0,1.65,.22,2.35,.66,.7,.44,1.26,1.07,1.67,1.88,.41,.82,.61,1.76,.61,2.84s-.2,2.03-.61,2.85c-.41,.82-.96,1.46-1.67,1.9-.7,.45-1.49,.67-2.35,.67-.73,0-1.37-.15-1.93-.45-.56-.3-1-.69-1.31-1.17v6.48h-3.22v-15.52h3.22v1.49c.31-.49,.75-.89,1.3-1.19Zm2.63,3.04c-.45-.46-1-.69-1.65-.69s-1.18,.23-1.63,.7-.67,1.1-.67,1.9,.22,1.44,.67,1.9c.45,.46,.99,.7,1.63,.7s1.19-.24,1.64-.71c.45-.47,.68-1.11,.68-1.91s-.22-1.43-.67-1.89Z"/><path class="cls-1" d="M290.98,820.08h-7.29c.05,.65,.26,1.15,.63,1.5,.37,.34,.83,.52,1.37,.52,.8,0,1.36-.34,1.68-1.02h3.43c-.18,.69-.49,1.31-.95,1.87s-1.03,.99-1.72,1.3c-.69,.31-1.46,.47-2.32,.47-1.03,0-1.95-.22-2.75-.66s-1.43-1.07-1.88-1.88-.68-1.77-.68-2.86,.22-2.05,.67-2.86c.45-.82,1.07-1.44,1.87-1.88,.8-.44,1.73-.66,2.77-.66s1.92,.21,2.71,.64c.79,.43,1.41,1.04,1.86,1.83s.67,1.71,.67,2.77c0,.3-.02,.62-.06,.94Zm-3.24-1.79c0-.55-.19-.99-.57-1.32-.38-.33-.85-.49-1.41-.49s-1,.16-1.37,.47c-.37,.31-.6,.76-.69,1.34h4.03Z"/><path class="cls-1" d="M294.56,824.24c-.72-.31-1.28-.74-1.7-1.29-.41-.55-.65-1.16-.7-1.84h3.18c.04,.36,.21,.66,.51,.89,.3,.23,.67,.34,1.11,.34,.4,0,.71-.08,.93-.24s.33-.36,.33-.61c0-.3-.16-.52-.47-.67-.31-.14-.82-.3-1.53-.48-.75-.18-1.38-.36-1.88-.56-.5-.19-.94-.5-1.3-.92s-.55-.99-.55-1.71c0-.6,.17-1.15,.5-1.65,.33-.5,.82-.89,1.47-1.18,.65-.29,1.42-.43,2.31-.43,1.32,0,2.36,.33,3.12,.98,.76,.65,1.2,1.52,1.31,2.6h-2.98c-.05-.36-.21-.65-.48-.87-.27-.21-.62-.32-1.06-.32-.38,0-.67,.07-.87,.22-.2,.14-.3,.34-.3,.59,0,.3,.16,.53,.48,.68,.32,.15,.82,.3,1.5,.45,.78,.2,1.41,.4,1.9,.59,.49,.2,.92,.51,1.29,.94,.37,.43,.56,1.01,.57,1.74,0,.62-.17,1.17-.52,1.65-.35,.48-.84,.86-1.49,1.14-.65,.28-1.4,.41-2.25,.41-.92,0-1.73-.16-2.45-.47Z"/><path class="cls-1" d="M303.25,816.54c.43-.82,1.02-1.45,1.75-1.91,.73-.46,1.54-.69,2.4-.69,.67,0,1.26,.12,1.79,.35s.95,.56,1.28,.97v-1.21h3.22v15.52h-3.22v-6.33c-.36,.44-.81,.79-1.33,1.05-.52,.26-1.11,.4-1.78,.4-.85,0-1.65-.23-2.37-.68-.73-.45-1.31-1.09-1.74-1.9-.43-.82-.65-1.75-.65-2.79s.22-1.97,.65-2.79Zm6.9,1.35c-.22-.38-.51-.67-.86-.87-.35-.19-.72-.29-1.11-.29s-.74,.1-1.09,.29c-.35,.2-.64,.49-.87,.88-.23,.39-.34,.87-.34,1.43s.11,1.04,.34,1.42,.51,.67,.87,.87c.35,.2,.72,.29,1.09,.29s.74-.1,1.1-.29c.36-.19,.65-.49,.87-.88,.22-.39,.33-.87,.33-1.43s-.11-1.04-.33-1.42Z"/><path class="cls-1" d="M326.41,814.05v10.51h-3.22v-1.43c-.33,.46-.77,.84-1.33,1.12-.56,.28-1.18,.42-1.86,.42-.8,0-1.51-.18-2.13-.54-.62-.36-1.09-.88-1.43-1.55s-.51-1.48-.51-2.39v-6.14h3.2v5.71c0,.7,.18,1.25,.55,1.64,.36,.39,.85,.58,1.47,.58s1.12-.19,1.49-.58c.36-.39,.55-.94,.55-1.64v-5.71h3.22Z"/><path class="cls-1" d="M328.96,812.46c-.36-.33-.54-.74-.54-1.23s.18-.92,.54-1.25,.82-.5,1.38-.5,1.01,.17,1.37,.5,.54,.75,.54,1.25-.18,.9-.54,1.23c-.36,.33-.81,.5-1.37,.5s-1.03-.17-1.38-.5Zm2.99,1.59v10.51h-3.22v-10.51h3.22Z"/><path class="cls-1" d="M336.11,824.24c-.72-.31-1.28-.74-1.7-1.29-.41-.55-.65-1.16-.7-1.84h3.18c.04,.36,.21,.66,.51,.89,.3,.23,.67,.34,1.11,.34,.4,0,.71-.08,.93-.24s.33-.36,.33-.61c0-.3-.16-.52-.47-.67-.31-.14-.82-.3-1.53-.48-.75-.18-1.38-.36-1.88-.56-.5-.19-.94-.5-1.3-.92s-.55-.99-.55-1.71c0-.6,.17-1.15,.5-1.65,.33-.5,.82-.89,1.47-1.18,.65-.29,1.42-.43,2.31-.43,1.32,0,2.36,.33,3.12,.98,.76,.65,1.2,1.52,1.31,2.6h-2.98c-.05-.36-.21-.65-.48-.87-.27-.21-.62-.32-1.06-.32-.38,0-.67,.07-.87,.22-.2,.14-.3,.34-.3,.59,0,.3,.16,.53,.48,.68,.32,.15,.82,.3,1.5,.45,.78,.2,1.41,.4,1.9,.59,.49,.2,.92,.51,1.29,.94,.37,.43,.56,1.01,.57,1.74,0,.62-.17,1.17-.52,1.65-.35,.48-.84,.86-1.49,1.14-.65,.28-1.4,.41-2.25,.41-.92,0-1.73-.16-2.45-.47Z"/><path class="cls-1" d="M344.77,816.44c.41-.82,.96-1.44,1.67-1.88,.7-.44,1.49-.66,2.35-.66,.74,0,1.39,.15,1.95,.45,.56,.3,.99,.7,1.29,1.19v-1.49h3.22v10.51h-3.22v-1.49c-.31,.49-.75,.89-1.31,1.19-.56,.3-1.21,.45-1.95,.45-.85,0-1.63-.22-2.34-.67-.7-.45-1.26-1.08-1.67-1.9-.41-.82-.61-1.77-.61-2.85s.2-2.03,.61-2.84Zm6.59,.96c-.45-.46-.99-.7-1.63-.7s-1.18,.23-1.63,.69c-.45,.46-.67,1.09-.67,1.89s.22,1.44,.67,1.91c.45,.47,.99,.71,1.63,.71s1.18-.23,1.63-.7c.45-.46,.67-1.1,.67-1.9s-.22-1.44-.67-1.9Z"/></g></g><g><circle class="cls-9" cx="153.61" cy="617.92" r="76.61"/><circle class="cls-4" cx="153.61" cy="617.92" r="67.9"/><g><path class="cls-1" d="M110.87,603.47v2.67h4.31v2.49h-4.31v2.9h4.88v2.58h-8.1v-13.22h8.1v2.58h-4.88Z"/><path class="cls-1" d="M134.37,604.68c.77,.79,1.16,1.89,1.16,3.3v6.14h-3.2v-5.71c0-.68-.18-1.2-.54-1.57-.36-.37-.85-.56-1.48-.56s-1.12,.19-1.48,.56c-.36,.37-.54,.9-.54,1.57v5.71h-3.2v-5.71c0-.68-.18-1.2-.54-1.57-.36-.37-.85-.56-1.48-.56s-1.12,.19-1.48,.56c-.36,.37-.54,.9-.54,1.57v5.71h-3.22v-10.51h3.22v1.32c.33-.44,.75-.79,1.28-1.04,.53-.26,1.12-.39,1.79-.39,.79,0,1.5,.17,2.12,.51s1.11,.82,1.46,1.45c.36-.58,.86-1.05,1.49-1.41,.63-.36,1.31-.55,2.05-.55,1.31,0,2.35,.4,3.12,1.19Z"/><path class="cls-1" d="M142.31,603.9c.55-.3,1.2-.45,1.94-.45,.87,0,1.65,.22,2.35,.66,.7,.44,1.26,1.07,1.67,1.88,.41,.82,.61,1.76,.61,2.84s-.2,2.03-.61,2.85c-.41,.82-.96,1.46-1.67,1.9-.7,.45-1.49,.67-2.35,.67-.73,0-1.37-.15-1.93-.45-.56-.3-1-.69-1.31-1.17v6.48h-3.22v-15.52h3.22v1.49c.31-.49,.75-.89,1.3-1.19Zm2.63,3.04c-.45-.46-1-.69-1.65-.69s-1.18,.23-1.63,.7-.67,1.1-.67,1.9,.22,1.44,.67,1.9c.45,.46,.99,.7,1.63,.7s1.19-.24,1.64-.71c.45-.47,.68-1.11,.68-1.91s-.22-1.43-.67-1.89Z"/><path class="cls-1" d="M155.21,603.99c.56-.33,1.19-.5,1.88-.5v3.41h-.89c-.8,0-1.41,.17-1.81,.52-.4,.35-.6,.95-.6,1.82v4.88h-3.22v-10.51h3.22v1.75c.38-.58,.85-1.03,1.41-1.37Z"/><path class="cls-1" d="M168.49,609.63h-7.29c.05,.65,.26,1.15,.63,1.5,.37,.34,.83,.52,1.37,.52,.8,0,1.36-.34,1.68-1.02h3.43c-.18,.69-.49,1.31-.95,1.87s-1.03,.99-1.72,1.3c-.69,.31-1.46,.47-2.32,.47-1.03,0-1.95-.22-2.75-.66s-1.43-1.07-1.88-1.88-.68-1.77-.68-2.86,.22-2.05,.67-2.86c.45-.82,1.07-1.44,1.87-1.88,.8-.44,1.73-.66,2.77-.66s1.92,.21,2.71,.64c.79,.43,1.41,1.04,1.86,1.83s.67,1.71,.67,2.77c0,.3-.02,.62-.06,.94Zm-3.24-1.79c0-.55-.19-.99-.57-1.32-.38-.33-.85-.49-1.41-.49s-1,.16-1.37,.47c-.37,.31-.6,.76-.69,1.34h4.03Z"/><path class="cls-1" d="M172.07,613.79c-.72-.31-1.28-.74-1.7-1.29-.41-.55-.65-1.16-.7-1.84h3.18c.04,.36,.21,.66,.51,.89,.3,.23,.67,.34,1.11,.34,.4,0,.71-.08,.93-.24s.33-.36,.33-.61c0-.3-.16-.52-.47-.67-.31-.14-.82-.3-1.53-.48-.75-.18-1.38-.36-1.88-.56-.5-.19-.94-.5-1.3-.92s-.55-.99-.55-1.71c0-.6,.17-1.15,.5-1.65,.33-.5,.82-.89,1.47-1.18,.65-.29,1.42-.43,2.31-.43,1.32,0,2.36,.33,3.12,.98,.76,.65,1.2,1.52,1.31,2.6h-2.98c-.05-.36-.21-.65-.48-.87-.27-.21-.62-.32-1.06-.32-.38,0-.67,.07-.87,.22-.2,.14-.3,.34-.3,.59,0,.3,.16,.53,.48,.68,.32,.15,.82,.3,1.5,.45,.78,.2,1.41,.4,1.9,.59,.49,.2,.92,.51,1.29,.94,.37,.43,.56,1.01,.57,1.74,0,.62-.17,1.17-.52,1.65-.35,.48-.84,.86-1.49,1.14-.65,.28-1.4,.41-2.25,.41-.92,0-1.73-.16-2.45-.47Z"/><path class="cls-1" d="M180.73,606c.41-.82,.96-1.44,1.67-1.88,.7-.44,1.49-.66,2.35-.66,.74,0,1.39,.15,1.95,.45,.56,.3,.99,.7,1.29,1.19v-1.49h3.22v10.51h-3.22v-1.49c-.31,.49-.75,.89-1.31,1.19-.56,.3-1.21,.45-1.95,.45-.85,0-1.63-.22-2.34-.67-.7-.45-1.26-1.08-1.67-1.9-.41-.82-.61-1.77-.61-2.85s.2-2.03,.61-2.84Zm6.59,.96c-.45-.46-.99-.7-1.63-.7s-1.18,.23-1.63,.69c-.45,.46-.67,1.09-.67,1.89s.22,1.44,.67,1.91c.45,.47,.99,.71,1.63,.71s1.18-.23,1.63-.7c.45-.46,.67-1.1,.67-1.9s-.22-1.44-.67-1.9Z"/><path class="cls-1" d="M195.37,613.79c-.72-.31-1.28-.74-1.7-1.29-.41-.55-.65-1.16-.7-1.84h3.18c.04,.36,.21,.66,.51,.89,.3,.23,.67,.34,1.11,.34,.4,0,.71-.08,.93-.24s.33-.36,.33-.61c0-.3-.16-.52-.47-.67-.31-.14-.82-.3-1.53-.48-.75-.18-1.38-.36-1.88-.56-.5-.19-.94-.5-1.3-.92s-.55-.99-.55-1.71c0-.6,.17-1.15,.5-1.65,.33-.5,.82-.89,1.47-1.18,.65-.29,1.42-.43,2.31-.43,1.32,0,2.36,.33,3.12,.98,.76,.65,1.2,1.52,1.31,2.6h-2.98c-.05-.36-.21-.65-.48-.87-.27-.21-.62-.32-1.06-.32-.38,0-.67,.07-.87,.22-.2,.14-.3,.34-.3,.59,0,.3,.16,.53,.48,.68,.32,.15,.82,.3,1.5,.45,.78,.2,1.41,.4,1.9,.59,.49,.2,.92,.51,1.29,.94,.37,.43,.56,1.01,.57,1.74,0,.62-.17,1.17-.52,1.65-.35,.48-.84,.86-1.49,1.14-.65,.28-1.4,.41-2.25,.41-.92,0-1.73-.16-2.45-.47Z"/><path class="cls-1" d="M122.38,629.85c-.35,.63-.89,1.15-1.62,1.54s-1.63,.58-2.71,.58h-2v4.75h-3.22v-13.22h5.22c1.05,0,1.95,.18,2.67,.55,.73,.36,1.27,.87,1.64,1.51s.55,1.38,.55,2.2c0,.77-.18,1.47-.53,2.1Zm-3.2-.88c.3-.29,.45-.7,.45-1.22s-.15-.94-.45-1.22c-.3-.29-.76-.43-1.38-.43h-1.75v3.32h1.75c.62,0,1.07-.14,1.38-.43Z"/><path class="cls-1" d="M129.21,626.59c.56-.33,1.19-.5,1.88-.5v3.41h-.89c-.8,0-1.41,.17-1.81,.52-.4,.35-.6,.95-.6,1.82v4.88h-3.22v-10.51h3.22v1.75c.38-.58,.85-1.03,1.41-1.37Z"/><path class="cls-1" d="M132.88,624.62c-.36-.33-.54-.74-.54-1.23s.18-.92,.54-1.25,.82-.5,1.38-.5,1.01,.17,1.37,.5,.54,.75,.54,1.25-.18,.9-.54,1.23c-.36,.33-.81,.5-1.37,.5s-1.03-.17-1.38-.5Zm2.99,1.59v10.51h-3.22v-10.51h3.22Z"/><path class="cls-1" d="M142.93,633.71l2.28-7.5h3.43l-3.73,10.51h-3.97l-3.73-10.51h3.45l2.28,7.5Z"/><path class="cls-1" d="M149.96,628.6c.41-.82,.96-1.44,1.67-1.88,.7-.44,1.49-.66,2.35-.66,.74,0,1.39,.15,1.95,.45,.56,.3,.99,.7,1.29,1.19v-1.49h3.22v10.51h-3.22v-1.49c-.31,.49-.75,.89-1.31,1.19-.56,.3-1.21,.45-1.95,.45-.85,0-1.63-.22-2.34-.67-.7-.45-1.26-1.08-1.67-1.9-.41-.82-.61-1.77-.61-2.85s.2-2.03,.61-2.84Zm6.59,.96c-.45-.46-.99-.7-1.63-.7s-1.18,.23-1.63,.69c-.45,.46-.67,1.09-.67,1.89s.22,1.44,.67,1.91c.45,.47,.99,.71,1.63,.71s1.18-.23,1.63-.7c.45-.46,.67-1.1,.67-1.9s-.22-1.44-.67-1.9Z"/><path class="cls-1" d="M162.75,628.6c.41-.82,.96-1.44,1.67-1.88,.7-.44,1.49-.66,2.35-.66,.69,0,1.32,.14,1.89,.43,.57,.29,1.02,.68,1.35,1.17v-4.88h3.22v13.94h-3.22v-1.51c-.3,.5-.73,.9-1.29,1.21-.56,.3-1.21,.45-1.95,.45-.87,0-1.65-.22-2.35-.67-.7-.45-1.26-1.08-1.67-1.9-.41-.82-.61-1.77-.61-2.85s.2-2.03,.61-2.84Zm6.59,.96c-.45-.46-.99-.7-1.63-.7s-1.18,.23-1.63,.69c-.45,.46-.67,1.09-.67,1.89s.22,1.44,.67,1.91c.45,.47,.99,.71,1.63,.71s1.18-.23,1.63-.7c.45-.46,.67-1.1,.67-1.9s-.22-1.44-.67-1.9Z"/><path class="cls-1" d="M175.55,628.6c.41-.82,.96-1.44,1.67-1.88,.7-.44,1.49-.66,2.35-.66,.74,0,1.39,.15,1.95,.45,.56,.3,.99,.7,1.29,1.19v-1.49h3.22v10.51h-3.22v-1.49c-.31,.49-.75,.89-1.31,1.19-.56,.3-1.21,.45-1.95,.45-.85,0-1.63-.22-2.34-.67-.7-.45-1.26-1.08-1.67-1.9-.41-.82-.61-1.77-.61-2.85s.2-2.03,.61-2.84Zm6.59,.96c-.45-.46-.99-.7-1.63-.7s-1.18,.23-1.63,.69c-.45,.46-.67,1.09-.67,1.89s.22,1.44,.67,1.91c.45,.47,.99,.71,1.63,.71s1.18-.23,1.63-.7c.45-.46,.67-1.1,.67-1.9s-.22-1.44-.67-1.9Z"/><path class="cls-1" d="M190.19,636.4c-.72-.31-1.28-.74-1.7-1.29-.41-.55-.65-1.16-.7-1.84h3.18c.04,.36,.21,.66,.51,.89,.3,.23,.67,.34,1.11,.34,.4,0,.71-.08,.93-.24s.33-.36,.33-.61c0-.3-.16-.52-.47-.67-.31-.14-.82-.3-1.53-.48-.75-.18-1.38-.36-1.88-.56-.5-.19-.94-.5-1.3-.92s-.55-.99-.55-1.71c0-.6,.17-1.15,.5-1.65,.33-.5,.82-.89,1.47-1.18,.65-.29,1.42-.43,2.31-.43,1.32,0,2.36,.33,3.12,.98,.76,.65,1.2,1.52,1.31,2.6h-2.98c-.05-.36-.21-.65-.48-.87-.27-.21-.62-.32-1.06-.32-.38,0-.67,.07-.87,.22-.2,.14-.3,.34-.3,.59,0,.3,.16,.53,.48,.68,.32,.15,.82,.3,1.5,.45,.78,.2,1.41,.4,1.9,.59,.49,.2,.92,.51,1.29,.94,.37,.43,.56,1.01,.57,1.74,0,.62-.17,1.17-.52,1.65-.35,.48-.84,.86-1.49,1.14-.65,.28-1.4,.41-2.25,.41-.92,0-1.73-.16-2.45-.47Z"/></g></g><g><circle class="cls-1" cx="180.61" cy="429.92" r="76.61"/><circle class="cls-4" cx="180.61" cy="429.92" r="67.9"/><g><path class="cls-1" d="M154.42,412.48v12.64h-3.08v-7.58l-2.83,7.58h-2.48l-2.84-7.6v7.6h-3.08v-12.64h3.64l3.55,8.75,3.51-8.75h3.62Z"/><path class="cls-1" d="M166.05,420.83h-6.97c.05,.62,.25,1.1,.6,1.43s.79,.49,1.31,.49c.77,0,1.3-.32,1.6-.97h3.28c-.17,.66-.47,1.25-.91,1.78s-.99,.94-1.65,1.24c-.66,.3-1.4,.45-2.21,.45-.98,0-1.86-.21-2.63-.63-.77-.42-1.37-1.02-1.8-1.8-.43-.78-.65-1.69-.65-2.74s.21-1.96,.64-2.74c.43-.78,1.02-1.38,1.79-1.8,.77-.42,1.65-.63,2.65-.63s1.84,.21,2.59,.61c.76,.41,1.35,.99,1.77,1.75s.64,1.64,.64,2.65c0,.29-.02,.59-.05,.9Zm-3.1-1.71c0-.53-.18-.95-.54-1.26-.36-.31-.81-.47-1.35-.47s-.95,.15-1.31,.45c-.35,.3-.57,.73-.66,1.28h3.85Z"/><path class="cls-1" d="M167.95,413.55c-.34-.32-.51-.71-.51-1.18s.17-.88,.51-1.2c.34-.32,.78-.48,1.32-.48s.96,.16,1.31,.48c.34,.32,.51,.72,.51,1.2s-.17,.86-.51,1.18c-.34,.32-.78,.48-1.31,.48s-.98-.16-1.32-.48Zm2.85,1.52v10.04h-3.08v-10.04h3.08Z"/><path class="cls-1" d="M174.95,424.63c-.79-.42-1.4-1.02-1.85-1.8-.45-.78-.68-1.69-.68-2.74s.23-1.94,.68-2.73,1.08-1.39,1.87-1.81,1.68-.63,2.66-.63,1.87,.21,2.66,.63,1.42,1.02,1.87,1.81,.68,1.7,.68,2.73-.23,1.94-.69,2.73-1.09,1.39-1.89,1.81c-.8,.42-1.69,.63-2.67,.63s-1.87-.21-2.65-.63Zm4.16-2.68c.41-.43,.62-1.05,.62-1.85s-.2-1.42-.6-1.85c-.4-.43-.9-.65-1.48-.65s-1.1,.21-1.49,.64-.59,1.05-.59,1.86,.19,1.42,.58,1.85c.39,.43,.88,.65,1.47,.65s1.09-.22,1.5-.65Z"/><path class="cls-1" d="M186.25,424.81c-.68-.3-1.22-.71-1.62-1.23-.4-.52-.62-1.11-.67-1.75h3.04c.04,.35,.2,.63,.49,.85s.64,.32,1.06,.32c.38,0,.68-.08,.89-.22,.21-.15,.31-.34,.31-.58,0-.29-.15-.5-.45-.64-.3-.14-.79-.29-1.46-.46-.72-.17-1.32-.34-1.8-.53-.48-.19-.89-.48-1.24-.88-.35-.4-.52-.94-.52-1.63,0-.58,.16-1.1,.48-1.58,.32-.47,.79-.85,1.4-1.12,.62-.28,1.35-.41,2.21-.41,1.26,0,2.25,.31,2.98,.94s1.14,1.45,1.25,2.48h-2.84c-.05-.35-.2-.62-.46-.83-.26-.2-.6-.31-1.02-.31-.36,0-.64,.07-.83,.21-.19,.14-.29,.33-.29,.57,0,.29,.15,.5,.46,.65,.31,.14,.78,.29,1.43,.43,.74,.19,1.35,.38,1.82,.57,.47,.19,.88,.49,1.23,.9,.35,.41,.54,.97,.55,1.67,0,.59-.17,1.11-.5,1.58s-.8,.83-1.42,1.09c-.62,.26-1.33,.4-2.15,.4-.88,0-1.66-.15-2.34-.45Z"/><path class="cls-1" d="M198.33,417.36c.39-.78,.92-1.38,1.59-1.8,.67-.42,1.42-.63,2.25-.63,.66,0,1.26,.14,1.81,.41,.55,.28,.97,.65,1.29,1.12v-4.66h3.08v13.32h-3.08v-1.44c-.29,.48-.7,.86-1.23,1.15-.53,.29-1.15,.43-1.86,.43-.83,0-1.58-.21-2.25-.64-.67-.43-1.2-1.03-1.59-1.82-.39-.79-.58-1.69-.58-2.73s.19-1.94,.58-2.72Zm6.3,.92c-.43-.44-.95-.67-1.56-.67s-1.13,.22-1.56,.66c-.43,.44-.64,1.04-.64,1.81s.21,1.38,.64,1.83,.95,.67,1.56,.67,1.13-.22,1.56-.67c.43-.44,.64-1.05,.64-1.82s-.21-1.37-.64-1.82Z"/><path class="cls-1" d="M220,420.83h-6.97c.05,.62,.25,1.1,.6,1.43s.79,.49,1.31,.49c.77,0,1.3-.32,1.6-.97h3.28c-.17,.66-.47,1.25-.91,1.78s-.99,.94-1.65,1.24c-.66,.3-1.4,.45-2.21,.45-.98,0-1.86-.21-2.63-.63-.77-.42-1.37-1.02-1.8-1.8-.43-.78-.65-1.69-.65-2.74s.21-1.96,.64-2.74c.43-.78,1.02-1.38,1.79-1.8,.77-.42,1.65-.63,2.65-.63s1.84,.21,2.59,.61c.76,.41,1.35,.99,1.77,1.75s.64,1.64,.64,2.65c0,.29-.02,.59-.05,.9Zm-3.1-1.71c0-.53-.18-.95-.54-1.26-.36-.31-.81-.47-1.35-.47s-.95,.15-1.31,.45c-.35,.3-.57,.73-.66,1.28h3.85Z"/><path class="cls-1" d="M118.49,438.96c.43-.78,1.02-1.38,1.78-1.8s1.64-.63,2.62-.63c1.26,0,2.31,.33,3.16,.99,.85,.66,1.4,1.59,1.67,2.79h-3.28c-.28-.77-.81-1.15-1.6-1.15-.56,0-1.01,.22-1.35,.66-.34,.44-.5,1.07-.5,1.88s.17,1.44,.5,1.88c.34,.44,.79,.66,1.35,.66,.79,0,1.33-.38,1.6-1.15h3.28c-.26,1.18-.82,2.1-1.67,2.77-.85,.67-1.9,1.01-3.15,1.01-.98,0-1.86-.21-2.62-.63-.76-.42-1.36-1.02-1.78-1.8-.43-.78-.64-1.69-.64-2.74s.21-1.96,.64-2.74Z"/><path class="cls-1" d="M131.27,446.23c-.79-.42-1.4-1.02-1.85-1.8-.45-.78-.68-1.69-.68-2.74s.23-1.94,.68-2.73,1.08-1.39,1.87-1.81,1.68-.63,2.66-.63,1.87,.21,2.66,.63,1.42,1.02,1.87,1.81,.68,1.7,.68,2.73-.23,1.94-.69,2.73-1.09,1.39-1.89,1.81c-.8,.42-1.69,.63-2.67,.63s-1.87-.21-2.65-.63Zm4.16-2.68c.41-.43,.62-1.05,.62-1.85s-.2-1.42-.6-1.85c-.4-.43-.9-.65-1.48-.65s-1.1,.21-1.49,.64-.59,1.05-.59,1.86,.19,1.42,.58,1.85c.39,.43,.88,.65,1.47,.65s1.09-.22,1.5-.65Z"/><path class="cls-1" d="M156.61,437.7c.74,.76,1.11,1.81,1.11,3.15v5.87h-3.06v-5.45c0-.65-.17-1.15-.51-1.5-.34-.35-.81-.53-1.41-.53s-1.07,.18-1.41,.53c-.34,.35-.51,.86-.51,1.5v5.45h-3.06v-5.45c0-.65-.17-1.15-.51-1.5-.34-.35-.81-.53-1.41-.53s-1.07,.18-1.41,.53c-.34,.35-.51,.86-.51,1.5v5.45h-3.08v-10.04h3.08v1.26c.31-.42,.72-.75,1.22-1s1.07-.37,1.71-.37c.76,0,1.43,.16,2.02,.49,.59,.32,1.06,.79,1.4,1.39,.35-.55,.82-1,1.42-1.35,.6-.35,1.25-.52,1.96-.52,1.25,0,2.24,.38,2.98,1.13Z"/><path class="cls-1" d="M169.79,436.67v10.04h-3.08v-1.37c-.31,.44-.74,.8-1.27,1.07-.53,.27-1.12,.41-1.77,.41-.77,0-1.45-.17-2.03-.51s-1.04-.84-1.37-1.48-.49-1.41-.49-2.29v-5.87h3.06v5.45c0,.67,.17,1.19,.52,1.57,.35,.37,.82,.56,1.4,.56s1.07-.19,1.42-.56c.35-.37,.52-.89,.52-1.57v-5.45h3.08Z"/><path class="cls-1" d="M180.94,437.71c.7,.76,1.05,1.81,1.05,3.14v5.87h-3.06v-5.45c0-.67-.17-1.19-.52-1.57s-.82-.56-1.4-.56-1.06,.19-1.4,.56-.52,.89-.52,1.57v5.45h-3.08v-10.04h3.08v1.33c.31-.44,.73-.79,1.26-1.05,.53-.26,1.12-.39,1.78-.39,1.18,0,2.12,.38,2.82,1.14Z"/><path class="cls-1" d="M184.36,435.15c-.34-.32-.51-.71-.51-1.18s.17-.88,.51-1.2c.34-.32,.78-.48,1.32-.48s.96,.16,1.31,.48c.34,.32,.51,.72,.51,1.2s-.17,.86-.51,1.18c-.34,.32-.78,.48-1.31,.48s-.98-.16-1.32-.48Zm2.85,1.52v10.04h-3.08v-10.04h3.08Z"/><path class="cls-1" d="M189.48,438.96c.43-.78,1.02-1.38,1.78-1.8s1.64-.63,2.62-.63c1.26,0,2.31,.33,3.16,.99,.85,.66,1.4,1.59,1.67,2.79h-3.28c-.28-.77-.81-1.15-1.6-1.15-.56,0-1.01,.22-1.35,.66-.34,.44-.5,1.07-.5,1.88s.17,1.44,.5,1.88c.34,.44,.79,.66,1.35,.66,.79,0,1.33-.38,1.6-1.15h3.28c-.26,1.18-.82,2.1-1.67,2.77-.85,.67-1.9,1.01-3.15,1.01-.98,0-1.86-.21-2.62-.63-.76-.42-1.36-1.02-1.78-1.8-.43-.78-.64-1.69-.64-2.74s.21-1.96,.64-2.74Z"/><path class="cls-1" d="M200.31,438.96c.39-.78,.92-1.38,1.59-1.8,.67-.42,1.42-.63,2.25-.63,.71,0,1.33,.14,1.86,.43,.53,.29,.95,.67,1.23,1.13v-1.42h3.08v10.04h-3.08v-1.42c-.3,.47-.72,.85-1.25,1.13s-1.15,.43-1.86,.43c-.82,0-1.56-.21-2.23-.64-.67-.43-1.2-1.03-1.59-1.82-.39-.79-.58-1.69-.58-2.73s.19-1.94,.58-2.72Zm6.3,.92c-.43-.44-.95-.67-1.56-.67s-1.13,.22-1.56,.66c-.43,.44-.64,1.04-.64,1.81s.21,1.38,.64,1.83,.95,.67,1.56,.67,1.13-.22,1.56-.67c.43-.44,.64-1.05,.64-1.82s-.21-1.37-.64-1.82Z"/><path class="cls-1" d="M218.54,443.08h3.28c-.23,1.02-.68,1.85-1.37,2.5-.68,.65-1.54,1.05-2.56,1.21v.67c.62,0,1.17,.17,1.64,.51,.47,.34,.7,.86,.7,1.54s-.25,1.2-.74,1.56c-.49,.35-1.08,.53-1.76,.53h-2.77v-1.69h2.36c.24,0,.42-.04,.54-.11,.12-.07,.18-.19,.18-.36s-.06-.29-.18-.35c-.12-.07-.3-.1-.54-.1h-1.28v-2.2c-1.24-.19-2.23-.74-2.97-1.65-.74-.91-1.12-2.05-1.12-3.45,0-1.04,.21-1.96,.64-2.74,.43-.78,1.02-1.38,1.78-1.8s1.64-.63,2.62-.63c1.26,0,2.31,.33,3.16,.99,.85,.66,1.4,1.59,1.67,2.79h-3.28c-.28-.77-.81-1.15-1.6-1.15-.56,0-1.01,.22-1.35,.66-.34,.44-.5,1.07-.5,1.88s.17,1.44,.5,1.88c.34,.44,.79,.66,1.35,.66,.79,0,1.33-.38,1.6-1.15Z"/><path class="cls-1" d="M223.42,438.96c.39-.78,.92-1.38,1.59-1.8,.67-.42,1.42-.63,2.25-.63,.71,0,1.33,.14,1.86,.43,.53,.29,.95,.67,1.23,1.13v-1.42h3.08v10.04h-3.08v-1.42c-.3,.47-.72,.85-1.25,1.13s-1.15,.43-1.86,.43c-.82,0-1.56-.21-2.23-.64-.67-.43-1.2-1.03-1.59-1.82-.39-.79-.58-1.69-.58-2.73s.19-1.94,.58-2.72Zm3.97-5.8c.26,0,.5,.04,.69,.12,.2,.08,.44,.19,.73,.35,.22,.12,.39,.21,.52,.26,.13,.05,.27,.08,.41,.08,.44,0,.7-.27,.77-.81h1.58c-.29,1.78-1.12,2.66-2.48,2.66-.26,0-.5-.04-.69-.12-.2-.08-.44-.2-.73-.35-.22-.12-.39-.21-.52-.26-.13-.05-.27-.08-.41-.08-.44,0-.71,.27-.79,.81h-1.57c.29-1.78,1.12-2.66,2.48-2.66Zm2.33,6.71c-.43-.44-.95-.67-1.56-.67s-1.13,.22-1.56,.66c-.43,.44-.64,1.04-.64,1.81s.21,1.38,.64,1.83,.95,.67,1.56,.67,1.13-.22,1.56-.67c.43-.44,.64-1.05,.64-1.82s-.21-1.37-.64-1.82Z"/><path class="cls-1" d="M237.59,446.23c-.79-.42-1.4-1.02-1.85-1.8-.45-.78-.68-1.69-.68-2.74s.23-1.94,.68-2.73,1.08-1.39,1.87-1.81,1.68-.63,2.66-.63,1.87,.21,2.66,.63,1.42,1.02,1.87,1.81,.68,1.7,.68,2.73-.23,1.94-.69,2.73-1.09,1.39-1.89,1.81c-.8,.42-1.69,.63-2.67,.63s-1.87-.21-2.65-.63Zm4.16-2.68c.41-.43,.62-1.05,.62-1.85s-.2-1.42-.6-1.85c-.4-.43-.9-.65-1.48-.65s-1.1,.21-1.49,.64-.59,1.05-.59,1.86,.19,1.42,.58,1.85c.39,.43,.88,.65,1.47,.65s1.09-.22,1.5-.65Z"/></g></g><g><circle class="cls-14" cx="414.61" cy="410.92" r="76.61"/><circle class="cls-4" cx="414.61" cy="410.92" r="67.9"/><g><path class="cls-1" d="M384.19,403.88h-4.72l-.76,2.23h-3.22l4.57-12.64h3.56l4.57,12.64h-3.26l-.76-2.23Zm-.79-2.38l-1.57-4.63-1.55,4.63h3.11Z"/><path class="cls-1" d="M395.27,396.36c.53,.29,.95,.67,1.23,1.13v-1.42h3.08v10.03c0,.92-.18,1.76-.55,2.51-.37,.75-.92,1.35-1.67,1.79-.75,.44-1.68,.67-2.8,.67-1.49,0-2.69-.35-3.62-1.05-.92-.7-1.45-1.65-1.58-2.85h3.04c.1,.38,.32,.69,.68,.91,.36,.22,.8,.33,1.33,.33,.64,0,1.14-.18,1.52-.55,.38-.37,.57-.95,.57-1.75v-1.42c-.3,.47-.71,.85-1.24,1.14-.53,.29-1.15,.44-1.85,.44-.83,0-1.58-.21-2.25-.64-.67-.43-1.2-1.03-1.59-1.82-.39-.79-.58-1.69-.58-2.73s.19-1.94,.58-2.72,.92-1.38,1.59-1.8c.67-.42,1.42-.63,2.25-.63,.71,0,1.33,.14,1.86,.43Zm.59,2.92c-.43-.44-.95-.67-1.56-.67s-1.13,.22-1.56,.66c-.43,.44-.64,1.04-.64,1.81s.21,1.38,.64,1.83,.95,.67,1.56,.67,1.13-.22,1.56-.67c.43-.44,.64-1.05,.64-1.82s-.21-1.37-.64-1.82Z"/><path class="cls-1" d="M411.23,401.83h-6.97c.05,.62,.25,1.1,.6,1.43s.79,.49,1.31,.49c.77,0,1.3-.32,1.6-.97h3.28c-.17,.66-.47,1.25-.91,1.78s-.99,.94-1.65,1.24c-.66,.3-1.4,.45-2.21,.45-.98,0-1.86-.21-2.63-.63-.77-.42-1.37-1.02-1.8-1.8-.43-.78-.65-1.69-.65-2.74s.21-1.96,.64-2.74c.43-.78,1.02-1.38,1.79-1.8,.77-.42,1.65-.63,2.65-.63s1.84,.21,2.59,.61c.76,.41,1.35,.99,1.77,1.75s.64,1.64,.64,2.65c0,.29-.02,.59-.05,.9Zm-4.99-7.99l-2.79,1.48v-2.12l2.79-1.42,2.79,1.42v2.12l-2.79-1.48Zm1.89,6.28c0-.53-.18-.95-.54-1.26-.36-.31-.81-.47-1.35-.47s-.95,.15-1.31,.45c-.35,.3-.57,.73-.66,1.28h3.85Z"/><path class="cls-1" d="M421.84,397.11c.7,.76,1.05,1.81,1.05,3.14v5.87h-3.06v-5.45c0-.67-.17-1.19-.52-1.57s-.82-.56-1.4-.56-1.06,.19-1.4,.56-.52,.89-.52,1.57v5.45h-3.08v-10.04h3.08v1.33c.31-.44,.73-.79,1.26-1.05,.53-.26,1.12-.39,1.78-.39,1.18,0,2.12,.38,2.82,1.14Z"/><path class="cls-1" d="M425.06,398.36c.43-.78,1.02-1.38,1.78-1.8s1.64-.63,2.62-.63c1.26,0,2.31,.33,3.16,.99,.85,.66,1.4,1.59,1.67,2.79h-3.28c-.28-.77-.81-1.15-1.6-1.15-.56,0-1.01,.22-1.35,.66-.34,.44-.5,1.07-.5,1.88s.17,1.44,.5,1.88c.34,.44,.79,.66,1.35,.66,.79,0,1.33-.38,1.6-1.15h3.28c-.26,1.18-.82,2.1-1.67,2.77-.85,.67-1.9,1.01-3.15,1.01-.98,0-1.86-.21-2.62-.63-.76-.42-1.36-1.02-1.78-1.8-.43-.78-.64-1.69-.64-2.74s.21-1.96,.64-2.74Z"/><path class="cls-1" d="M436.15,394.55c-.34-.32-.51-.71-.51-1.18s.17-.88,.51-1.2c.34-.32,.78-.48,1.32-.48s.96,.16,1.31,.48c.34,.32,.51,.72,.51,1.2s-.17,.86-.51,1.18c-.34,.32-.78,.48-1.31,.48s-.98-.16-1.32-.48Zm2.85,1.52v10.04h-3.08v-10.04h3.08Z"/><path class="cls-1" d="M441.21,398.36c.39-.78,.92-1.38,1.59-1.8,.67-.42,1.42-.63,2.25-.63,.71,0,1.33,.14,1.86,.43,.53,.29,.95,.67,1.23,1.13v-1.42h3.08v10.04h-3.08v-1.42c-.3,.47-.72,.85-1.25,1.13s-1.15,.43-1.86,.43c-.82,0-1.56-.21-2.23-.64-.67-.43-1.2-1.03-1.59-1.82-.39-.79-.58-1.69-.58-2.73s.19-1.94,.58-2.72Zm6.3,.92c-.43-.44-.95-.67-1.56-.67s-1.13,.22-1.56,.66c-.43,.44-.64,1.04-.64,1.81s.21,1.38,.64,1.83,.95,.67,1.56,.67,1.13-.22,1.56-.67c.43-.44,.64-1.05,.64-1.82s-.21-1.37-.64-1.82Z"/><path class="cls-1" d="M387.8,417.54v2.56h4.12v2.38h-4.12v2.77h4.66v2.47h-7.74v-12.64h7.74v2.47h-4.66Z"/><path class="cls-1" d="M396.21,427.41c-.68-.3-1.22-.71-1.62-1.23-.4-.52-.62-1.11-.67-1.75h3.04c.04,.35,.2,.63,.49,.85s.64,.32,1.06,.32c.38,0,.68-.08,.89-.22,.21-.15,.31-.34,.31-.58,0-.29-.15-.5-.45-.64-.3-.14-.79-.29-1.46-.46-.72-.17-1.32-.34-1.8-.53-.48-.19-.89-.48-1.24-.88-.35-.4-.52-.94-.52-1.63,0-.58,.16-1.1,.48-1.58,.32-.47,.79-.85,1.4-1.12,.62-.28,1.35-.41,2.21-.41,1.26,0,2.25,.31,2.98,.94s1.14,1.45,1.25,2.48h-2.84c-.05-.35-.2-.62-.46-.83-.26-.2-.6-.31-1.02-.31-.36,0-.64,.07-.83,.21-.19,.14-.29,.33-.29,.57,0,.29,.15,.5,.46,.65,.31,.14,.78,.29,1.43,.43,.74,.19,1.35,.38,1.82,.57,.47,.19,.88,.49,1.23,.9,.35,.41,.54,.97,.55,1.67,0,.59-.17,1.11-.5,1.58s-.8,.83-1.42,1.09c-.62,.26-1.33,.4-2.15,.4-.88,0-1.66-.15-2.34-.45Z"/><path class="cls-1" d="M410.1,425.1v2.61h-1.57c-1.12,0-1.99-.27-2.61-.82-.62-.55-.94-1.44-.94-2.67v-4h-1.22v-2.56h1.22v-2.45h3.08v2.45h2.02v2.56h-2.02v4.03c0,.3,.07,.52,.22,.65s.38,.2,.72,.2h1.1Z"/><path class="cls-1" d="M411.79,419.96c.39-.78,.92-1.38,1.59-1.8,.67-.42,1.42-.63,2.25-.63,.71,0,1.33,.14,1.86,.43,.53,.29,.95,.67,1.23,1.13v-1.42h3.08v10.04h-3.08v-1.42c-.3,.47-.72,.85-1.25,1.13s-1.15,.43-1.86,.43c-.82,0-1.56-.21-2.23-.64-.67-.43-1.2-1.03-1.59-1.82-.39-.79-.58-1.69-.58-2.73s.19-1.94,.58-2.72Zm6.3,.92c-.43-.44-.95-.67-1.56-.67s-1.13,.22-1.56,.66c-.43,.44-.64,1.04-.64,1.81s.21,1.38,.64,1.83,.95,.67,1.56,.67,1.13-.22,1.56-.67c.43-.44,.64-1.05,.64-1.82s-.21-1.37-.64-1.82Z"/><path class="cls-1" d="M429.63,425.1v2.61h-1.57c-1.12,0-1.99-.27-2.61-.82-.62-.55-.94-1.44-.94-2.67v-4h-1.22v-2.56h1.22v-2.45h3.08v2.45h2.02v2.56h-2.02v4.03c0,.3,.07,.52,.22,.65s.38,.2,.72,.2h1.1Z"/><path class="cls-1" d="M431.32,419.96c.39-.78,.92-1.38,1.59-1.8,.67-.42,1.42-.63,2.25-.63,.71,0,1.33,.14,1.86,.43,.53,.29,.95,.67,1.23,1.13v-1.42h3.08v10.04h-3.08v-1.42c-.3,.47-.72,.85-1.25,1.13s-1.15,.43-1.86,.43c-.82,0-1.56-.21-2.23-.64-.67-.43-1.2-1.03-1.59-1.82-.39-.79-.58-1.69-.58-2.73s.19-1.94,.58-2.72Zm6.3,.92c-.43-.44-.95-.67-1.56-.67s-1.13,.22-1.56,.66c-.43,.44-.64,1.04-.64,1.81s.21,1.38,.64,1.83,.95,.67,1.56,.67,1.13-.22,1.56-.67c.43-.44,.64-1.05,.64-1.82s-.21-1.37-.64-1.82Z"/><path class="cls-1" d="M446.64,414.39v13.32h-3.08v-13.32h3.08Z"/></g></g><g><circle class="cls-14" cx="546.61" cy="220.92" r="76.61"/><circle class="cls-4" cx="546.61" cy="220.92" r="67.9"/><g><path class="cls-1" d="M516.19,213.88h-4.71l-.76,2.23h-3.22l4.57-12.64h3.56l4.57,12.64h-3.26l-.76-2.23Zm-.79-2.38l-1.57-4.63-1.55,4.63h3.11Z"/><path class="cls-1" d="M527.27,206.36c.53,.29,.95,.67,1.23,1.13v-1.42h3.08v10.03c0,.92-.18,1.76-.55,2.51-.37,.75-.92,1.35-1.67,1.79-.75,.44-1.68,.67-2.8,.67-1.49,0-2.69-.35-3.62-1.05-.92-.7-1.45-1.65-1.58-2.85h3.04c.1,.38,.32,.69,.68,.91,.36,.22,.8,.33,1.33,.33,.64,0,1.14-.18,1.52-.55,.38-.37,.57-.95,.57-1.75v-1.42c-.3,.47-.71,.85-1.24,1.14-.53,.29-1.15,.44-1.85,.44-.83,0-1.58-.21-2.25-.64s-1.2-1.03-1.59-1.82c-.39-.79-.58-1.69-.58-2.73s.19-1.94,.58-2.72c.39-.78,.92-1.38,1.59-1.8s1.42-.63,2.25-.63c.71,0,1.33,.14,1.86,.43Zm.59,2.92c-.43-.44-.95-.67-1.56-.67s-1.13,.22-1.56,.66c-.43,.44-.64,1.04-.64,1.81s.21,1.38,.64,1.83,.95,.67,1.56,.67,1.13-.22,1.56-.67c.43-.44,.64-1.05,.64-1.82s-.21-1.37-.64-1.82Z"/><path class="cls-1" d="M543.23,211.83h-6.97c.05,.62,.25,1.1,.6,1.43,.35,.33,.79,.49,1.3,.49,.77,0,1.3-.32,1.6-.97h3.28c-.17,.66-.47,1.25-.91,1.78s-.99,.94-1.65,1.24c-.66,.3-1.4,.45-2.21,.45-.98,0-1.86-.21-2.63-.63-.77-.42-1.37-1.02-1.8-1.8-.43-.78-.65-1.69-.65-2.74s.21-1.96,.64-2.74c.43-.78,1.02-1.38,1.79-1.8,.77-.42,1.65-.63,2.65-.63s1.84,.21,2.59,.61c.76,.41,1.35,.99,1.77,1.75s.64,1.64,.64,2.65c0,.29-.02,.59-.05,.9Zm-4.99-7.99l-2.79,1.48v-2.12l2.79-1.42,2.79,1.42v2.12l-2.79-1.48Zm1.89,6.28c0-.53-.18-.95-.54-1.26-.36-.31-.81-.47-1.35-.47s-.95,.15-1.31,.45c-.35,.3-.57,.73-.66,1.28h3.85Z"/><path class="cls-1" d="M553.84,207.11c.7,.76,1.05,1.81,1.05,3.14v5.87h-3.06v-5.45c0-.67-.17-1.19-.52-1.57s-.82-.56-1.4-.56-1.06,.19-1.4,.56c-.35,.37-.52,.89-.52,1.57v5.45h-3.08v-10.04h3.08v1.33c.31-.44,.73-.79,1.26-1.05,.53-.26,1.12-.39,1.78-.39,1.18,0,2.12,.38,2.82,1.14Z"/><path class="cls-1" d="M557.06,208.36c.43-.78,1.02-1.38,1.78-1.8,.76-.42,1.64-.63,2.62-.63,1.26,0,2.31,.33,3.16,.99,.85,.66,1.4,1.59,1.66,2.79h-3.28c-.28-.77-.81-1.15-1.6-1.15-.56,0-1.02,.22-1.35,.66-.34,.44-.5,1.07-.5,1.88s.17,1.44,.5,1.88c.33,.44,.79,.66,1.35,.66,.79,0,1.33-.38,1.6-1.15h3.28c-.26,1.18-.82,2.1-1.67,2.77-.85,.67-1.9,1.01-3.15,1.01-.98,0-1.86-.21-2.62-.63-.76-.42-1.36-1.02-1.78-1.8-.43-.78-.64-1.69-.64-2.74s.21-1.96,.64-2.74Z"/><path class="cls-1" d="M568.15,204.55c-.34-.32-.51-.71-.51-1.18s.17-.88,.51-1.2c.34-.32,.78-.48,1.32-.48s.96,.16,1.31,.48c.34,.32,.51,.72,.51,1.2s-.17,.86-.51,1.18c-.34,.32-.78,.48-1.31,.48s-.98-.16-1.32-.48Zm2.85,1.52v10.04h-3.08v-10.04h3.08Z"/><path class="cls-1" d="M573.21,208.36c.39-.78,.92-1.38,1.59-1.8,.67-.42,1.42-.63,2.25-.63,.71,0,1.33,.14,1.86,.43,.53,.29,.95,.67,1.23,1.13v-1.42h3.08v10.04h-3.08v-1.42c-.3,.47-.72,.85-1.25,1.13s-1.15,.43-1.86,.43c-.82,0-1.56-.21-2.23-.64-.67-.43-1.2-1.03-1.59-1.82-.39-.79-.59-1.69-.59-2.73s.2-1.94,.59-2.72Zm6.3,.92c-.43-.44-.95-.67-1.56-.67s-1.13,.22-1.56,.66c-.43,.44-.64,1.04-.64,1.81s.21,1.38,.64,1.83,.95,.67,1.56,.67,1.13-.22,1.56-.67c.43-.44,.64-1.05,.64-1.82s-.21-1.37-.64-1.82Z"/><path class="cls-1" d="M519.8,227.54v2.56h4.12v2.38h-4.12v2.77h4.66v2.47h-7.74v-12.64h7.74v2.47h-4.66Z"/><path class="cls-1" d="M528.21,237.41c-.68-.3-1.22-.71-1.62-1.23-.4-.52-.62-1.11-.67-1.75h3.04c.04,.35,.2,.63,.49,.85s.64,.32,1.06,.32c.38,0,.68-.08,.89-.22,.21-.15,.31-.34,.31-.58,0-.29-.15-.5-.45-.64-.3-.14-.79-.29-1.46-.46-.72-.17-1.32-.34-1.8-.53-.48-.19-.89-.48-1.24-.88-.35-.4-.52-.94-.52-1.63,0-.58,.16-1.1,.48-1.58,.32-.47,.79-.85,1.4-1.12,.62-.28,1.35-.41,2.21-.41,1.26,0,2.25,.31,2.98,.94,.73,.62,1.14,1.45,1.25,2.48h-2.84c-.05-.35-.2-.62-.46-.83s-.6-.31-1.02-.31c-.36,0-.64,.07-.83,.21-.19,.14-.29,.33-.29,.57,0,.29,.15,.5,.46,.65,.31,.14,.78,.29,1.43,.43,.74,.19,1.35,.38,1.82,.57,.47,.19,.88,.49,1.23,.9,.35,.41,.54,.97,.55,1.67,0,.59-.17,1.11-.5,1.58s-.8,.83-1.42,1.09-1.33,.4-2.15,.4c-.88,0-1.66-.15-2.34-.45Z"/><path class="cls-1" d="M542.1,235.1v2.61h-1.57c-1.12,0-1.99-.27-2.61-.82-.62-.55-.94-1.44-.94-2.67v-4h-1.22v-2.56h1.22v-2.45h3.08v2.45h2.02v2.56h-2.02v4.03c0,.3,.07,.52,.22,.65s.38,.2,.72,.2h1.1Z"/><path class="cls-1" d="M543.79,229.96c.39-.78,.92-1.38,1.59-1.8s1.42-.63,2.25-.63c.71,0,1.33,.14,1.86,.43,.53,.29,.95,.67,1.23,1.13v-1.42h3.08v10.04h-3.08v-1.42c-.3,.47-.72,.85-1.25,1.13s-1.16,.43-1.86,.43c-.82,0-1.56-.21-2.23-.64s-1.2-1.03-1.59-1.82c-.39-.79-.58-1.69-.58-2.73s.19-1.94,.58-2.72Zm6.3,.92c-.43-.44-.95-.67-1.56-.67s-1.13,.22-1.56,.66c-.43,.44-.64,1.04-.64,1.81s.21,1.38,.64,1.83,.95,.67,1.56,.67,1.13-.22,1.56-.67c.43-.44,.64-1.05,.64-1.82s-.21-1.37-.64-1.82Z"/><path class="cls-1" d="M561.63,235.1v2.61h-1.57c-1.12,0-1.99-.27-2.61-.82-.62-.55-.94-1.44-.94-2.67v-4h-1.22v-2.56h1.22v-2.45h3.08v2.45h2.02v2.56h-2.02v4.03c0,.3,.07,.52,.21,.65,.14,.13,.38,.2,.72,.2h1.1Z"/><path class="cls-1" d="M563.32,229.96c.39-.78,.92-1.38,1.59-1.8s1.42-.63,2.25-.63c.71,0,1.33,.14,1.86,.43,.53,.29,.95,.67,1.23,1.13v-1.42h3.08v10.04h-3.08v-1.42c-.3,.47-.72,.85-1.25,1.13-.54,.29-1.16,.43-1.86,.43-.82,0-1.56-.21-2.23-.64s-1.2-1.03-1.59-1.82c-.39-.79-.58-1.69-.58-2.73s.2-1.94,.58-2.72Zm6.3,.92c-.43-.44-.95-.67-1.56-.67s-1.13,.22-1.56,.66c-.43,.44-.64,1.04-.64,1.81s.21,1.38,.64,1.83,.95,.67,1.56,.67,1.13-.22,1.56-.67c.43-.44,.64-1.05,.64-1.82s-.21-1.37-.64-1.82Z"/><path class="cls-1" d="M578.64,224.39v13.32h-3.08v-13.32h3.08Z"/></g></g><g><circle class="cls-11" cx="406.61" cy="634.92" r="76.61"/><circle class="cls-4" cx="406.61" cy="634.92" r="67.9"/><g><path class="cls-1" d="M370.73,627.72c1.04,.55,1.85,1.33,2.42,2.33,.57,1,.86,2.15,.86,3.46s-.29,2.44-.86,3.45c-.57,1-1.38,1.78-2.43,2.34-1.05,.55-2.26,.83-3.65,.83h-4.95v-13.22h4.95c1.39,0,2.61,.28,3.65,.83Zm-1.02,8.61c.68-.67,1.02-1.61,1.02-2.83s-.34-2.17-1.02-2.84c-.68-.68-1.63-1.02-2.84-1.02h-1.53v7.69h1.53c1.22,0,2.17-.33,2.84-1Z"/><path class="cls-1" d="M377.82,639.61c-.82-.44-1.47-1.07-1.94-1.88-.47-.82-.71-1.77-.71-2.86s.24-2.03,.72-2.85,1.13-1.45,1.96-1.89c.83-.44,1.76-.66,2.79-.66s1.96,.22,2.79,.66c.83,.44,1.48,1.07,1.96,1.89,.48,.82,.72,1.77,.72,2.85s-.24,2.03-.73,2.85c-.48,.82-1.14,1.45-1.98,1.89-.83,.44-1.77,.66-2.8,.66s-1.96-.22-2.78-.66Zm4.35-2.81c.43-.45,.65-1.1,.65-1.94s-.21-1.49-.63-1.94-.94-.68-1.55-.68-1.15,.22-1.56,.67c-.41,.45-.62,1.1-.62,1.95s.2,1.49,.61,1.94,.92,.68,1.54,.68,1.14-.23,1.57-.68Z"/><path class="cls-1" d="M387.79,632c.41-.82,.96-1.44,1.67-1.88,.7-.44,1.49-.66,2.35-.66,.74,0,1.39,.15,1.95,.45,.56,.3,.99,.7,1.29,1.19v-1.49h3.22v10.51h-3.22v-1.49c-.31,.49-.75,.89-1.31,1.19-.56,.3-1.21,.45-1.95,.45-.85,0-1.63-.22-2.34-.67-.7-.45-1.26-1.08-1.67-1.9-.41-.82-.61-1.77-.61-2.85s.2-2.03,.61-2.84Zm6.59,.96c-.45-.46-.99-.7-1.63-.7s-1.18,.23-1.63,.69c-.45,.46-.67,1.09-.67,1.89s.22,1.44,.67,1.91c.45,.47,.99,.71,1.63,.71s1.18-.23,1.63-.7c.45-.46,.67-1.1,.67-1.9s-.22-1.44-.67-1.9Z"/><path class="cls-1" d="M400.58,632c.41-.82,.96-1.44,1.67-1.88,.7-.44,1.49-.66,2.35-.66,.69,0,1.32,.14,1.89,.43,.57,.29,1.02,.68,1.35,1.17v-4.88h3.22v13.94h-3.22v-1.51c-.3,.5-.73,.9-1.29,1.21-.56,.3-1.21,.45-1.95,.45-.87,0-1.65-.22-2.35-.67-.7-.45-1.26-1.08-1.67-1.9-.41-.82-.61-1.77-.61-2.85s.2-2.03,.61-2.84Zm6.59,.96c-.45-.46-.99-.7-1.63-.7s-1.18,.23-1.63,.69c-.45,.46-.67,1.09-.67,1.89s.22,1.44,.67,1.91c.45,.47,.99,.71,1.63,.71s1.18-.23,1.63-.7c.45-.46,.67-1.1,.67-1.9s-.22-1.44-.67-1.9Z"/><path class="cls-1" d="M415.41,639.61c-.82-.44-1.47-1.07-1.94-1.88-.47-.82-.71-1.77-.71-2.86s.24-2.03,.72-2.85,1.13-1.45,1.96-1.89c.83-.44,1.76-.66,2.79-.66s1.96,.22,2.79,.66c.83,.44,1.48,1.07,1.96,1.89,.48,.82,.72,1.77,.72,2.85s-.24,2.03-.73,2.85c-.48,.82-1.14,1.45-1.98,1.89-.83,.44-1.77,.66-2.8,.66s-1.96-.22-2.78-.66Zm4.35-2.81c.43-.45,.65-1.1,.65-1.94s-.21-1.49-.63-1.94-.94-.68-1.55-.68-1.15,.22-1.56,.67c-.41,.45-.62,1.1-.62,1.95s.2,1.49,.61,1.94,.92,.68,1.54,.68,1.14-.23,1.57-.68Z"/><path class="cls-1" d="M430.03,629.99c.56-.33,1.19-.5,1.88-.5v3.41h-.89c-.8,0-1.41,.17-1.81,.52-.4,.35-.6,.95-.6,1.82v4.88h-3.22v-10.51h3.22v1.75c.38-.58,.85-1.03,1.41-1.37Z"/><path class="cls-1" d="M443.31,635.63h-7.29c.05,.65,.26,1.15,.63,1.5,.37,.34,.83,.52,1.37,.52,.8,0,1.36-.34,1.68-1.02h3.43c-.18,.69-.49,1.31-.95,1.87s-1.03,.99-1.72,1.3c-.69,.31-1.46,.47-2.32,.47-1.03,0-1.95-.22-2.75-.66s-1.43-1.07-1.88-1.88-.68-1.77-.68-2.86,.22-2.05,.67-2.86c.45-.82,1.07-1.44,1.87-1.88,.8-.44,1.73-.66,2.77-.66s1.92,.21,2.71,.64c.79,.43,1.41,1.04,1.86,1.83s.67,1.71,.67,2.77c0,.3-.02,.62-.06,.94Zm-3.24-1.79c0-.55-.19-.99-.57-1.32-.38-.33-.85-.49-1.41-.49s-1,.16-1.37,.47c-.37,.31-.6,.76-.69,1.34h4.03Z"/><path class="cls-1" d="M446.89,639.79c-.72-.31-1.28-.74-1.7-1.29-.41-.55-.65-1.16-.7-1.84h3.18c.04,.36,.21,.66,.51,.89,.3,.23,.67,.34,1.11,.34,.4,0,.71-.08,.93-.24s.33-.36,.33-.61c0-.3-.16-.52-.47-.67-.31-.14-.82-.3-1.53-.48-.75-.18-1.38-.36-1.88-.56-.5-.19-.94-.5-1.3-.92s-.55-.99-.55-1.71c0-.6,.17-1.15,.5-1.65,.33-.5,.82-.89,1.47-1.18,.65-.29,1.42-.43,2.31-.43,1.32,0,2.36,.33,3.12,.98,.76,.65,1.2,1.52,1.31,2.6h-2.98c-.05-.36-.21-.65-.48-.87-.27-.21-.62-.32-1.06-.32-.38,0-.67,.07-.87,.22-.2,.14-.3,.34-.3,.59,0,.3,.16,.53,.48,.68,.32,.15,.82,.3,1.5,.45,.78,.2,1.41,.4,1.9,.59,.49,.2,.92,.51,1.29,.94,.37,.43,.56,1.01,.58,1.74,0,.62-.17,1.17-.52,1.65-.35,.48-.84,.86-1.49,1.14-.65,.28-1.4,.41-2.25,.41-.92,0-1.73-.16-2.45-.47Z"/></g></g><g><path class="cls-1" d="M521.05,347.35v2.76h5.4v3.58h-5.4v3.05h6.12v3.77h-10.82v-16.92h10.82v3.77h-6.12Z"/><path class="cls-1" d="M531.03,359.26c-1.26-.94-1.94-2.28-2.04-4.02h5.02c.05,.59,.22,1.02,.53,1.3s.7,.41,1.18,.41c.43,0,.79-.11,1.07-.32s.42-.52,.42-.9c0-.5-.23-.88-.7-1.15-.46-.27-1.22-.58-2.26-.91-1.1-.37-2-.72-2.68-1.07-.68-.34-1.27-.85-1.78-1.51-.5-.66-.76-1.53-.76-2.6s.27-2.02,.82-2.8,1.3-1.36,2.26-1.76,2.05-.6,3.26-.6c1.97,0,3.54,.46,4.72,1.38,1.18,.92,1.8,2.21,1.88,3.88h-5.11c-.02-.51-.17-.9-.47-1.15-.3-.26-.68-.38-1.14-.38-.35,0-.64,.1-.86,.31-.22,.21-.34,.5-.34,.89,0,.32,.12,.6,.37,.83,.25,.23,.56,.43,.92,.6s.91,.38,1.63,.64c1.07,.37,1.96,.73,2.65,1.09,.7,.36,1.3,.86,1.8,1.51s.76,1.47,.76,2.46-.25,1.91-.76,2.71c-.5,.8-1.23,1.43-2.18,1.9s-2.08,.7-3.37,.7c-1.97,0-3.58-.47-4.85-1.4Z"/><path class="cls-1" d="M557.12,343.58v3.74h-4.51v13.18h-4.7v-13.18h-4.46v-3.74h13.68Z"/><path class="cls-1" d="M569.58,357.74h-6l-.91,2.76h-4.94l6.17-16.92h5.42l6.14,16.92h-4.97l-.91-2.76Zm-1.18-3.6l-1.82-5.47-1.8,5.47h3.62Z"/><path class="cls-1" d="M588.36,344.65c1.34,.71,2.36,1.71,3.08,2.99,.72,1.28,1.08,2.74,1.08,4.39s-.36,3.09-1.09,4.37c-.73,1.28-1.76,2.28-3.1,3.01s-2.88,1.09-4.64,1.09h-6.7v-16.92h6.7c1.78,0,3.33,.36,4.67,1.07Zm-1.79,10.57c.78-.75,1.18-1.82,1.18-3.19s-.39-2.47-1.18-3.23c-.78-.76-1.86-1.14-3.24-1.14h-1.63v8.69h1.63c1.38,0,2.46-.38,3.24-1.13Z"/><path class="cls-1" d="M598.38,359.55c-1.33-.74-2.38-1.78-3.16-3.1s-1.16-2.81-1.16-4.48,.39-3.16,1.16-4.48c.78-1.32,1.83-2.35,3.16-3.08,1.33-.74,2.78-1.1,4.37-1.1s3.06,.37,4.38,1.1c1.32,.74,2.36,1.76,3.13,3.08,.77,1.32,1.15,2.81,1.15,4.48s-.38,3.16-1.15,4.48c-.77,1.32-1.82,2.35-3.14,3.1-1.33,.74-2.78,1.12-4.37,1.12s-3.04-.37-4.37-1.12Zm7.21-4.43c.7-.78,1.04-1.83,1.04-3.14s-.35-2.4-1.04-3.18c-.7-.78-1.64-1.16-2.84-1.16s-2.17,.39-2.86,1.16c-.69,.78-1.03,1.84-1.03,3.18s.34,2.38,1.03,3.16c.69,.78,1.64,1.16,2.86,1.16s2.15-.39,2.84-1.18Z"/></g><g><g><path class="cls-3" d="M283.6,514.02l-.42,10.85c-.04,1.06,.72,2.04,1.77,2.14,1.13,.1,2.1-.76,2.14-1.88l.19-4.92c.02-.56,.7-.81,1.08-.4l8.52,9.21c.72,.78,1.95,.94,2.77,.26,.87-.72,.95-2.02,.19-2.84l-8.6-9.29c-.38-.41-.07-1.07,.48-1.05l4.81,.18c1.06,.04,2.04-.72,2.14-1.77,.1-1.13-.76-2.1-1.88-2.14l-10.96-.42c-1.19-.05-2.19,.88-2.23,2.07Z"/><path class="cls-3" d="M301.9,534.43l1.53,1.66c.74,.79,1.98,.84,2.77,.11,.79-.74,.84-1.98,.11-2.77l-1.53-1.66c-.74-.79-1.98-.84-2.77-.11s-.84,1.98-.11,2.77Z"/><path class="cls-3" d="M307.97,540.99l.14,.15c.74,.79,1.98,.84,2.77,.11s.84-1.98,.11-2.77l-.14-.15c-.74-.79-1.98-.84-2.77-.11s-.84,1.98-.11,2.77Z"/></g><g><path class="cls-3" d="M309.34,541.82l-10.85-.42c-1.06-.04-1.98-.87-1.99-1.93-.02-1.13,.92-2.03,2.03-1.99l4.92,.19c.56,.02,.86-.64,.48-1.05l-8.52-9.21c-.72-.78-.78-2.02-.04-2.78,.79-.81,2.09-.79,2.85,.03l8.6,9.29c.38,.41,1.06,.16,1.08-.4l.19-4.81c.04-1.06,.87-1.98,1.93-1.99,1.13-.02,2.03,.92,1.99,2.03l-.42,10.96c-.05,1.19-1.05,2.11-2.23,2.07Z"/><path class="cls-3" d="M290.4,522.01l-1.53-1.66c-.74-.79-.69-2.04,.11-2.77,.79-.74,2.04-.69,2.77,.11l1.53,1.66c.74,.79,.69,2.03-.11,2.77s-2.03,.69-2.77-.11Z"/><path class="cls-3" d="M284.33,515.45l-.14-.15c-.74-.79-.69-2.03,.11-2.77s2.03-.69,2.77,.11l.14,.15c.74,.79,.69,2.03-.11,2.77s-2.03,.69-2.77-.11Z"/></g></g><g><g><path class="cls-3" d="M470.46,725.16l2.01-6.83c.2-.67-.13-1.41-.78-1.64-.7-.25-1.45,.14-1.66,.85l-.91,3.1c-.1,.35-.58,.4-.75,.08l-3.94-7.23c-.33-.61-1.09-.91-1.72-.61-.67,.32-.93,1.13-.58,1.78l3.97,7.29c.17,.32-.13,.69-.47,.59l-3.03-.89c-.67-.2-1.41,.13-1.64,.78-.25,.7,.15,1.45,.85,1.66l6.9,2.03c.75,.22,1.53-.21,1.75-.95Z"/><path class="cls-3" d="M462.11,709.24l-.71-1.3c-.34-.62-1.12-.85-1.74-.51s-.85,1.12-.51,1.74l.71,1.3c.34,.62,1.12,.85,1.74,.51s.85-1.12,.51-1.74Z"/><path class="cls-3" d="M459.31,704.09l-.07-.12c-.34-.62-1.12-.85-1.74-.51s-.85,1.12-.51,1.74l.07,.12c.34,.62,1.12,.85,1.74,.51s.85-1.12,.51-1.74Z"/></g><g><path class="cls-3" d="M458.57,703.34l6.83,2.01c.67,.2,1.12,.87,.96,1.55-.17,.72-.91,1.14-1.61,.94l-3.1-.91c-.35-.1-.65,.27-.47,.59l3.94,7.23c.33,.61,.17,1.41-.42,1.77-.63,.39-1.45,.16-1.8-.48l-3.97-7.29c-.17-.32-.65-.27-.75,.08l-.89,3.03c-.2,.67-.87,1.12-1.55,.96-.72-.17-1.14-.91-.94-1.61l2.03-6.9c.22-.75,1.01-1.17,1.75-.95Z"/><path class="cls-3" d="M467.42,718.99l.71,1.3c.34,.62,.11,1.4-.51,1.74s-1.4,.11-1.74-.51l-.71-1.3c-.34-.62-.11-1.4,.51-1.74s1.4-.11,1.74,.51Z"/><path class="cls-3" d="M470.23,724.14l.07,.12c.34,.62,.11,1.4-.51,1.74s-1.4,.11-1.74-.51l-.07-.12c-.34-.62-.11-1.4,.51-1.74s1.4-.11,1.74,.51Z"/></g></g><g><g><path class="cls-3" d="M404.32,824.7l5.41,4.63c.53,.45,1.34,.46,1.82-.04,.51-.54,.46-1.39-.1-1.86l-2.45-2.1c-.28-.24-.13-.69,.23-.72l8.2-.64c.69-.05,1.28-.62,1.26-1.32-.02-.74-.65-1.31-1.39-1.25l-8.28,.65c-.36,.03-.58-.4-.34-.67l2.05-2.4c.45-.53,.46-1.34-.04-1.82-.54-.51-1.39-.46-1.86,.1l-4.67,5.47c-.51,.59-.44,1.48,.16,1.99Z"/><path class="cls-3" d="M422.26,823.59l1.48-.12c.71-.06,1.24-.67,1.18-1.38s-.67-1.24-1.38-1.18l-1.48,.12c-.71,.06-1.24,.67-1.18,1.38s.67,1.24,1.38,1.18Z"/><path class="cls-3" d="M428.11,823.13h.14c.71-.07,1.24-.69,1.18-1.39s-.67-1.24-1.38-1.18h-.14c-.71,.07-1.24,.69-1.18,1.39s.67,1.24,1.38,1.18Z"/></g><g><path class="cls-3" d="M429.09,822.76l-4.63,5.41c-.45,.53-1.25,.66-1.81,.24-.59-.45-.67-1.3-.2-1.86l2.1-2.45c.24-.28,.02-.7-.34-.67l-8.2,.64c-.69,.05-1.36-.42-1.45-1.11-.1-.74,.44-1.39,1.17-1.45l8.28-.65c.36-.03,.51-.48,.23-.72l-2.4-2.05c-.53-.45-.66-1.25-.24-1.81,.45-.59,1.3-.67,1.86-.2l5.47,4.67c.59,.51,.66,1.4,.16,1.99Z"/><path class="cls-3" d="M411.19,824.45l-1.48,.12c-.71,.06-1.33-.47-1.38-1.18s.47-1.33,1.18-1.38l1.48-.12c.71-.06,1.33,.47,1.38,1.18s-.47,1.33-1.18,1.38Z"/><path class="cls-3" d="M405.35,824.91h-.14c-.71,.07-1.33-.46-1.38-1.17s.47-1.33,1.18-1.38h.14c.71-.07,1.33,.46,1.38,1.17s-.47,1.33-1.18,1.38Z"/></g></g><g><g><path class="cls-3" d="M342.41,732.46l6.66-2.51c.65-.25,1.05-.95,.84-1.62-.22-.71-.99-1.07-1.68-.82l-3.02,1.14c-.34,.13-.67-.22-.52-.55l3.4-7.49c.29-.63,.07-1.42-.55-1.74-.66-.34-1.46-.06-1.76,.61l-3.43,7.56c-.15,.33-.63,.32-.76-.02l-1.11-2.95c-.24-.65-.95-1.05-1.62-.84-.71,.22-1.07,.99-.82,1.68l2.53,6.73c.27,.73,1.09,1.1,1.82,.82Z"/><path class="cls-3" d="M350.1,716.21l.61-1.35c.29-.65,0-1.41-.64-1.7s-1.41,0-1.7,.64l-.61,1.35c-.29,.65,0,1.41,.64,1.7s1.41,0,1.7-.64Z"/><path class="cls-3" d="M352.52,710.87l.06-.13c.29-.65,0-1.41-.64-1.7s-1.41,0-1.7,.64l-.06,.13c-.29,.65,0,1.41,.64,1.7s1.41,0,1.7-.64Z"/></g><g><path class="cls-3" d="M352.67,709.83l2.51,6.66c.24,.65-.02,1.42-.66,1.7-.68,.3-1.46-.04-1.72-.72l-1.14-3.02c-.13-.34-.6-.36-.76-.02l-3.4,7.49c-.29,.63-1.02,.99-1.67,.73-.69-.27-1.01-1.06-.7-1.73l3.43-7.56c.15-.33-.18-.68-.52-.55l-2.95,1.11c-.65,.25-1.42-.02-1.7-.66-.3-.68,.04-1.46,.72-1.72l6.73-2.53c.73-.27,1.54,.09,1.82,.82Z"/><path class="cls-3" d="M345.51,726.32l-.61,1.35c-.29,.65-1.06,.93-1.7,.64s-.93-1.06-.64-1.7l.61-1.35c.29-.65,1.06-.93,1.7-.64s.93,1.05,.64,1.7Z"/><path class="cls-3" d="M343.09,731.66l-.06,.13c-.29,.65-1.06,.93-1.7,.64s-.93-1.05-.64-1.7l.06-.13c.29-.65,1.06-.93,1.7-.64s.93,1.05,.64,1.7Z"/></g></g><g><g><path class="cls-3" d="M220.03,728.75l1.62-6.93c.16-.68-.21-1.4-.88-1.6-.71-.21-1.44,.23-1.61,.94l-.74,3.14c-.08,.35-.55,.43-.75,.12l-4.34-6.99c-.37-.59-1.14-.85-1.75-.51-.65,.36-.86,1.18-.47,1.8l4.38,7.05c.19,.31-.09,.7-.44,.61l-3.07-.72c-.68-.16-1.4,.21-1.6,.88-.21,.71,.23,1.44,.94,1.61l7,1.64c.76,.18,1.52-.29,1.7-1.05Z"/><path class="cls-3" d="M210.79,713.33l-.78-1.26c-.37-.6-1.17-.79-1.77-.41s-.79,1.17-.41,1.77l.78,1.26c.37,.6,1.17,.79,1.77,.41s.79-1.17,.41-1.77Z"/><path class="cls-3" d="M207.7,708.35l-.07-.12c-.37-.6-1.17-.79-1.77-.41s-.79,1.17-.41,1.77l.07,.12c.37,.6,1.17,.79,1.77,.41s.79-1.17,.41-1.77Z"/></g><g><path class="cls-3" d="M206.92,707.64l6.93,1.62c.68,.16,1.17,.81,1.04,1.49-.13,.73-.84,1.19-1.56,1.03l-3.14-.73c-.35-.08-.63,.3-.44,.61l4.34,6.99c.37,.59,.25,1.4-.32,1.79-.61,.42-1.44,.25-1.83-.38l-4.38-7.05c-.19-.31-.66-.23-.75,.12l-.72,3.07c-.16,.68-.81,1.17-1.49,1.04-.73-.13-1.19-.84-1.03-1.56l1.64-7c.18-.76,.94-1.23,1.7-1.05Z"/><path class="cls-3" d="M216.65,722.76l.78,1.26c.37,.6,.19,1.4-.41,1.77s-1.4,.19-1.77-.41l-.78-1.26c-.37-.6-.19-1.4,.41-1.77s1.4-.19,1.77,.41Z"/><path class="cls-3" d="M219.74,727.74l.07,.12c.37,.6,.19,1.4-.41,1.77s-1.4,.19-1.77-.41l-.07-.12c-.37-.6-.19-1.4,.41-1.77s1.4-.19,1.77,.41Z"/></g></g><g><g><path class="cls-3" d="M263.22,617.89l5.1,4.97c.5,.49,1.31,.55,1.82,.08,.55-.5,.55-1.35,.03-1.87l-2.31-2.25c-.26-.25-.08-.7,.28-.7l8.23-.1c.7,0,1.31-.54,1.34-1.23,.03-.74-.57-1.35-1.3-1.34l-8.3,.1c-.36,0-.55-.43-.3-.69l2.2-2.26c.49-.5,.55-1.31,.08-1.82-.5-.55-1.35-.55-1.87-.03l-5.02,5.15c-.54,.56-.53,1.45,.02,2Z"/><path class="cls-3" d="M281.19,617.96l1.48-.02c.71,0,1.28-.59,1.27-1.3s-.59-1.28-1.3-1.27l-1.48,.02c-.71,0-1.28,.59-1.27,1.3s.59,1.28,1.3,1.27Z"/><path class="cls-3" d="M287.06,617.89h.14c.71-.01,1.28-.59,1.27-1.3s-.59-1.28-1.3-1.27h-.14c-.71,.01-1.28,.59-1.27,1.3s.59,1.28,1.3,1.27Z"/></g><g><path class="cls-3" d="M288.06,617.59l-4.97,5.1c-.49,.5-1.29,.58-1.82,.12-.56-.49-.58-1.34-.07-1.86l2.25-2.31c.25-.26,.07-.7-.3-.69l-8.23,.1c-.7,0-1.33-.51-1.37-1.2-.05-.74,.53-1.36,1.27-1.37l8.3-.1c.36,0,.54-.45,.28-.7l-2.26-2.2c-.5-.49-.58-1.29-.12-1.82,.49-.56,1.34-.58,1.86-.07l5.15,5.02c.56,.54,.57,1.44,.02,2Z"/><path class="cls-3" d="M270.09,618.09l-1.48,.02c-.71,0-1.29-.56-1.3-1.27s.56-1.29,1.27-1.3l1.48-.02c.71,0,1.29,.56,1.3,1.27s-.56,1.29-1.27,1.3Z"/><path class="cls-3" d="M264.23,618.16h-.14c-.71,.01-1.29-.56-1.3-1.27s.56-1.29,1.27-1.3h.14c.71-.01,1.29,.56,1.3,1.27s-.56,1.29-1.27,1.3Z"/></g></g><g><g><path class="cls-3" d="M287.21,410.8l5.06,5.01c.49,.49,1.3,.56,1.82,.09,.55-.5,.56-1.35,.04-1.87l-2.29-2.27c-.26-.26-.08-.7,.29-.7l8.23-.04c.7,0,1.32-.53,1.35-1.22,.03-.74-.56-1.35-1.29-1.35l-8.3,.04c-.36,0-.55-.44-.29-.7l2.22-2.24c.49-.49,.56-1.3,.09-1.82-.5-.55-1.35-.56-1.87-.04l-5.06,5.11c-.55,.55-.54,1.45,.01,2Z"/><path class="cls-3" d="M305.18,411h1.48c.71-.01,1.28-.59,1.28-1.3s-.58-1.28-1.29-1.28h-1.48c-.71,.01-1.28,.59-1.28,1.3s.58,1.28,1.29,1.28Z"/><path class="cls-3" d="M311.05,410.97h.14c.71,0,1.28-.58,1.28-1.29s-.58-1.28-1.29-1.28h-.14c-.71,0-1.28,.58-1.28,1.29s.58,1.28,1.29,1.28Z"/></g><g><path class="cls-3" d="M312.06,410.67l-5.01,5.06c-.49,.49-1.3,.57-1.82,.11-.55-.49-.58-1.34-.06-1.86l2.27-2.29c.26-.26,.07-.7-.29-.7l-8.23,.04c-.7,0-1.32-.51-1.36-1.21-.04-.74,.54-1.36,1.28-1.36l8.3-.04c.36,0,.54-.44,.29-.7l-2.24-2.22c-.49-.49-.57-1.3-.11-1.82,.49-.55,1.34-.58,1.86-.06l5.11,5.06c.55,.55,.56,1.44,.01,2Z"/><path class="cls-3" d="M294.08,411.06h-1.48c-.71,.01-1.29-.56-1.29-1.27s.57-1.29,1.28-1.29h1.48c.71-.01,1.29,.56,1.29,1.27s-.57,1.29-1.28,1.29Z"/><path class="cls-3" d="M288.22,411.09h-.14c-.71,0-1.29-.57-1.29-1.28s.57-1.29,1.28-1.29h.14c.71,0,1.29,.57,1.29,1.28s-.57,1.29-1.28,1.29Z"/></g></g><g><g><path class="cls-3" d="M474.67,328.08l7.07-.8c.69-.08,1.25-.67,1.21-1.36-.04-.74-.7-1.28-1.43-1.2l-3.21,.36c-.36,.04-.59-.38-.37-.66l5.13-6.43c.43-.54,.42-1.36-.11-1.82-.56-.49-1.4-.41-1.86,.16l-5.17,6.49c-.23,.29-.69,.15-.73-.21l-.35-3.13c-.08-.69-.67-1.25-1.36-1.21-.74,.04-1.28,.7-1.2,1.43l.81,7.15c.09,.77,.79,1.33,1.56,1.24Z"/><path class="cls-3" d="M486.1,314.2l.92-1.16c.44-.55,.35-1.36-.2-1.81s-1.36-.35-1.81,.2l-.92,1.16c-.44,.55-.35,1.36,.2,1.81s1.36,.35,1.81-.2Z"/><path class="cls-3" d="M489.75,309.61l.09-.11c.44-.55,.35-1.36-.2-1.81s-1.36-.35-1.81,.2l-.09,.11c-.44,.56-.35,1.36,.2,1.81s1.36,.35,1.81-.2Z"/></g><g><path class="cls-3" d="M490.16,308.65l.8,7.07c.08,.69-.37,1.37-1.06,1.48-.73,.12-1.41-.39-1.49-1.12l-.36-3.21c-.04-.36-.5-.49-.73-.21l-5.13,6.43c-.43,.54-1.23,.71-1.8,.3-.6-.43-.72-1.27-.26-1.85l5.17-6.49c.23-.29,0-.7-.37-.66l-3.13,.35c-.69,.08-1.37-.37-1.48-1.06-.12-.73,.4-1.41,1.12-1.49l7.15-.81c.77-.09,1.47,.47,1.56,1.24Z"/><path class="cls-3" d="M479.18,322.88l-.92,1.16c-.44,.55-1.25,.65-1.81,.2s-.65-1.25-.2-1.81l.92-1.16c.44-.55,1.25-.65,1.81-.2s.65,1.25,.2,1.81Z"/><path class="cls-3" d="M475.52,327.47l-.09,.11c-.44,.55-1.25,.65-1.81,.2s-.65-1.25-.2-1.81l.09-.11c.44-.56,1.25-.65,1.81-.2s.65,1.25,.2,1.81Z"/></g></g><g><g><path class="cls-1" d="M181.92,134.39c1.12-2.03,2.69-3.62,4.7-4.76s4.29-1.7,6.84-1.7c3.12,0,5.79,.82,8.02,2.47,2.22,1.65,3.71,3.9,4.46,6.74h-7.04c-.52-1.1-1.27-1.93-2.23-2.51-.96-.57-2.05-.86-3.28-.86-1.97,0-3.57,.69-4.79,2.06-1.22,1.37-1.83,3.21-1.83,5.51s.61,4.13,1.83,5.51c1.22,1.37,2.82,2.06,4.79,2.06,1.22,0,2.32-.29,3.28-.86,.96-.57,1.7-1.41,2.23-2.51h7.04c-.75,2.85-2.23,5.09-4.46,6.72-2.22,1.64-4.89,2.45-8.02,2.45-2.55,0-4.83-.57-6.84-1.7-2.01-1.14-3.58-2.72-4.7-4.74s-1.69-4.33-1.69-6.93,.56-4.91,1.69-6.95Z"/><path class="cls-1" d="M213.85,153.51c-1.64-.87-2.92-2.12-3.86-3.75-.94-1.62-1.4-3.52-1.4-5.69s.47-4.04,1.42-5.67c.95-1.64,2.25-2.89,3.9-3.76s3.5-1.31,5.54-1.31,3.9,.44,5.54,1.31,2.95,2.13,3.9,3.76c.95,1.64,1.42,3.53,1.42,5.67s-.48,4.04-1.44,5.67c-.96,1.64-2.27,2.89-3.93,3.76-1.66,.87-3.51,1.31-5.56,1.31s-3.89-.44-5.52-1.31Zm8.65-5.58c.86-.9,1.29-2.18,1.29-3.86s-.42-2.96-1.25-3.86c-.84-.9-1.87-1.35-3.09-1.35s-2.28,.44-3.11,1.33c-.82,.89-1.24,2.18-1.24,3.88s.41,2.96,1.22,3.86c.81,.9,1.83,1.35,3.05,1.35s2.27-.45,3.13-1.35Z"/><path class="cls-1" d="M252.31,135.78c1.46,1.59,2.19,3.76,2.19,6.54v12.21h-6.37v-11.35c0-1.4-.36-2.48-1.09-3.26-.72-.77-1.7-1.16-2.92-1.16s-2.2,.39-2.92,1.16c-.72,.77-1.09,1.86-1.09,3.26v11.35h-6.4v-20.9h6.4v2.77c.65-.92,1.52-1.65,2.62-2.19,1.1-.54,2.33-.81,3.71-.81,2.45,0,4.4,.79,5.86,2.38Z"/><path class="cls-1" d="M270.61,149.09v5.43h-3.26c-2.32,0-4.13-.57-5.43-1.7-1.3-1.14-1.95-2.99-1.95-5.56v-8.31h-2.55v-5.32h2.55v-5.09h6.4v5.09h4.19v5.32h-4.19v8.39c0,.62,.15,1.07,.45,1.35,.3,.27,.8,.41,1.5,.41h2.28Z"/><path class="cls-1" d="M293.76,145.61h-14.49c.1,1.3,.52,2.29,1.25,2.98,.74,.69,1.64,1.03,2.72,1.03,1.6,0,2.71-.67,3.33-2.02h6.82c-.35,1.37-.98,2.61-1.89,3.71-.91,1.1-2.05,1.96-3.43,2.58-1.37,.62-2.91,.94-4.61,.94-2.05,0-3.87-.44-5.47-1.31-1.6-.87-2.85-2.12-3.75-3.75-.9-1.62-1.35-3.52-1.35-5.69s.44-4.07,1.33-5.69c.89-1.62,2.13-2.87,3.73-3.75,1.6-.87,3.43-1.31,5.51-1.31s3.82,.42,5.39,1.27c1.57,.85,2.8,2.06,3.69,3.63,.89,1.57,1.33,3.41,1.33,5.51,0,.6-.04,1.22-.11,1.87Zm-6.44-3.56c0-1.1-.37-1.97-1.12-2.62-.75-.65-1.69-.97-2.81-.97s-1.98,.31-2.72,.94c-.74,.62-1.19,1.51-1.37,2.66h8.02Z"/><path class="cls-1" d="M309.6,154.52l-4.01-5.81-3.37,5.81h-6.93l6.89-10.67-7.08-10.22h7.19l4.01,5.77,3.37-5.77h6.93l-7,10.52,7.19,10.37h-7.19Z"/><path class="cls-1" d="M330.91,149.09v5.43h-3.26c-2.32,0-4.13-.57-5.43-1.7-1.3-1.14-1.95-2.99-1.95-5.56v-8.31h-2.55v-5.32h2.55v-5.09h6.4v5.09h4.19v5.32h-4.19v8.39c0,.62,.15,1.07,.45,1.35,.3,.27,.8,.41,1.5,.41h2.28Z"/><path class="cls-1" d="M338.46,153.51c-1.64-.87-2.92-2.12-3.86-3.75-.94-1.62-1.4-3.52-1.4-5.69s.47-4.04,1.42-5.67c.95-1.64,2.25-2.89,3.9-3.76s3.5-1.31,5.54-1.31,3.9,.44,5.54,1.31,2.95,2.13,3.9,3.76c.95,1.64,1.42,3.53,1.42,5.67s-.48,4.04-1.44,5.67c-.96,1.64-2.27,2.89-3.93,3.76-1.66,.87-3.51,1.31-5.56,1.31s-3.89-.44-5.52-1.31Zm8.65-5.58c.86-.9,1.29-2.18,1.29-3.86s-.42-2.96-1.25-3.86c-.84-.9-1.87-1.35-3.09-1.35s-2.28,.44-3.11,1.33c-.82,.89-1.24,2.18-1.24,3.88s.41,2.96,1.22,3.86c.81,.9,1.83,1.35,3.05,1.35s2.27-.45,3.13-1.35Z"/></g><g><path class="cls-1" d="M226.61,169.64v38.18h-10.62v-21.07l-7.2,21.07h-8.88l-7.26-21.23v21.23h-10.62v-38.18h12.84l9.59,24.81,9.37-24.81h12.78Z"/><path class="cls-1" d="M232.65,184.37c1.14-2.35,2.69-4.15,4.66-5.42,1.97-1.26,4.16-1.9,6.58-1.9,2.09,0,3.9,.42,5.42,1.25,1.52,.83,2.69,1.95,3.52,3.36v-4.22h10.62v30.38h-10.62v-4.22c-.83,1.41-2.01,2.53-3.55,3.36-1.54,.83-3.33,1.25-5.39,1.25-2.42,0-4.61-.63-6.58-1.9-1.97-1.26-3.52-3.08-4.66-5.44-1.14-2.36-1.71-5.12-1.71-8.26s.57-5.88,1.71-8.23Zm18.58,3.63c-1.07-1.12-2.37-1.68-3.93-1.68s-2.91,.55-3.95,1.65c-1.05,1.1-1.57,2.65-1.57,4.63s.52,3.49,1.57,4.63c1.05,1.14,2.36,1.71,3.95,1.71s2.86-.56,3.93-1.68c1.06-1.12,1.6-2.67,1.6-4.66s-.53-3.48-1.6-4.6Z"/><path class="cls-1" d="M269.72,184.37c1.3-2.35,3.11-4.15,5.44-5.42,2.33-1.26,4.99-1.9,7.99-1.9,3.86,0,7.11,1.06,9.75,3.17,2.64,2.11,4.33,5.06,5.09,8.86h-11.27c-.65-1.99-1.91-2.98-3.79-2.98-1.34,0-2.39,.55-3.17,1.65-.78,1.1-1.16,2.72-1.16,4.85s.39,3.76,1.16,4.87c.78,1.12,1.83,1.68,3.17,1.68,1.91,0,3.18-.99,3.79-2.98h11.27c-.76,3.76-2.46,6.7-5.09,8.83-2.64,2.13-5.89,3.2-9.75,3.2-3,0-5.66-.63-7.99-1.9-2.33-1.26-4.14-3.07-5.44-5.42-1.3-2.35-1.95-5.11-1.95-8.29s.65-5.88,1.95-8.23Z"/><path class="cls-1" d="M317.33,178.68c1.7-1.01,3.52-1.52,5.47-1.52v11.32h-2.98c-2.31,0-4.03,.45-5.15,1.35-1.12,.9-1.68,2.47-1.68,4.71v13.27h-10.62v-30.38h10.62v5.36c1.19-1.73,2.64-3.1,4.33-4.12Z"/><path class="cls-1" d="M332.57,206.31c-2.4-1.26-4.29-3.07-5.66-5.42-1.37-2.35-2.06-5.11-2.06-8.29s.69-5.88,2.09-8.23c1.39-2.35,3.29-4.15,5.69-5.42,2.4-1.26,5.12-1.9,8.15-1.9s5.75,.63,8.15,1.9c2.4,1.26,4.3,3.07,5.69,5.42,1.39,2.35,2.08,5.09,2.08,8.23s-.7,5.9-2.08,8.26c-1.39,2.37-3.3,4.18-5.71,5.44-2.42,1.26-5.15,1.9-8.18,1.9s-5.75-.63-8.15-1.9Zm11.86-8.96c.99-1.1,1.49-2.68,1.49-4.74s-.5-3.63-1.49-4.71c-.99-1.08-2.21-1.62-3.66-1.62s-2.65,.54-3.63,1.62c-.97,1.08-1.46,2.65-1.46,4.71s.47,3.68,1.41,4.77c.94,1.08,2.15,1.62,3.63,1.62s2.72-.55,3.71-1.65Z"/></g></g><g><path class="cls-3" d="M258.5,324.61c-.75,.77-1.96,.82-2.74,.06-.77-.75-.74-1.94,0-2.72h0c.75-.79,1.96-.83,2.73-.08,.77,.75,.75,1.96,0,2.73Z"/><path class="cls-3" d="M250.07,333.53c-.73,.8-1.96,.86-2.76,.13-.8-.73-.86-1.96-.13-2.76,.01-.02,.03-.03,.04-.04,.73-.76,1.94-.8,2.72-.09,.8,.73,.86,1.96,.13,2.76Z"/><path class="cls-3" d="M267.2,315.96c-.78,.75-2.02,.72-2.77-.06-.72-.76-.72-1.96,0-2.71,.02-.02,.04-.04,.06-.06,.78-.75,2.02-.72,2.77,.06,.75,.78,.72,2.02-.07,2.77Z"/><path class="cls-3" d="M276.33,307.74h0c-.9,.63-2.09,.6-2.81-.21-.68-.77-.66-1.94,.04-2.67,.04-.04,.06-.09,.1-.12,.81-.72,2.07-.62,2.79,.19,.72,.81,.62,2.03-.12,2.8Z"/><path class="cls-3" d="M241.99,342.76c-.7,.83-1.93,.93-2.76,.24-.83-.7-.93-1.93-.23-2.76,.03-.03,.06-.07,.09-.1,.71-.74,1.88-.8,2.67-.14,.83,.7,.93,1.93,.23,2.76Z"/><path class="cls-3" d="M445.06,236.73c0,.56-.32,1.06-.83,1.3l-23.58,11.15c-.72,.34-1.58,.03-1.92-.69-.34-.72-.03-1.58,.69-1.92l18.07-8.54c-49.1-.23-104.33,21.94-152.24,61.26-.62,.51-1.52,.42-2.03-.2-.47-.57-.43-1.4,.08-1.91,.04-.04,.08-.08,.12-.11,48.25-39.6,103.92-61.99,153.55-61.92l-17.5-8.36c-.72-.34-1.02-1.2-.68-1.92,.07-.14,.16-.27,.26-.38,.42-.43,1.09-.57,1.66-.3l23.54,11.25c.5,.24,.82,.75,.82,1.3Z"/></g></svg>