<?xml version="1.0" encoding="UTF-8"?><svg id="Layer_1" xmlns="http://www.w3.org/2000/svg" xmlns:xlink="http://www.w3.org/1999/xlink" viewBox="0 0 310 210"><defs><style>.cls-1{fill:url(#_ÂÁ_Ï_ÌÌ_È_____ËÂÌÚ_1826-11);}.cls-2{fill:url(#_ÂÁ_Ï_ÌÌ_È_____ËÂÌÚ_1826-12);}.cls-3{fill:url(#_ÂÁ_Ï_ÌÌ_È_____ËÂÌÚ_1826-10);}.cls-4{fill:#f7b690;}.cls-5{fill:#e6e7fa;}.cls-6{fill:#e3e5fc;}.cls-7{fill:#fff;}.cls-8{fill:#ff457c;}.cls-9{fill:#9c9ce5;}.cls-10{fill:#733cdf;}.cls-11{fill:#aba4fc;}.cls-12{fill:#cac3e3;}.cls-13{fill:#c3c5f2;}.cls-14{fill:#db2a6e;}.cls-15{fill:#433082;}.cls-16{fill:#2d2169;}.cls-17{fill:#582ebf;}.cls-18{fill:#5034a5;}.cls-19{fill:url(#_ÂÁ_Ï_ÌÌ_È_____ËÂÌÚ_1826);}.cls-20{fill:url(#_ÂÁ_Ï_ÌÌ_È_____ËÂÌÚ_1826-7);}.cls-21{fill:url(#_ÂÁ_Ï_ÌÌ_È_____ËÂÌÚ_1826-8);}.cls-22{fill:url(#_ÂÁ_Ï_ÌÌ_È_____ËÂÌÚ_1826-3);}.cls-23{fill:url(#_ÂÁ_Ï_ÌÌ_È_____ËÂÌÚ_1826-6);}.cls-24{fill:url(#_ÂÁ_Ï_ÌÌ_È_____ËÂÌÚ_1826-5);}.cls-25{fill:url(#_ÂÁ_Ï_ÌÌ_È_____ËÂÌÚ_1826-2);}.cls-26{fill:url(#_ÂÁ_Ï_ÌÌ_È_____ËÂÌÚ_1826-4);}.cls-27{fill:url(#_ÂÁ_Ï_ÌÌ_È_____ËÂÌÚ_1826-9);}.cls-28{opacity:.8;}</style><linearGradient id="_ÂÁ_Ï_ÌÌ_È_____ËÂÌÚ_1826" x1="95.33" y1="105.39" x2="173.24" y2="105.39" gradientTransform="matrix(1, 0, 0, 1, 0, 0)" gradientUnits="userSpaceOnUse"><stop offset="0" stop-color="#6800ba"/><stop offset="1" stop-color="#e36ccd"/></linearGradient><linearGradient id="_ÂÁ_Ï_ÌÌ_È_____ËÂÌÚ_1826-2" x1="196.83" y1="76.04" x2="228.79" y2="95.92" xlink:href="#_ÂÁ_Ï_ÌÌ_È_____ËÂÌÚ_1826"/><linearGradient id="_ÂÁ_Ï_ÌÌ_È_____ËÂÌÚ_1826-3" x1="214.97" y1="61.87" x2="221.93" y2="68.69" xlink:href="#_ÂÁ_Ï_ÌÌ_È_____ËÂÌÚ_1826"/><linearGradient id="_ÂÁ_Ï_ÌÌ_È_____ËÂÌÚ_1826-4" x1="179.08" y1="32.75" x2="240.07" y2="32.75" gradientTransform="translate(479.86 65.5) rotate(-180)" xlink:href="#_ÂÁ_Ï_ÌÌ_È_____ËÂÌÚ_1826"/><linearGradient id="_ÂÁ_Ï_ÌÌ_È_____ËÂÌÚ_1826-5" x1="179.08" y1="36.5" x2="240.07" y2="36.5" gradientTransform="translate(452.88 72.99) rotate(-180)" xlink:href="#_ÂÁ_Ï_ÌÌ_È_____ËÂÌÚ_1826"/><linearGradient id="_ÂÁ_Ï_ÌÌ_È_____ËÂÌÚ_1826-6" x1="179.08" y1="38.72" x2="240.08" y2="38.72" gradientTransform="translate(425.91 77.44) rotate(-180)" xlink:href="#_ÂÁ_Ï_ÌÌ_È_____ËÂÌÚ_1826"/><linearGradient id="_ÂÁ_Ï_ÌÌ_È_____ËÂÌÚ_1826-7" x1="179.08" y1="41.73" x2="240.08" y2="41.73" gradientTransform="translate(398.97 83.46) rotate(-180)" xlink:href="#_ÂÁ_Ï_ÌÌ_È_____ËÂÌÚ_1826"/><linearGradient id="_ÂÁ_Ï_ÌÌ_È_____ËÂÌÚ_1826-8" x1="179.08" y1="44.04" x2="240.07" y2="44.04" gradientTransform="translate(372 88.09) rotate(-180)" xlink:href="#_ÂÁ_Ï_ÌÌ_È_____ËÂÌÚ_1826"/><linearGradient id="_ÂÁ_Ï_ÌÌ_È_____ËÂÌÚ_1826-9" x1="16.56" y1="51.7" x2="52.02" y2="67.43" xlink:href="#_ÂÁ_Ï_ÌÌ_È_____ËÂÌÚ_1826"/><linearGradient id="_ÂÁ_Ï_ÌÌ_È_____ËÂÌÚ_1826-10" x1="20.73" y1="45.41" x2="55.2" y2="60.71" xlink:href="#_ÂÁ_Ï_ÌÌ_È_____ËÂÌÚ_1826"/><linearGradient id="_ÂÁ_Ï_ÌÌ_È_____ËÂÌÚ_1826-11" x1="23.81" y1="41.07" x2="58.05" y2="56.26" xlink:href="#_ÂÁ_Ï_ÌÌ_È_____ËÂÌÚ_1826"/><linearGradient id="_ÂÁ_Ï_ÌÌ_È_____ËÂÌÚ_1826-12" x1="24.25" y1="41.61" x2="58.85" y2="56.97" xlink:href="#_ÂÁ_Ï_ÌÌ_È_____ËÂÌÚ_1826"/></defs><g><path class="cls-6" d="M291.13,185.36c0,10.11-61.11,10.97-137.84,10.97s-132.39-.4-132.39-9.06,56.02-9.87,132.76-9.87,137.48-.69,137.48,7.96Z"/><g><g class="cls-28"><path class="cls-13" d="M174.09,31.43v30.55c0,3.97-3.25,7.21-7.2,7.21H100.4c-3.95,0-7.2-3.25-7.2-7.21V31.43c0-3.97,3.25-7.21,7.2-7.21h66.49c3.95,0,7.2,3.25,7.2,7.21Z"/></g><g><rect class="cls-9" x="125.64" y="63.85" width="2.72" height="2.72"/><rect class="cls-7" x="129.99" y="64.95" width="14.58" height=".53"/><g><path class="cls-7" d="M98.49,29.73v31.6h70.32V29.73H98.49Zm69.79,5.2h-6.17v-4.68h6.17v4.68Zm-34.74,10.41h-6.48v-4.68h6.48v4.68Zm.53-4.68h6.48v4.68h-6.48v-4.68Zm-7.54,4.68h-6.48v-4.68h6.48v4.68Zm0,.53v4.68h-6.48v-4.68h6.48Zm.53,0h6.48v4.68h-6.48v-4.68Zm7.01,0h6.48v4.68h-6.48v-4.68Zm7.01,0h6.48v4.68h-6.48v-4.68Zm0-.53v-4.68h6.48v4.68h-6.48Zm7.01-4.68h6.48v4.68h-6.48v-4.68Zm0-.53v-4.68h6.48v4.68h-6.48Zm-.53,0h-6.48v-4.68h6.48v4.68Zm-7.01,0h-6.48v-4.68h6.48v4.68Zm-7.01,0h-6.48v-4.68h6.48v4.68Zm-7.01,0h-6.48v-4.68h6.48v4.68Zm-7.01,0h-6.48v-4.68h6.48v4.68Zm0,.53v4.68h-6.48v-4.68h6.48Zm-7.01,4.68h-6.48v-4.68h6.48v4.68Zm0,.53v4.68h-6.48v-4.68h6.48Zm.53,0h6.48v4.68h-6.48v-4.68Zm6.48,5.2v4.68h-6.48v-4.68h6.48Zm.53,0h6.48v4.68h-6.48v-4.68Zm7.01,0h6.48v4.68h-6.48v-4.68Zm7.01,0h6.48v4.68h-6.48v-4.68Zm7.01,0h6.48v4.68h-6.48v-4.68Zm7.01,0h6.48v4.68h-6.48v-4.68Zm0-.53v-4.68h6.48v4.68h-6.48Zm7.01-4.68h6.48v4.68h-6.48v-4.68Zm0-.53v-4.68h6.48v4.68h-6.48Zm0-5.21v-4.68h6.48v4.68h-6.48Zm0-5.2v-4.68h6.48v4.68h-6.48Zm-.53,0h-6.48v-4.68h6.48v4.68Zm-7.01,0h-6.48v-4.68h6.48v4.68Zm-7.01,0h-6.48v-4.68h6.48v4.68Zm-7.01,0h-6.48v-4.68h6.48v4.68Zm-7.01,0h-6.48v-4.68h6.48v4.68Zm-7.01,0h-6.48v-4.68h6.48v4.68Zm-7.01,0h-6.48v-4.68h6.48v4.68Zm0,.53v4.68h-6.48v-4.68h6.48Zm-7.01,4.68h-6.48v-4.68h6.48v4.68Zm0,.53v4.68h-6.48v-4.68h6.48Zm0,5.21v4.68h-6.48v-4.68h6.48Zm0,5.2v4.68h-6.48v-4.68h6.48Zm.53,0h6.48v4.68h-6.48v-4.68Zm6.48,5.2v4.52h-6.48v-4.52h6.48Zm.53,0h6.48v4.52h-6.48v-4.52Zm7.01,0h6.48v4.52h-6.48v-4.52Zm7.01,0h6.48v4.52h-6.48v-4.52Zm7.01,0h6.48v4.52h-6.48v-4.52Zm7.01,0h6.48v4.52h-6.48v-4.52Zm7.01,0h6.48v4.52h-6.48v-4.52Zm7.01,0h6.48v4.52h-6.48v-4.52Zm0-.53v-4.68h6.48v4.68h-6.48Zm7.01-4.68h6.17v4.68h-6.17v-4.68Zm0-.53v-4.68h6.17v4.68h-6.17Zm0-5.2v-4.68h6.17v4.68h-6.17Zm0-5.21v-4.68h6.17v4.68h-6.17Zm-56.61-9.88v4.68h-6.48v-4.68h6.48Zm-6.48,26.02h6.48v4.52h-6.48v-4.52Zm63.09,4.52v-4.52h6.17v4.52h-6.17Z"/><g><rect class="cls-9" x="100.69" y="37.81" width="1.12" height="22.99"/><rect class="cls-9" x="102.92" y="42.65" width="1.12" height="18.15"/><rect class="cls-9" x="107.39" y="48.42" width="1.12" height="12.38"/><rect class="cls-9" x="109.63" y="53.35" width="1.12" height="7.45"/><rect class="cls-9" x="142.58" y="52.79" width="1.12" height="8.01"/><rect class="cls-9" x="144.81" y="42.65" width="1.12" height="18.15"/><rect class="cls-9" x="149.28" y="48.42" width="1.12" height="12.38"/><rect class="cls-9" x="151.52" y="58.37" width="1.12" height="2.43"/><rect class="cls-9" x="135.32" y="40.88" width="1.12" height="19.92"/><rect class="cls-9" x="137.55" y="36.78" width="1.12" height="24.02"/><rect class="cls-9" x="114.09" y="57.07" width="1.12" height="3.73"/><rect class="cls-9" x="116.33" y="42.27" width="1.12" height="18.53"/><rect class="cls-9" x="121.36" y="53.35" width="1.12" height="7.45"/><rect class="cls-9" x="123.59" y="38.65" width="1.12" height="22.16"/><rect class="cls-9" x="128.34" y="44.04" width="1.12" height="16.76"/><rect class="cls-9" x="130.57" y="48.42" width="1.12" height="12.38"/><rect class="cls-9" x="156.54" y="56.8" width="1.12" height="4.01"/><rect class="cls-9" x="158.78" y="39.39" width="1.12" height="21.41"/><rect class="cls-9" x="163.24" y="37.62" width="1.12" height="23.18"/><rect class="cls-9" x="165.48" y="32.13" width="1.12" height="28.67"/></g></g><rect class="cls-9" x="100.86" y="63.85" width="2.72" height="2.72"/><rect class="cls-7" x="105.2" y="64.95" width="14.59" height=".53"/></g></g><g><path class="cls-13" d="M244.35,110.04v34.81c0,2.98-2.42,5.4-5.4,5.4h-53.68c-2.29,0-4.18-1.89-4.18-4.19v-34.79c0-.23,.02-.45,.05-.66,.33-2.67,2.62-4.74,5.35-4.74h53.68c2.3,0,4.18,1.89,4.18,4.18Z"/><g><rect class="cls-7" x="187.71" y="137.21" width="23.74" height=".71"/><rect class="cls-7" x="187.71" y="140.52" width="23.74" height=".71"/><rect class="cls-7" x="187.71" y="143.84" width="23.74" height=".71"/></g><g><path class="cls-7" d="M187.35,111.57v21.24h50.72v-21.24h-50.72Zm50.02,5.24h-5.51v-4.53h5.51v4.53Zm-24.99,5.24h-5.55v-4.53h5.55v4.53Zm.71-4.53h5.55v4.53h-5.55v-4.53Zm-6.96,4.53h-5.55v-4.53h5.55v4.53Zm0,.71v4.53h-5.55v-4.53h5.55Zm.71,0h5.55v4.53h-5.55v-4.53Zm6.26,0h5.55v4.53h-5.55v-4.53Zm6.26,0h5.55v4.53h-5.55v-4.53Zm0-.71v-4.53h5.55v4.53h-5.55Zm6.26-4.53h5.55v4.53h-5.55v-4.53Zm0-.71v-4.53h5.55v4.53h-5.55Zm-.71,0h-5.55v-4.53h5.55v4.53Zm-6.26,0h-5.55v-4.53h5.55v4.53Zm-6.26,0h-5.55v-4.53h5.55v4.53Zm-6.26,0h-5.55v-4.53h5.55v4.53Zm-6.26,0h-5.55v-4.53h5.55v4.53Zm0,.71v4.53h-5.55v-4.53h5.55Zm-6.26,4.53h-5.55v-4.53h5.55v4.53Zm0,.71v4.53h-5.55v-4.53h5.55Zm.71,0h5.55v4.53h-5.55v-4.53Zm5.55,5.24v4.12h-5.55v-4.12h5.55Zm.71,0h5.55v4.12h-5.55v-4.12Zm6.26,0h5.55v4.12h-5.55v-4.12Zm6.26,0h5.55v4.12h-5.55v-4.12Zm6.26,0h5.55v4.12h-5.55v-4.12Zm6.26,0h5.55v4.12h-5.55v-4.12Zm0-.71v-4.53h5.55v4.53h-5.55Zm6.26-4.53h5.51v4.53h-5.51v-4.53Zm0-.71v-4.53h5.51v4.53h-5.51Zm-38.25-9.77v4.53h-5.55v-4.53h5.55Zm-5.55,15.71h5.55v4.12h-5.55v-4.12Zm43.8,4.12v-4.12h5.51v4.12h-5.51Z"/><path class="cls-9" d="M233.51,115.44c-1.19,.26-2.38,.53-3.57,.79,.49,.57,.75,.86,.94,1.07l-5.68,4.49-5.98-4.85c-.13-.1-.32-.1-.45,0l-12.23,10.24-6.09-5.06c-.13-.11-.32-.11-.45,0l-10.01,8.26c-.15,.12-.17,.35-.05,.5,.07,.08,.17,.13,.27,.13,.08,0,.16-.03,.22-.08l9.79-8.07,6.1,5.07c.13,.11,.32,.11,.45,0l12.23-10.24,5.97,4.85c.13,.1,.31,.11,.44,0l5.93-4.69,.91,1.04,1.26-3.43Z"/></g><g><rect class="cls-7" x="215.88" y="137.21" width="21.84" height=".71"/><rect class="cls-7" x="215.88" y="140.52" width="21.84" height=".71"/><rect class="cls-7" x="215.88" y="143.84" width="21.84" height=".71"/></g></g><g><polygon class="cls-5" points="165.36 121.85 165.36 83.44 164.3 83.44 164.3 121.85 155.16 121.85 155.16 83.44 154.1 83.44 154.1 121.85 144.96 121.85 144.96 83.44 143.9 83.44 143.9 121.85 134.76 121.85 134.76 83.44 133.7 83.44 133.7 121.85 124.56 121.85 124.56 83.44 123.51 83.44 123.51 121.85 114.37 121.85 114.37 83.44 113.31 83.44 113.31 121.85 104.17 121.85 104.17 83.44 103.11 83.44 103.11 121.85 93.97 121.85 93.97 83.44 92.91 83.44 92.91 122.91 174.38 122.91 174.38 121.85 165.36 121.85"/><path class="cls-19" d="M109.42,113.59c-.9,0-1.63-.14-1.99-.2-1.72-.32-2.69-.96-3.63-1.58-.86-.57-1.68-1.11-3.07-1.32-1.07-.17-2.76-.25-5.09,.87l-.31-.64c2.51-1.21,4.35-1.11,5.51-.93,1.54,.24,2.46,.84,3.35,1.43,.88,.58,1.78,1.18,3.36,1.47,.56,.1,2.02,.38,3.59,0,2.34-.57,3.6-2.3,4.93-4.13,1.41-1.93,2.86-3.93,5.7-4.95,1.62-.58,2.98-.57,3.54-.57,3.77,.01,5.89,1.99,7.76,3.73,1.46,1.36,2.71,2.53,4.48,2.53,2.55-.01,4.41-2.49,6.38-5.11,2.41-3.21,5.13-6.85,9.76-6.98,.67-.02,1.34,.04,1.97,.17,3.5,.71,5.29,3.63,7.03,6.46,1.59,2.59,3.24,5.27,6.21,6.24,1.27,.41,2.69,.47,4.23,.19l.13,.69c-1.65,.31-3.2,.24-4.57-.21-3.21-1.04-4.93-3.84-6.59-6.54-1.73-2.82-3.37-5.49-6.57-6.14-.57-.12-1.2-.17-1.81-.15-4.28,.13-6.79,3.47-9.21,6.7-2.07,2.77-4.03,5.38-6.92,5.4-2.07,0-3.49-1.32-4.99-2.72-1.77-1.65-3.79-3.52-7.28-3.54-.54,0-1.79,0-3.3,.53-2.64,.94-4.03,2.85-5.37,4.7-1.41,1.94-2.74,3.76-5.33,4.4-.67,.16-1.31,.22-1.89,.22Z"/></g><g><rect class="cls-6" x="181.46" y="53.73" width="63.26" height="44.38" rx="3.56" ry="3.56"/><path class="cls-11" d="M241.31,94.03h-56.23c-.11-.41-.7-2.85,.78-4.91,1.37-1.91,3.64-2.26,4.33-2.33,2.09-.21,2.72,.82,4.67,.33,1-.25,1.71-.78,2.78-1.56,1.53-1.11,1.63-1.64,2.85-2.33,.15-.08,1.39-.78,2.98-.96,2.43-.28,3.47,.83,5.06,1.07,3.34,.5,4.2-4.69,9.92-7.38,1.45-.68,6.15-2.89,11.54-1.94,2.33,.41,3.7,1.23,5.97,.76,2.49-.52,4.25-2.2,5.35-3.55v22.8Z"/><path class="cls-25" d="M241.31,94.03h-56.33v-1.03c.62-1.14,1.7-2.67,3.45-3.22,2.12-.66,3.34,.7,6.12,.89,3.32,.22,3.91-1.56,8.09-2.49,4.68-1.04,5.37,.89,9.65,.11,5.17-.94,4.74-3.86,9.87-5.29,5.67-1.57,8.23,1.45,13.47-.56,2.72-1.04,4.57-2.83,5.68-4.11v15.69Z"/><rect class="cls-7" x="220.87" y="58.54" width="20.38" height="1.07"/><rect class="cls-7" x="220.87" y="64.22" width="20.38" height="1.07"/><rect class="cls-7" x="185.02" y="57.45" width="13.48" height="1.07"/><rect class="cls-7" x="185.02" y="61" width="13.48" height="1.07"/><rect class="cls-7" x="185.02" y="64.56" width="13.48" height="1.07"/><rect class="cls-11" x="216.29" y="57.45" width="3.25" height="3.25"/><rect class="cls-22" x="216.29" y="63.13" width="3.25" height="3.25"/></g><g><rect class="cls-26" x="236.02" y="16" width="7.81" height="33.5" transform="translate(479.86 65.5) rotate(180)"/><rect class="cls-24" x="222.54" y="23.49" width="7.81" height="26.01" transform="translate(452.88 72.99) rotate(180)"/><rect class="cls-23" x="209.05" y="27.94" width="7.81" height="21.56" transform="translate(425.91 77.44) rotate(180)"/><rect class="cls-20" x="195.58" y="33.96" width="7.81" height="15.54" transform="translate(398.97 83.46) rotate(180)"/><rect class="cls-21" x="182.09" y="38.59" width="7.81" height="10.91" transform="translate(372 88.09) rotate(180)"/></g><g><rect class="cls-9" x="18.63" y="29.13" width="57.39" height="34.67" rx="5.26" ry="5.26"/><g><rect class="cls-7" x="24.86" y="33.02" width="2.24" height="26.95"/><rect class="cls-7" x="32.15" y="33.02" width="2.24" height="26.95"/><rect class="cls-7" x="39.44" y="33.02" width="2.24" height="26.95"/><rect class="cls-7" x="46.74" y="33.02" width="2.24" height="26.95"/><g><rect class="cls-27" x="24.86" y="51.78" width="2.24" height="8.2"/><rect class="cls-3" x="32.15" y="41.99" width="2.24" height="17.99"/><rect class="cls-1" x="39.44" y="37.04" width="2.24" height="22.93"/><rect class="cls-2" x="46.74" y="44.21" width="2.24" height="15.76"/></g><g><rect class="cls-7" x="55.01" y="39.34" width="10.27" height=".99"/><rect class="cls-7" x="55.01" y="42.65" width="15.37" height=".99"/><rect class="cls-7" x="55.01" y="45.97" width="15.37" height=".99"/><rect class="cls-7" x="55.01" y="49.28" width="15.37" height=".99"/><rect class="cls-7" x="55.01" y="52.6" width="15.37" height=".99"/></g></g></g><g><g><path class="cls-4" d="M266.13,181.99v6.4c0,.18-.15,.34-.34,.34h-9.57c-.16,0-.3-.11-.32-.27-.04-.16,.03-.31,.17-.38,1.03-.49,1.95-.89,2.73-1.21,.51-.21,.96-.38,1.34-.52,1.07-.41,1.81-.64,2.19-1.36,.24-.45,.21-.83,.14-2.23-.01-.21-.03-.47-.04-.76h3.71Z"/><path class="cls-16" d="M266.13,186.86v1.53c0,.18-.15,.34-.34,.34h-9.57c-.16,0-.3-.11-.32-.27-.04-.16,.03-.31,.17-.38,1.03-.49,1.95-.89,2.73-1.21h7.34Z"/></g><g><path class="cls-4" d="M282.15,181.88v6.51c0,.18-.15,.34-.34,.34h-9.57c-.17,0-.3-.11-.34-.27-.04-.16,.04-.31,.18-.38,1.02-.49,1.93-.89,2.71-1.21,.51-.21,.94-.38,1.34-.52,1.07-.41,1.81-.64,2.2-1.36,.24-.45,.2-.83,.13-2.23-.01-.24-.03-.54-.04-.88h3.73Z"/><path class="cls-16" d="M282.15,186.86v1.53c0,.18-.15,.34-.34,.34h-9.57c-.17,0-.3-.11-.34-.27-.04-.16,.04-.31,.18-.38,1.02-.49,1.93-.89,2.71-1.21h7.36Z"/></g><path class="cls-4" d="M248.14,91.7c-.57,.82-1.14,1.62-1.71,2.44-.25-.21-.54-.49-.82-.82-.35-.42-.4-.58-.69-.96-.79-.99-1.2-.9-1.84-1.64-.73-.86-1.21-2.22-.73-2.85,.13-.16,.4-.35,.62-.31,.47,.11,.37,1.14,1.03,1.51,.27,.14,.54,.13,.72,.1v-4.72c1,1.1,1.47,2.12,1.72,2.85,.45,1.34,.32,2.26,1.06,3.52,.2,.34,.42,.64,.64,.88Z"/><path class="cls-17" d="M264.16,96.58c-.49,2.33-.9,4.84-1.31,7.43-2.51,0-5.92-.47-9.36-2.4-4.14-2.32-6.31-5.58-7.24-7.17,.07-.1,2.12-3.02,2.22-3.18,1.21,1.23,5.35,5.08,11.69,5.52,1.48,.1,2.84,0,4.01-.2Z"/><path class="cls-16" d="M283.26,151.1c-.06,10.49-.24,20.76-.55,30.78h-4.93c-1.65-9.32-3.19-18.99-4.59-28.99-1.38-9.84-2.53-19.43-3.5-28.72,0,0,10.86,0,13.43,.01,.14,8.8,.2,17.78,.14,26.91Z"/><path class="cls-15" d="M275.37,124.17c-2.89,19.29-5.78,38.55-8.67,57.82h-5.03c-.51-9.25-.83-18.95-.92-29.06-.07-10.1,.12-19.8,.49-29.05-.01,.11,0,.2,0,.27,4.7,.01,9.42,.01,14.13,.01Z"/><path class="cls-4" d="M244.43,99.67c-.49,.75-.99,1.5-1.48,2.26-1.55-.85-1.54-.83-1.61-.88-3.02-1.26-4.58-.17-7.07-1.41-1.02-.51-1.74-1.14-2.15-1.55,2.32,0,4.65,0,6.95,.01,0-.03,.03-.08,.03-.11-.04-.82-1.58-1.31-1.47-2.25,0-.06,.01-.31,.2-.45,.31-.2,.79,.07,1.21,.31,.59,.37,1.09,.62,1.48,.89,.4,.24,.62,.42,.92,.71,.52,.49,.83,.93,.9,1.04,.38,.51,1.16,.99,2.09,1.43Z"/><path class="cls-10" d="M283.12,124.18c-2.58,0-17.18-.01-21.89-.03,0-.07,0-.16,0-.27,.07-2.06,.47-11.42,1.19-16.99-1.67,.42-3.47,.66-5.42,.65-7.53-.08-12.67-4.08-14.22-5.39,.06-.07,.1-.16,.16-.23,.49-.76,1.64-2.49,1.71-2.6,1.78,.73,3.29,1.19,4.35,1.45,5.92,1.53,10.89,1.04,12.75-.31,.07-.07,.54-.4,1.12-.85,.27-.21,.55-.45,.83-.68,.14-.8,.3-1.61,.45-2.37,1.26-6.03,3.06-10.73,6.47-11.88,.27-.08,1.71-.55,3.32,0,3.45,1.2,4.82,6.18,5.76,10.27,1.3,5.61,2.77,12.91,3.29,25.49,.07,1.57,.1,2.87,.13,3.73Z"/><path class="cls-18" d="M262.25,106.66c-.08,0-.15-.05-.17-.13-.02-.09,.03-.19,.13-.22,2.36-.63,4.62-1.56,6.73-2.78,2.1-1.21,4.04-2.7,5.76-4.43,.07-.07,.18-.07,.25,0,.07,.07,.07,.18,0,.25-1.75,1.74-3.71,3.25-5.84,4.48-2.14,1.23-4.43,2.18-6.82,2.82-.02,0-.03,0-.05,0Z"/><path class="cls-18" d="M264.75,98.25s-.09-.02-.12-.05c-.07-.07-.07-.18,0-.25l6.35-6.51c.07-.07,.18-.07,.25,0,.07,.07,.07,.18,0,.25l-6.35,6.51s-.08,.05-.13,.05Z"/><path class="cls-4" d="M275.38,75.72c-.37,.58-1.17,.82-1.93,.54-1.38,1.77-2.33,2.09-2.98,1.98-1.04-.18-1.45-1.48-2.91-1.74-.66-.11-1.24,.04-1.64,.18-.01,.06-.01,.13-.03,.2,.04-1.16,.13-2.81,.37-4.76,.16-1.23,.27-2.08,.38-2.67,2.06,.99,5-1.31,6.52-.1,.65,.51,1.13,1.75,.38,4.86,.49-.52,1.26-.58,1.72-.18,.54,.44,.41,1.24,.11,1.69Z"/><path class="cls-4" d="M274.73,82.54c-.08,.99-.13,1.79-.16,2.41-.35,.18-1.21,.56-2.33,.47-.9-.08-1.57-.42-1.91-.64l.04-.3c1.6-.17,3.25-.8,4.35-1.95Z"/><path class="cls-16" d="M276.62,77.8c-.54,2.4-.85,3.66-1.89,4.74-1.1,1.14-2.75,1.78-4.35,1.95-1.81,.18-3.52-.24-4.22-1.23-.51-.69-.49-1.72-.47-3.77,0-1.06,.1-1.95,.2-2.6,.01-.08,.01-.16,.03-.21,.4-.14,.97-.3,1.64-.18,1.45,.25,1.86,1.55,2.91,1.74,.65,.11,1.6-.21,2.98-1.98,.76,.28,1.57,.04,1.93-.54,.3-.45,.42-1.26-.11-1.69-.47-.4-1.23-.34-1.72,.18,.75-3.11,.27-4.35-.38-4.86-1.52-1.21-4.46,1.09-6.52,.1-.13-.07-.25-.14-.38-.24-.93-.69-1.4-2.06-1-2.87,.85-1.69,5.55-.68,6.18-.54,1.76,.38,3.57,.78,4.67,2.34,.72,1,.79,2.08,.93,4.24,.16,2.49-.2,4.43-.42,5.41Z"/></g><g><path class="cls-9" d="M86.53,150.8h1.08c.58,0,1.06-.48,1.06-1.06v-.37c0-.58-.48-1.06-1.06-1.06h-31.72c-.58,0-1.06,.48-1.06,1.06v.37c0,.58,.48,1.06,1.06,1.06h2.51l-4.63,36.19c-.04,.28,.16,.55,.44,.59,.29,.05,.56-.15,.61-.44l5.7-36.22s0-.08,0-.12h23.9c0,.05-.01,.1,0,.15l5.7,36.19c.04,.28,.31,.48,.59,.44,.29-.04,.5-.3,.46-.59l-4.63-36.19Z"/><g><g><path class="cls-4" d="M83.92,187.36s0,.04,0,.09c-.03,.11-.19,.23-.43,.31h-10.02s-.47,.1-.78-.23c-.25-.28-.22-.63-.2-.68,.79-2.01,1.58-4.02,2.39-6.03h3.8c-.27,.54-.56,1.16-.85,1.85-.42,1.04-.4,1.27-.31,1.43,.21,.51,.69,.87,3.16,1.71,0,0,1.17,.35,3.09,1.32,.01,.01,.05,.03,.08,.06,.04,.06,.07,.11,.07,.18Z"/><path class="cls-16" d="M72.48,186.85s-.06,.4,.2,.68c.31,.33,.76,.23,.78,.23h10.02c.24-.08,.41-.2,.43-.31,.01-.04,0-.09,0-.09,0-.07-.03-.13-.07-.18-.03-.03-.06-.05-.08-.06-1.92-.97-3.09-1.32-3.09-1.32-.78-.26-1.35-.48-1.79-.66h-5.73c-.22,.57-.45,1.14-.67,1.71Z"/></g><g><path class="cls-4" d="M116.25,187.52c-.03,.13-.14,.23-.28,.23h-9.11c-.21,.01-.5-.01-.74-.18-.3-.2-.4-.51-.43-.62-.17-.51-1-2.76-2.2-6h3.9c.75,1.74,1.12,2.61,1.54,3.05,1.03,1.12,1.92,.92,5.44,2.43,.75,.31,1.34,.59,1.72,.78,.11,.06,.19,.18,.16,.33Z"/><path class="cls-16" d="M105.7,186.95c.03,.1,.13,.42,.43,.62,.25,.17,.53,.19,.74,.18h9.11c.14,0,.25-.09,.28-.23,.03-.13-.04-.27-.16-.33-.37-.18-.97-.46-1.72-.78-1.62-.69-2.66-1.02-3.44-1.29h-5.89c.34,.94,.58,1.57,.66,1.81Z"/></g><path class="cls-4" d="M70.91,98.76c-.66,.65-1.52,.89-1.52,.89-.72,.24-1.34,.21-1.72,.17,.07,.75,.14,1.48,.2,2.23-.41,.27-1.31,.73-2.51,.75-.75,0-1.34-.17-1.74-.32-.08-.92-.14-1.47-.2-1.85,.01,.01,.06,.01,.06,.01,.17,.01,.31,.01,.41,0,.35,.08,.58,.03,.72-.06,.69-.41,.69-2.03-.01-4.07-.03,.03-.66,.54-1.41,.3-.07-.03-.61-.23-.83-.79-.21-.56-.01-1.24,.4-1.5,.54-.32,1.12,.23,1.38,0,.55-.48-1.81-3.06-1.1-4.28,.38-.62,1.28-.35,3.81-.75,1.62-.25,2.77-.44,3.54-.82,2.05,3.6,1.86,8.74,.54,10.08Z"/><path class="cls-16" d="M71.29,87.89c-.23,.34-.52,.59-.92,.79-.78,.38-1.92,.56-3.54,.82-2.53,.4-3.43,.13-3.81,.75-.71,1.21,1.65,3.8,1.1,4.28-.27,.23-.85-.32-1.38,0-.41,.25-.61,.93-.4,1.5,.23,.56,.76,.76,.83,.79,.75,.24,1.38-.27,1.41-.3,.88,1.94,.77,3.6,.01,4.07-.15,.09-.5,.25-1.19,.04-2.46-.32-3.73-5.07-3.8-5.37-.21-.8-1.43-5.97,1.51-8.84,.23-.21,.42-.32,.72-.54,.55-.38,2.03-1.31,6.26-1.92,1.98-.28,2.33-.17,2.6,.01,1.06,.72,1.37,2.73,.59,3.91Z"/><path class="cls-10" d="M80.23,122.36c-1.44-6.14-4.49-19.08-12.33-20.33-.01,.01-.03,.01-.04,.03-.41,.27-1.31,.73-2.51,.75-.75,0-1.34-.17-1.74-.32-1.54,.52-4.77,2.06-8.49,10.29-.86,1.91-7.17,15.96-3.01,18.99,.62,.45,1.24,.51,3.11,.48h.28c-.07,1.62-.08,3.16-.06,4.55,.03-.21,.06-.38,.08-.54h20.5c-.01-1.14-.04-2.46-.11-3.91,1.27,.25,2.85,.32,3.95-.58,.88-.69,1.99-2.41,.35-9.4Z"/><path class="cls-4" d="M66.58,128.66c.99-.16,1.84-.28,2.5-.37,1.98-.27,2.69-.3,3.54-.15,.92,.16,1.39,.43,1.51,.5,.49,.29,.8,.69,1.43,1.48,1.02,1.29,.9,1.58,.85,1.66-.06,.09-.15,.13-.17,.14-.73,.27-2-2.33-2.72-2.09-.37,.12-.1,.82-.63,1.32-.87,.83-2.89,.2-3.11,.13-.69-.21-1.02-.47-1.72-.44-.5,.02-.9,.19-1.17,.32-.11-.84-.22-1.67-.32-2.51Z"/><path class="cls-6" d="M97.69,116.23c-.25-.41-.7-.66-1.17-.66h-19.18c-.52,0-1,.29-1.23,.76l-6.89,13.62c-.1,.2-.14,.41-.14,.62h-9.36v1.38h29.91c.52,0,1-.29,1.23-.76l6.89-13.62c.22-.43,.2-.94-.06-1.34Z"/><path class="cls-18" d="M66.02,128.32s-2.87-.29-4.89-.51c-1.9-.21-2.54-.28-3.03-.83-.97-1.08-.42-2.96,.06-4.62,.86-2.97,1.88-6,3.01-9.02,.03-.09,.14-.14,.23-.1,.09,.03,.14,.14,.1,.23-1.13,3.01-2.14,6.04-3,9-.55,1.9-.92,3.43-.14,4.29,.39,.43,.9,.5,2.8,.71,2.01,.22,3.68,.39,4.87,.51,.1,0,.17,.1,.16,.19,0,.09-.09,.16-.18,.16Z"/><path class="cls-16" d="M108.15,180.94c-3.49-12.76-6.98-25.52-10.47-38.28,.2,4.61-3.26,12.19-5.37,16.34,3.49,7.31,6.97,14.62,10.46,21.93h5.38Z"/><path class="cls-15" d="M97.68,142.67c-.03-.67-.14-1.29-.34-1.81-.12-.31-.25-.6-.39-.85,0-.02-.02-.04-.03-.05-.45-.84-.92-1.34-.92-1.34-2.03-2.15-5-1.68-12.19-2.13-3.11-.2-5.7-.23-7.48-.23h-20.8c-.03,.16-.06,.32-.08,.54-.27,2.16-.52,6.79,2.41,9.6,1.43,1.37,3.15,1.88,5.25,2.1h22.95c-4.24,10.77-8.49,21.55-12.72,32.32h6.44c2.15-3.64,11.62-20.01,12.53-21.81,2.11-4.16,5.57-11.73,5.37-16.34Z"/></g><path class="cls-9" d="M113.49,131.95H37.5c-.58,0-1.06,.48-1.06,1.06v.37c0,.58,.48,1.06,1.06,1.06h9.35l-6.99,52.73c-.04,.28,.16,.55,.44,.59,.29,.04,.56-.15,.6-.44l8.08-52.88h54.03l8.08,52.88c.04,.28,.31,.48,.59,.44,.29-.04,.49-.3,.46-.59l-6.99-52.73h8.35c.58,0,1.06-.48,1.06-1.06v-.37c0-.58-.48-1.06-1.06-1.06Z"/></g><g><g><g><path class="cls-8" d="M29.81,150.89c-.14-.84-.4-1.23-.6-2.69-.2-1.44-.31-2.19,.1-2.89,.71-1.23,2.2-1.45,2.55-1.5,3.53-.54,7.56,3.83,6.92,8.35-.25,1.79-1.13,2.41-1.04,4.54,.06,1.41,.45,1.38,.49,2.67,.09,3.02-2.35,4.32-2.09,9.49-1.15-1.27-4.9-5.5-5.72-7-.65-1.18-1.8-3.32-1.55-5.93,.22-2.26,1.3-2.91,.94-5.03Z"/><path class="cls-8" d="M22.53,160.73c-1.11,1.23-.61,3.16-.4,3.94,1.38,5.28,10.05,7.84,12.13,7.58-1.51-5-4.84-5.05-6.45-6.75-1.82-1.93-.34-4.57-1.89-5.52-.98-.6-2.58-.15-3.4,.76Z"/><g><path class="cls-14" d="M36.59,170.27c-.86-5.34-3.22-6.14-3.4-10.86-.13-3.42,1.04-4.48,.57-8.63-.1-.9-.25-1.79-.49-2.67-.06-.23-.38-.16-.32,.08,.23,.86,.38,1.74,.48,2.62,.47,4.09-.7,5.14-.57,8.6,.18,4.79,2.56,5.62,3.41,10.88,.42,2.58,.33,5.23-.28,7.92-.02,.09,.05,.12,.14,.15,.09,.02,.17,.02,.19-.07,.62-2.73,.7-5.4,.28-8.02Z"/><path class="cls-14" d="M36,178.18c.33-2.48-.33-3.95-.94-4.74-.48-.63-2.11-2.12-4.3-3.37-.62-.35-3.03-1.47-4.2-2.51-.82-.73-1.47-1.67-1.92-2.8-.08-.2,.22-.33,.31-.12,.44,1.08,1.05,1.98,1.84,2.68,1.14,1.01,3.5,2.1,4.14,2.47,2.19,1.24,3.87,2.77,4.4,3.45,.65,.84,1.35,2.39,1.01,4.99-.03,.22-.36,.17-.33-.04Z"/></g></g><g><path class="cls-8" d="M47.32,156.76c.27-.6,.54-.84,.97-1.89,.43-1.04,.65-1.57,.49-2.17-.29-1.05-1.36-1.51-1.6-1.61-2.52-1.08-6.38,1.39-6.78,4.88-.16,1.38,.37,2.02-.11,3.59-.32,1.04-.61,.94-.88,1.89-.65,2.23,.91,3.67-.29,7.47,1.1-.72,4.72-3.15,5.62-4.11,.71-.75,1.99-2.13,2.31-4.12,.28-1.72-.41-2.42,.28-3.93Z"/><path class="cls-8" d="M50.84,165.5c.58,1.14-.16,2.47-.47,3.01-2.05,3.67-9.01,3.89-10.51,3.29,2.1-3.44,4.59-2.82,6.12-3.78,1.73-1.08,1.14-3.34,2.48-3.75,.85-.26,1.95,.39,2.39,1.22Z"/><g><path class="cls-14" d="M38.51,169.88c1.68-3.81,3.6-3.95,4.64-7.43,.76-2.52,.09-3.54,1.25-6.54,.25-.65,.54-1.29,.88-1.89,.09-.16,.32-.05,.22,.12-.34,.6-.62,1.22-.87,1.86-1.14,2.96-.48,3.97-1.25,6.52-1.06,3.54-3,3.69-4.65,7.44-.81,1.84-1.26,3.83-1.33,5.95,0,.07-.06,.08-.13,.08-.07,0-.13-.02-.12-.09,.07-2.16,.53-4.16,1.35-6.03Z"/><path class="cls-14" d="M37.41,175.89c.24-1.92,1.01-2.88,1.62-3.35,.48-.37,1.98-1.17,3.86-1.67,.53-.14,2.55-.51,3.62-1.05,.75-.38,1.42-.96,1.98-1.71,.1-.13-.1-.29-.2-.15-.54,.72-1.17,1.27-1.89,1.64-1.05,.53-3.01,.89-3.57,1.03-1.87,.5-3.42,1.32-3.95,1.72-.65,.5-1.47,1.52-1.72,3.52-.02,.17,.23,.2,.25,.03Z"/></g></g></g><path class="cls-12" d="M42.56,179.37v4.13c0,2.43-.82,4.58-2.03,5.81h-7.34c-1.23-1.23-2.05-3.38-2.05-5.81v-4.13c.04-1.51,.07-3.03,.1-4.54h11.22c.03,1.51,.07,3.03,.1,4.54Z"/></g></g><g><path class="cls-16" d="M127.53,165.36v3.9h-4.41v4.22h3.3v3.79h-3.3v8.09h-2.64v-20h7.05Z"/><path class="cls-16" d="M131.56,169.26v4.04h3.53v3.76h-3.53v4.39h4v3.9h-6.63v-20h6.63v3.9h-4Z"/><path class="cls-16" d="M142.79,185.36l-2.25-7.55h-.63v7.55h-2.64v-20h4.43c.85,0,1.58,.28,2.18,.83,.6,.55,1.05,1.31,1.35,2.26s.45,2.03,.45,3.2c0,1.33-.2,2.52-.61,3.56-.41,1.04-1.01,1.79-1.8,2.22l2.5,7.92h-2.98Zm-2.89-11h1.64c.48,0,.85-.22,1.09-.66,.24-.44,.36-1.05,.36-1.85s-.12-1.36-.36-1.79-.6-.66-1.09-.66h-1.64v4.96Z"/><path class="cls-16" d="M152.85,185.36l-2.25-7.55h-.63v7.55h-2.64v-20h4.43c.85,0,1.58,.28,2.18,.83,.6,.55,1.05,1.31,1.35,2.26s.45,2.03,.45,3.2c0,1.33-.2,2.52-.61,3.56-.41,1.04-1.01,1.79-1.8,2.22l2.5,7.92h-2.98Zm-2.89-11h1.64c.48,0,.85-.22,1.09-.66,.24-.44,.36-1.05,.36-1.85s-.12-1.36-.36-1.79-.6-.66-1.09-.66h-1.64v4.96Z"/><path class="cls-16" d="M164.12,181.83h-4.04l-.65,3.53h-2.76l3.92-20h3.05l3.92,20h-2.79l-.65-3.53Zm-.68-3.76l-1.34-7.32-1.33,7.32h2.67Z"/><path class="cls-16" d="M181.02,165.36v20h-2.64v-11.99l-2.42,11.99h-2.13l-2.44-12.02v12.02h-2.64v-20h3.12l3.04,13.84,3.01-13.84h3.1Z"/><path class="cls-16" d="M185.55,169.26v4.04h3.53v3.76h-3.53v4.39h4v3.9h-6.63v-20h6.63v3.9h-4Z"/><path class="cls-16" d="M200.95,185.36h-2.64l-4.41-12.33v12.33h-2.64v-20h2.64l4.41,12.39v-12.39h2.64v20Z"/><path class="cls-16" d="M210.66,165.36v3.9h-2.87v16.09h-2.64v-16.09h-2.87v-3.9h8.38Z"/><path class="cls-16" d="M218.72,181.83h-4.04l-.65,3.53h-2.76l3.92-20h3.05l3.92,20h-2.79l-.65-3.53Zm-.68-3.76l-1.34-7.32-1.33,7.32h2.67Z"/><path class="cls-16" d="M233.37,181.83h-4.04l-.65,3.53h-2.76l3.92-20h3.05l3.92,20h-2.79l-.65-3.53Zm-.68-3.76l-1.34-7.32-1.33,7.32h2.67Z"/><path class="cls-16" d="M237.79,181.66v-3.93l4.88-12.88h2.95v12.59h1.26v4.22h-1.26v3.7h-2.64v-3.7h-5.18Zm5.37-11.45l-2.59,7.24h2.59v-7.24Z"/></g></svg>